<svg class="svg-icon" style="width: 1em;height: 1em;vertical-align: middle;fill: currentColor;overflow: hidden;" viewBox="0 0 1024 1024" version="1.1" xmlns="http://www.w3.org/2000/svg"><path d="M512 962.56C263.168 962.56 61.44 760.832 61.44 512S263.168 61.44 512 61.44s450.56 201.728 450.56 450.56-201.728 450.56-450.56 450.56z m0-409.6c46.73536 0 81.92 29.32736 81.92 61.44s-35.18464 61.44-81.92 61.44-81.92-29.32736-81.92-61.44a40.96 40.96 0 1 0-81.92 0c0 68.17792 53.02272 123.14624 122.88 138.8544V778.24a40.96 40.96 0 1 0 81.92 0v-24.9856c69.85728-15.70816 122.88-70.67648 122.88-138.8544 0-80.9984-74.83392-143.36-163.84-143.36-46.73536 0-81.92-29.32736-81.92-61.44s35.18464-61.44 81.92-61.44 81.92 29.32736 81.92 61.44a40.96 40.96 0 1 0 81.92 0c0-68.17792-53.02272-123.14624-122.88-138.8544V245.76a40.96 40.96 0 1 0-81.92 0v24.9856c-69.85728 15.70816-122.88 70.67648-122.88 138.8544 0 80.9984 74.83392 143.36 163.84 143.36z m215.8592-238.71488c49.21344 52.36736 77.33248 123.06432 77.33248 198.59456 0 22.15936 16.896 40.12032 37.72416 40.12032C863.744 552.96 880.64 534.99904 880.64 512.83968c0-97.03424-36.20864-188.06784-99.45088-255.32416a36.1472 36.1472 0 0 0-53.32992 0 41.94304 41.94304 0 0 0 0 56.7296zM296.1408 709.75488c-49.21344-52.36736-77.33248-123.06432-77.33248-198.59456 0-22.15936-16.896-40.12032-37.72416-40.12032C160.256 471.04 143.36 489.00096 143.36 511.16032c0 97.03424 36.20864 188.06784 99.45088 255.32416a36.12672 36.12672 0 0 0 53.32992 0c14.7456-15.6672 14.7456-41.0624 0-56.7296z"  /></svg>