<?xml version="1.0" encoding="utf-8"?>
<!-- Generator: Adobe Illustrator 25.4.1, SVG Export Plug-In . SVG Version: 6.00 Build 0)  -->
<svg version="1.2" baseProfile="tiny" xmlns="http://www.w3.org/2000/svg" xmlns:xlink="http://www.w3.org/1999/xlink" x="0px"
	 y="0px" viewBox="0 0 136.7 136.7" overflow="visible" xml:space="preserve">
<g id="Layer_2">
	<rect x="0" y="0" fill="#F7971D" width="136.7" height="136.7"/>
</g>
<g id="Layer_1">
	<path d="M104.3,61H32.2c-2.2,0.3-3.5,1.6-3.7,4.1v41.4c0.2,2.5,1.4,3.9,3.7,4.1h72.2c2.2-0.3,3.5-1.6,3.7-4.1V65.1
		C107.7,62.6,106.5,61.3,104.3,61"/>
	<path fill="#FFFFFF" d="M100.7,80.3c-1.2-1.4-2.9-2.2-4.7-2.6c-0.5-0.1-1.1-0.2-1.8-0.3c-2.4-0.2-5.4,0.7-6.8,1.9l0.3-9.7h-5.8v30
		h5.4V98c1.2,1,3.2,2.1,6.2,2.1c0.1,0,0.2,0,0.3,0s0.2,0,0.2,0c2.5,0,4.7-1,6.4-3c1.8-2,2.7-4.9,2.7-8.6
		C103.3,85,102.4,82.2,100.7,80.3 M96,94c-0.9,1.1-2,1.6-3.2,1.6c-1.7,0-3-0.8-4-2.3c-0.7-1.1-1.1-2.7-1.1-5c0-2.2,0.5-3.8,1.4-4.9
		s2.1-1.6,3.4-1.6c1.4,0,2.6,0.5,3.5,1.6s1.4,2.9,1.4,5.4C97.4,91.2,96.9,92.9,96,94 M72.7,87.1c0,3.1-0.1,5.1-0.4,5.9
		c-0.3,0.8-0.8,1.5-1.6,2s-1.7,0.8-2.6,0.8c-0.9,0-1.6-0.2-2.1-0.6c-0.5-0.4-0.9-0.9-1.2-1.6c-0.2-0.7-0.3-2.6-0.3-5.6V78h-5.8v13.8
		c0,2,0.3,3.7,0.8,4.8c0.5,1.2,1.4,2.1,2.5,2.7c1.2,0.6,2.5,1,3.9,1c0.2,0,0.4,0,0.7,0l0,0c3.7-0.1,5.6-1.8,6.5-2.9v2.4h5.3V77.9
		h-5.8L72.7,87.1z M53.9,80c-0.5-0.8-1.3-1.4-2.4-1.9c-1-0.4-2-0.7-3.2-0.7c0,0,0,0-0.1,0c-2.4-0.1-5.5,0.6-7,2v-9.8h-5.8v30h5.8
		V88.8c0-1.8,0.2-3.2,0.5-4.2c0.3-0.9,0.9-1.6,1.7-2.1c0.8-0.5,1.6-0.7,2.6-0.7c0.8,0,1.5,0.2,2.1,0.5c0.6,0.4,0.9,0.9,1.2,1.5
		c0.2,0.6,0.3,2.1,0.3,4.3v11.5h5.8V86.9c0-2-0.1-3.4-0.3-4.3C54.8,81.7,54.5,80.8,53.9,80"/>
	<path d="M107.7,37.7c-0.2-0.8-0.5-1.6-1-2.2c-0.5-0.6-1.2-1.2-2.2-1.6s-2-0.6-3.2-0.6c-2.1-0.1-5.6,0.7-6.5,2.4v-1.9h-4.9v19.9h5.3
		v-9.1c0-2.3,0.2-3.7,0.4-4.6c0.3-0.8,0.8-1.5,1.5-2c0.7-0.5,1.6-0.8,2.4-0.8c0.7,0,1.3,0.2,1.8,0.5s0.9,0.9,1.1,1.5
		c0.3,0.6,0.3,2,0.3,4.2v10.2h5.3V41.2C108,39.7,107.9,38.5,107.7,37.7 M82.5,33.3c-1.6,0.2-3,1.5-3.7,2.3v-1.9h-4.9v19.9h5.3v-6.2
		c0-3.4,0.2-5.7,0.4-6.7c0.3-1,0.7-1.8,1.2-2.2c0.5-0.4,1.1-0.6,1.9-0.6c0.8,0,1.6,0.3,2.4,0.9l1.7-4.6c-1.1-0.7-2.3-1-3.5-1
		C83.1,33.3,82.8,33.3,82.5,33.3 M61,33.3c-1.9,0-3.7,0.4-5.3,1.3c-1.6,0.9-2.8,2.1-3.7,3.7c-0.9,1.7-1.3,3.3-1.3,5.1
		c0,2.3,0.4,4.3,1.3,5.8c0.9,1.6,2.1,2.8,3.7,3.7c1.7,0.8,3.4,1.2,5.2,1.2c3,0,5.4-1,7.3-3c1.9-2,3-4.4,3-7.5c0-3-1-5.5-2.9-7.4
		C66.5,34.3,64.1,33.3,61,33.3 M64.5,48.2c-1,1-2.1,1.6-3.5,1.6c-1.4,0-2.5-0.5-3.5-1.6c-1-1-1.4-2.5-1.4-4.5s0.4-3.5,1.4-4.5
		c1-1,2.1-1.6,3.5-1.6c1.4,0,2.5,0.5,3.5,1.6c1,1,1.4,2.5,1.4,4.5C65.9,45.7,65.5,47.1,64.5,48.2 M44,26.5c-1-0.3-3.2-0.4-6.6-0.4
		h-8.9v27.5h5.6V43.2h3.7c2.5,0,4.4-0.2,5.7-0.4c1-0.2,1.9-0.6,2.9-1.3s1.7-1.6,2.4-2.7c0.6-1.1,1-2.6,1-4.3c0-2.2-0.5-4-1.6-5.4
		C47,27.8,45.6,26.9,44,26.5 M43.3,36.8c-0.4,0.6-1,1-1.7,1.4s-2.2,0.4-4.4,0.4h-3v-7.8h2.7c2,0,3.3,0.1,4,0.2
		c0.9,0.2,1.7,0.6,2.3,1.2c0.6,0.6,0.9,1.5,0.9,2.4C43.9,35.5,43.7,36.2,43.3,36.8"/>
</g>
</svg>
