<?xml version="1.0" encoding="UTF-8" ?>
<!DOCTYPE svg PUBLIC "-//W3C//DTD SVG 1.1//EN" "http://www.w3.org/Graphics/SVG/1.1/DTD/svg11.dtd">
<svg width="1049pt" height="1049pt" viewBox="0 0 1049 1049" version="1.1" xmlns="http://www.w3.org/2000/svg">
<g id="#ffffffff">
<path fill="#ffffff" stroke="#ffffff" stroke-width="0.09375" opacity="1.00" d=" M 514.11 142.96 C 517.08 142.70 520.12 142.78 523.01 141.91 C 529.74 141.92 536.44 141.07 543.17 141.13 C 546.44 140.64 549.73 141.63 552.97 140.84 C 558.60 141.57 564.35 140.90 569.94 142.11 C 575.65 141.94 581.30 142.92 587.01 142.90 C 590.16 143.88 593.51 143.73 596.78 143.92 C 599.75 144.84 602.90 144.73 605.98 144.93 C 608.91 145.73 611.97 145.73 614.98 145.96 C 617.73 146.81 620.64 146.85 623.49 146.82 L 623.40 147.32 C 626.07 147.55 628.74 147.81 631.42 147.84 L 631.43 148.33 C 633.94 148.50 636.47 148.66 638.94 149.22 C 641.28 149.51 643.63 149.71 645.98 150.03 C 648.29 150.50 650.65 150.68 653.01 150.98 C 655.22 151.50 657.50 151.71 659.77 151.97 C 661.79 152.45 663.85 152.70 665.90 153.08 C 667.91 153.34 669.92 153.60 671.92 154.04 C 673.91 154.36 675.92 154.62 677.92 155.03 C 679.91 155.36 681.92 155.61 683.91 156.05 C 685.88 156.39 687.86 156.63 689.85 156.91 C 691.81 157.49 693.84 157.74 695.86 158.15 C 699.51 158.70 703.13 159.44 706.76 160.15 C 710.17 160.63 713.56 161.31 716.92 162.09 C 718.89 162.36 720.87 162.62 722.82 163.10 C 727.86 163.94 732.85 165.02 737.84 166.13 C 739.50 166.45 741.18 166.75 742.85 167.13 C 745.84 167.78 748.83 168.41 751.82 169.11 C 754.83 169.78 757.85 170.42 760.86 171.12 C 772.51 173.78 784.22 176.20 795.79 179.19 C 797.15 179.49 798.51 179.80 799.88 180.17 C 807.53 182.16 815.20 184.11 822.85 186.14 C 825.20 186.67 827.50 187.38 829.88 187.82 C 831.50 188.36 833.17 188.74 834.85 189.18 C 840.88 190.75 846.88 192.45 852.88 194.17 C 855.20 194.71 857.47 195.42 859.75 196.16 C 860.78 196.45 861.82 196.76 862.87 197.08 C 864.18 197.42 865.50 197.76 866.82 198.17 C 869.18 198.69 871.49 199.39 873.79 200.19 C 876.16 200.72 878.50 201.41 880.83 202.18 C 888.21 204.40 895.56 206.75 902.85 209.26 C 903.86 209.57 904.87 209.90 905.88 210.25 C 907.88 210.87 909.87 211.55 911.85 212.27 C 912.87 212.58 913.90 212.91 914.94 213.27 C 917.18 214.11 919.42 214.98 921.75 215.57 C 922.08 215.80 922.73 216.25 923.06 216.47 C 924.42 216.86 925.79 217.29 927.17 217.70 C 928.75 218.54 930.42 219.24 932.17 219.72 C 934.00 220.57 935.84 221.41 937.73 222.16 C 939.90 222.88 941.93 223.97 944.11 224.68 C 945.35 225.21 946.60 225.76 947.83 226.37 C 948.93 226.82 950.04 227.27 951.17 227.70 C 952.45 228.40 953.75 229.05 955.09 229.67 C 957.43 230.77 959.79 231.86 962.06 233.14 C 964.43 234.30 966.73 235.60 969.12 236.75 C 973.21 239.03 977.11 241.62 980.93 244.34 C 982.05 245.19 983.17 246.03 984.37 246.81 L 984.33 247.28 C 985.21 247.83 986.10 248.39 987.00 248.97 C 988.46 250.83 990.16 252.49 991.99 254.02 C 992.53 254.76 993.09 255.51 993.66 256.26 C 994.46 257.11 995.17 258.07 995.78 259.08 C 997.48 261.63 998.96 264.35 999.88 267.29 C 1000.58 268.98 1000.67 270.81 1000.83 272.62 L 1001.29 272.49 C 1001.26 274.46 1001.26 276.44 1001.29 278.43 L 1000.78 278.51 C 1000.80 281.15 1000.19 283.73 999.31 286.21 C 998.24 287.85 997.30 289.56 996.26 291.21 C 995.41 292.08 994.67 293.03 994.01 294.04 C 991.64 295.64 989.24 297.20 987.04 299.02 C 983.26 300.31 979.66 302.18 975.68 302.82 C 973.49 303.50 971.20 303.61 969.00 304.15 C 964.02 304.52 959.03 304.46 954.05 304.28 C 954.20 307.55 954.59 310.81 955.23 314.02 C 954.68 315.34 954.69 316.67 955.26 317.99 C 954.75 320.77 954.05 323.51 953.35 326.25 C 951.42 330.76 947.97 334.31 944.20 337.35 C 941.78 338.46 939.55 340.01 936.98 340.76 C 935.65 341.22 934.33 341.67 933.05 342.20 C 931.69 342.76 929.86 342.27 928.73 343.14 C 927.16 343.45 925.60 343.71 924.06 344.07 C 921.69 344.31 919.30 344.40 917.02 345.07 C 915.21 345.18 913.39 345.03 911.64 345.43 C 908.95 351.86 907.42 358.77 904.21 365.01 C 903.24 366.46 902.28 367.91 901.36 369.39 C 899.73 371.18 898.00 372.88 896.26 374.56 L 895.78 374.50 C 893.98 375.87 891.96 376.91 889.87 377.73 C 888.51 378.24 887.17 378.74 885.85 379.27 C 877.87 381.45 869.57 380.25 861.50 381.55 C 860.85 387.35 860.67 393.27 858.83 398.87 C 858.47 399.88 858.12 400.88 857.78 401.90 C 856.59 405.68 854.28 408.94 852.40 412.39 C 851.30 413.66 850.15 414.88 849.02 416.12 C 847.41 416.96 845.72 417.64 843.97 418.09 C 833.59 418.56 823.16 417.60 812.82 418.64 C 811.92 420.65 811.39 422.78 810.89 424.92 C 809.10 432.50 804.20 439.61 796.91 442.76 C 794.44 443.95 791.76 444.59 789.12 445.22 C 785.70 445.17 782.29 445.21 778.88 445.18 C 773.44 445.05 767.49 440.06 762.53 443.83 C 761.92 445.60 761.30 447.37 760.68 449.14 C 759.77 451.61 758.56 453.95 757.38 456.30 C 754.62 459.61 751.75 462.87 748.13 465.27 C 747.07 465.70 746.03 466.16 744.99 466.61 C 743.69 467.16 742.39 467.69 741.11 468.22 C 738.11 468.98 735.04 469.44 732.04 470.15 C 727.70 470.11 723.32 470.51 719.02 469.89 C 717.23 469.64 715.44 469.43 713.67 469.23 C 712.28 471.28 711.67 473.69 710.81 475.98 C 709.10 480.48 706.21 484.39 703.10 488.01 C 700.23 490.22 697.31 492.41 693.97 493.83 C 692.73 494.28 691.50 494.71 690.28 495.17 C 688.78 495.41 687.30 495.68 685.88 496.20 C 684.29 496.22 682.71 496.21 681.14 496.17 C 678.11 495.32 674.98 494.86 672.02 493.77 C 670.35 493.08 668.68 492.38 667.07 491.57 C 664.86 490.14 661.73 489.80 660.01 492.17 C 657.86 493.38 655.67 494.57 654.00 496.41 C 653.62 496.36 652.87 496.27 652.49 496.22 L 652.47 497.11 C 646.32 499.86 639.76 502.02 632.92 501.17 C 631.56 500.79 630.19 500.49 628.83 500.21 C 627.55 499.71 626.29 499.23 625.03 498.74 C 623.22 498.02 621.44 497.26 619.70 496.40 C 618.48 495.40 617.12 494.59 615.63 494.10 L 615.54 493.79 C 614.00 492.86 612.47 491.93 610.92 491.05 C 609.98 490.56 609.05 490.07 608.13 489.57 C 605.52 488.43 602.78 487.61 600.09 486.69 C 597.09 486.20 593.86 485.74 590.99 486.97 C 590.46 488.28 590.10 489.64 589.72 491.00 C 590.13 492.32 590.47 493.67 590.76 495.03 C 592.29 496.62 593.85 498.29 596.04 498.95 C 597.67 499.71 599.35 500.34 601.10 500.80 C 602.08 501.15 603.07 501.51 604.08 501.85 C 605.32 502.31 606.56 502.77 607.80 503.29 C 610.94 504.38 613.98 505.75 617.11 506.88 C 618.75 507.59 620.41 508.24 622.12 508.82 C 623.43 509.34 624.75 509.86 626.06 510.41 C 632.74 512.87 639.33 515.60 645.90 518.35 C 649.91 520.08 653.98 521.68 658.02 523.36 C 662.00 525.17 666.15 526.59 670.09 528.49 C 672.37 529.43 674.69 530.29 676.88 531.45 C 680.54 533.12 684.21 534.77 687.91 536.37 C 691.37 537.72 694.65 539.45 698.07 540.90 C 703.20 543.20 708.10 546.03 713.42 547.91 L 713.44 548.41 C 714.65 548.86 715.87 549.36 717.08 549.88 C 719.04 550.91 721.06 551.81 723.08 552.75 C 723.58 553.00 724.58 553.49 725.08 553.74 C 726.00 554.25 726.92 554.77 727.86 555.30 C 728.93 555.79 730.01 556.30 731.09 556.83 C 732.38 557.58 733.70 558.30 735.05 558.98 C 735.55 559.22 736.56 559.69 737.06 559.93 C 738.33 560.69 739.68 561.32 741.07 561.89 C 742.53 562.77 744.05 563.59 745.62 564.31 C 748.59 565.76 751.26 567.82 754.41 568.93 L 754.39 569.70 L 755.21 569.49 C 756.38 570.42 757.69 571.15 759.03 571.86 C 770.47 578.16 781.41 585.35 791.98 593.01 C 792.86 593.83 793.77 594.63 794.77 595.35 C 795.90 596.14 796.97 597.03 797.99 597.99 C 798.86 598.84 799.80 599.61 800.82 600.31 C 802.95 601.90 804.63 603.99 806.61 605.77 L 806.51 606.19 C 806.81 606.45 807.39 606.95 807.69 607.20 C 809.70 609.70 811.53 612.33 813.35 614.98 C 813.37 615.24 813.40 615.78 813.41 616.04 C 816.30 620.37 816.52 626.08 814.92 630.93 C 813.66 633.82 811.22 635.83 809.02 637.97 C 808.00 638.65 807.00 639.34 806.01 640.04 C 804.00 640.99 801.97 641.90 799.92 642.74 C 796.21 644.17 792.43 645.51 788.47 645.97 C 788.84 648.80 789.55 651.59 789.68 654.47 C 789.83 654.50 790.13 654.56 790.29 654.59 C 790.21 656.79 790.27 659.02 789.89 661.21 C 789.60 662.79 789.32 664.39 788.98 665.97 C 788.03 667.92 786.63 669.58 785.05 671.04 C 782.13 672.85 779.22 674.75 775.95 675.84 C 774.64 676.30 773.32 676.76 772.05 677.28 C 770.22 677.55 768.40 677.79 766.57 677.95 C 765.99 681.31 766.20 684.72 766.20 688.12 C 765.42 691.09 764.82 694.11 763.89 697.05 C 761.97 702.25 758.12 706.40 753.81 709.75 C 752.51 710.44 751.22 711.14 749.94 711.84 C 745.80 713.59 741.37 714.26 737.02 715.17 C 733.93 715.20 730.84 715.11 727.77 715.31 C 727.63 715.13 727.35 714.77 727.21 714.59 C 723.49 714.49 719.79 714.11 716.07 714.11 C 716.15 717.07 716.30 720.08 717.14 722.95 C 717.20 727.55 717.24 732.16 717.15 736.77 C 716.38 741.33 715.15 745.84 713.20 750.06 C 711.14 753.53 708.71 756.96 705.05 758.89 C 703.69 759.64 702.34 760.38 701.01 761.16 C 698.09 762.02 695.12 762.69 692.13 763.20 C 688.30 763.33 684.46 763.12 680.64 763.52 C 678.92 767.83 678.97 772.68 676.71 776.84 C 675.79 778.29 674.79 779.69 673.63 780.96 L 673.61 781.29 C 669.40 784.42 664.44 786.56 659.14 786.75 L 659.72 787.28 C 655.75 787.11 651.77 787.09 647.81 787.47 C 647.56 789.27 647.33 791.10 646.96 792.90 C 646.23 795.42 645.18 797.83 644.20 800.26 C 642.91 801.95 641.49 803.53 640.06 805.09 C 638.99 805.99 637.96 806.94 637.04 808.00 C 635.55 808.98 634.04 809.93 632.43 810.69 L 632.42 811.28 C 628.59 811.88 624.62 812.30 620.80 811.42 C 614.64 809.40 609.28 805.61 604.17 801.72 C 595.75 794.71 589.14 785.88 582.86 776.99 C 579.10 771.07 575.40 765.13 571.89 759.05 C 569.38 753.98 566.54 749.08 563.91 744.08 C 563.33 742.69 562.69 741.34 561.93 740.07 C 561.31 738.70 560.69 737.34 559.94 736.06 C 559.70 735.56 559.22 734.55 558.98 734.05 C 558.73 733.55 558.23 732.55 557.98 732.05 C 557.72 731.56 557.19 730.59 556.92 730.10 C 556.38 728.90 555.86 727.68 555.43 726.46 L 554.92 726.38 C 553.58 722.45 551.34 718.92 549.61 715.18 C 548.61 712.71 547.48 710.31 546.40 707.89 C 544.85 704.57 543.55 701.14 541.72 697.97 C 541.69 697.72 541.63 697.23 541.61 696.98 C 540.07 694.01 538.72 690.96 537.42 687.90 C 534.59 681.62 532.10 675.20 529.36 668.88 C 527.61 664.93 526.10 660.89 524.35 656.95 C 523.79 655.65 523.27 654.36 522.75 653.08 C 521.69 649.95 520.33 646.94 519.24 643.84 C 518.56 642.18 517.90 640.54 517.33 638.86 C 515.85 635.59 514.53 632.25 513.36 628.87 C 512.07 626.30 511.39 623.49 510.26 620.87 C 509.75 619.61 509.29 618.36 508.80 617.11 C 506.99 611.73 504.86 606.46 502.86 601.16 C 501.05 596.54 499.57 591.56 496.09 587.88 C 493.63 587.01 491.01 587.14 488.45 587.23 C 488.22 591.21 489.10 595.13 490.02 598.97 C 490.71 601.41 491.56 603.81 492.65 606.12 C 493.89 609.12 495.32 612.04 496.61 615.02 C 498.63 619.62 500.66 624.24 501.92 629.13 C 502.30 630.72 502.66 632.33 503.16 633.91 C 503.20 636.31 503.19 638.73 503.20 641.14 C 502.85 642.48 502.55 643.83 502.26 645.20 C 500.66 650.81 496.97 655.36 493.47 659.88 C 493.92 663.70 495.40 667.30 496.13 671.07 C 496.38 673.23 496.52 675.41 497.06 677.54 C 497.34 680.53 497.12 683.54 497.25 686.55 L 496.75 686.29 C 496.73 689.11 495.53 691.68 494.29 694.15 C 490.87 698.73 486.68 702.69 482.05 706.03 C 480.34 707.02 478.68 708.11 477.04 709.22 C 475.39 709.99 473.76 710.84 472.25 711.89 C 472.13 719.75 473.16 727.81 471.06 735.50 C 469.86 739.98 467.10 743.72 464.39 747.38 C 462.25 749.64 459.53 751.22 457.28 753.36 C 454.13 755.53 450.79 757.47 447.95 760.04 C 443.34 762.23 445.54 768.01 446.11 771.88 C 446.43 774.22 446.71 776.57 447.18 778.90 C 447.20 780.96 447.20 783.04 447.19 785.12 C 446.68 788.21 446.22 791.38 444.49 794.09 C 444.49 794.31 444.49 794.74 444.50 794.96 C 442.91 796.88 441.38 798.87 439.61 800.64 C 438.72 801.40 437.86 802.20 437.01 803.02 C 435.73 803.73 434.46 804.47 433.28 805.36 C 431.52 806.23 429.72 807.02 427.87 807.70 C 426.65 808.18 425.44 808.69 424.23 809.21 C 423.33 809.35 422.43 809.49 421.54 809.64 C 421.28 810.73 421.02 811.83 420.77 812.94 C 421.66 818.58 420.99 824.36 421.16 830.06 C 420.59 833.83 419.72 837.53 418.47 841.14 C 417.53 842.72 416.54 844.27 415.49 845.79 L 415.55 846.25 C 413.69 848.15 411.94 850.19 409.72 851.70 C 408.21 852.57 406.71 853.47 405.23 854.40 C 398.44 857.47 390.96 858.48 383.59 858.86 C 382.72 862.58 382.73 866.42 382.25 870.20 C 381.69 877.87 380.52 885.73 376.34 892.37 C 375.59 893.25 374.82 894.13 374.06 895.02 C 373.40 895.68 372.74 896.37 372.10 897.07 C 365.12 903.32 355.83 906.31 346.74 907.87 C 344.74 913.71 346.68 920.07 345.06 926.04 C 344.68 928.02 344.39 930.05 343.82 932.01 C 343.02 934.03 342.18 936.04 341.30 938.05 C 339.36 941.75 336.39 944.76 333.17 947.39 C 331.43 948.22 329.71 949.12 327.92 949.83 C 326.01 950.52 323.99 950.72 322.01 951.08 C 318.69 951.76 315.28 951.54 311.93 951.28 C 309.88 950.78 307.77 950.65 305.68 950.54 C 305.74 957.97 306.40 965.52 304.91 972.86 C 304.65 974.58 304.38 976.32 304.06 978.06 C 303.57 979.77 302.95 981.46 302.16 983.07 C 299.37 985.64 296.47 988.06 293.28 990.13 C 290.87 991.50 288.43 992.84 285.84 993.85 C 278.27 996.90 269.36 996.60 261.90 993.35 C 256.44 990.22 250.94 986.64 247.20 981.47 L 246.80 981.42 C 245.11 978.81 243.03 976.48 241.30 973.91 C 240.44 972.65 239.58 971.42 238.74 970.17 C 237.34 967.33 235.27 964.84 234.19 961.85 C 232.91 959.66 231.89 957.34 230.73 955.10 C 230.47 954.58 229.94 953.55 229.68 953.04 C 228.78 950.68 227.78 948.38 226.67 946.13 C 225.83 943.65 224.57 941.35 223.69 938.90 C 223.53 937.83 223.79 936.38 222.37 936.12 C 222.22 934.62 221.74 933.20 221.26 931.81 C 220.14 928.85 219.18 925.84 218.21 922.84 C 217.86 921.85 217.52 920.86 217.20 919.88 C 216.85 918.86 216.52 917.84 216.21 916.84 C 215.87 915.84 215.55 914.85 215.26 913.87 C 214.22 910.53 213.14 907.21 212.17 903.87 C 211.40 901.53 210.68 899.18 210.16 896.79 C 209.82 895.81 209.52 894.82 209.21 893.86 C 208.85 892.54 208.51 891.24 208.20 889.94 C 207.12 886.60 206.19 883.21 205.18 879.86 C 204.16 876.50 203.13 873.16 202.16 869.79 C 200.02 862.85 198.02 855.87 196.21 848.84 C 195.20 845.17 194.10 841.54 193.13 837.88 C 192.81 836.87 192.52 835.85 192.24 834.86 C 191.20 831.22 190.08 827.61 189.17 823.94 C 188.03 820.30 186.99 816.62 186.18 812.90 C 184.31 806.32 182.79 799.66 180.88 793.10 C 177.68 780.02 173.96 767.06 171.14 753.90 C 170.40 750.91 169.68 747.92 169.18 744.90 C 168.31 741.94 167.56 738.95 167.05 735.91 C 166.69 734.58 166.39 733.22 166.09 731.90 C 165.67 730.33 165.32 728.73 164.87 727.18 C 164.59 725.73 164.34 724.27 164.08 722.84 C 163.72 721.53 163.39 720.23 163.07 718.94 C 162.67 717.27 162.37 715.58 162.07 713.92 C 161.68 712.26 161.37 710.58 161.01 708.93 C 160.66 707.31 160.39 705.66 160.08 704.04 C 159.62 702.35 159.37 700.62 159.08 698.92 C 158.63 697.27 158.38 695.58 158.14 693.92 C 157.24 690.30 156.73 686.61 156.07 682.95 C 155.64 681.24 155.38 679.50 155.13 677.77 C 154.75 676.15 154.45 674.51 154.15 672.89 C 153.66 670.93 153.38 668.92 153.10 666.92 C 152.65 664.93 152.36 662.90 152.05 660.89 C 151.66 658.89 151.37 656.88 151.02 654.89 C 150.57 652.91 150.33 650.90 150.06 648.90 C 149.29 644.59 148.55 640.27 148.05 635.91 C 147.30 631.26 146.62 626.60 146.13 621.92 C 145.45 618.97 145.36 615.93 145.06 612.94 C 144.39 609.35 144.33 605.70 143.91 602.09 C 143.64 599.70 143.56 597.27 142.94 594.95 C 142.78 584.63 142.15 574.34 141.87 564.03 C 142.59 560.68 141.73 557.29 141.83 553.93 C 142.25 551.98 142.23 549.99 141.87 548.06 C 141.80 545.35 141.80 542.64 141.88 539.94 C 142.85 533.68 141.95 527.24 143.19 521.02 C 142.80 519.38 142.77 517.70 142.97 516.04 C 143.73 510.58 145.49 505.34 147.16 500.11 C 151.36 486.02 155.98 472.04 160.63 458.09 C 161.14 456.74 161.68 455.40 162.29 454.09 C 162.77 452.97 163.26 451.85 163.67 450.71 C 164.45 449.12 165.26 447.56 166.07 446.00 C 166.75 444.72 167.48 443.47 168.27 442.26 C 169.07 441.06 169.88 439.86 170.67 438.67 C 175.67 432.94 181.04 427.40 187.72 423.64 C 189.51 422.78 191.22 421.77 192.95 420.83 C 195.67 419.63 198.30 418.24 201.09 417.20 C 204.06 416.07 207.04 414.91 210.13 414.11 C 210.87 413.87 212.36 413.37 213.10 413.13 C 214.42 412.74 215.76 412.47 217.10 412.20 C 222.36 410.63 227.75 409.54 232.99 407.90 C 235.05 407.38 237.09 406.77 239.15 406.24 C 241.46 405.49 243.73 404.54 246.14 404.12 C 248.74 402.32 248.58 398.79 248.81 395.99 C 248.45 389.49 246.97 383.12 245.13 376.90 C 243.81 372.42 242.05 368.12 240.37 363.78 C 239.32 361.49 238.16 359.26 237.13 356.97 C 236.88 356.48 236.40 355.49 236.15 355.00 C 235.37 353.68 234.71 352.30 234.12 350.90 C 229.57 342.97 224.53 335.32 219.06 328.00 C 217.64 325.66 215.62 323.79 214.16 321.50 L 213.83 321.49 C 212.42 319.17 210.41 317.33 208.71 315.24 C 206.83 312.18 203.80 310.10 201.70 307.22 C 199.49 303.85 196.17 301.41 193.73 298.22 C 190.74 293.85 186.23 290.84 183.16 286.54 L 182.43 286.51 L 182.44 285.47 L 181.36 285.48 L 181.49 284.36 L 180.34 284.56 L 180.60 283.37 L 179.79 283.61 C 179.46 283.27 178.80 282.60 178.47 282.26 L 178.62 281.50 L 177.49 281.62 L 177.54 280.54 L 176.78 280.56 C 175.70 279.19 174.39 278.05 173.02 276.98 C 172.35 276.29 171.68 275.61 171.01 274.92 C 168.17 271.73 165.53 268.34 163.31 264.69 C 162.42 263.17 161.55 261.66 160.67 260.15 C 159.61 257.52 158.64 254.86 157.70 252.19 C 157.00 249.15 156.36 246.09 155.98 243.00 C 154.79 235.45 154.74 227.55 156.04 220.02 C 156.29 217.37 156.35 214.69 157.14 212.13 C 157.33 210.69 157.53 209.25 157.74 207.82 C 158.30 205.95 158.64 204.03 159.08 202.14 C 159.42 200.78 159.81 199.44 160.24 198.12 C 160.53 196.05 160.31 194.00 159.36 192.13 C 158.44 191.16 157.57 190.16 156.71 189.15 C 155.63 187.30 154.15 185.72 153.27 183.76 C 152.72 182.87 152.15 181.98 151.57 181.10 C 151.12 180.05 150.69 179.01 150.26 177.96 C 149.20 175.68 148.43 173.29 147.69 170.89 C 147.51 169.57 147.31 168.26 147.10 166.96 C 146.03 162.74 146.23 158.31 146.37 154.00 C 146.39 151.15 148.74 149.14 150.87 147.64 C 157.03 144.34 164.84 144.27 171.15 147.25 C 172.81 148.04 174.47 148.85 176.12 149.68 C 177.84 150.80 179.57 151.94 181.48 152.73 L 181.48 153.20 C 183.01 154.04 184.50 154.94 185.95 155.92 C 186.98 156.57 188.05 157.17 189.14 157.71 C 193.25 160.31 198.51 160.41 203.03 158.89 C 204.68 158.56 206.34 158.31 208.00 158.01 C 212.97 157.41 217.98 157.07 222.99 157.22 C 226.64 157.43 230.29 156.23 233.90 157.14 C 237.90 157.19 241.94 157.15 245.84 158.15 C 247.17 158.44 248.49 158.75 249.80 159.11 C 252.24 159.57 254.62 160.32 256.91 161.28 C 258.33 161.78 259.75 162.31 261.20 162.74 C 263.89 163.99 266.52 165.38 269.22 166.62 C 270.83 167.67 272.36 168.91 274.16 169.66 C 275.43 170.54 276.68 171.45 277.91 172.39 C 279.00 173.16 280.09 173.95 281.20 174.72 C 283.37 176.56 285.62 178.32 287.97 179.93 C 290.23 182.45 292.65 184.87 295.43 186.81 L 295.51 187.12 C 295.84 187.46 296.50 188.13 296.83 188.47 L 297.26 188.40 C 297.64 188.86 298.40 189.79 298.78 190.26 C 299.02 190.50 299.49 190.98 299.73 191.22 C 300.20 191.60 301.13 192.37 301.60 192.75 L 301.54 193.56 L 302.23 193.50 C 302.56 193.83 303.22 194.49 303.56 194.82 L 303.45 195.56 L 304.59 195.45 L 304.50 196.60 L 305.68 196.47 L 305.39 197.64 L 306.14 197.49 C 311.27 204.11 317.78 209.52 323.51 215.61 C 329.96 221.14 336.51 226.69 343.99 230.83 C 345.59 231.96 347.26 233.01 348.99 233.96 C 351.60 235.35 354.25 236.72 357.00 237.83 C 358.90 238.70 360.82 239.50 362.77 240.27 C 363.79 240.58 364.80 240.93 365.81 241.32 C 368.53 242.34 371.28 243.33 374.14 243.87 C 376.73 244.85 379.41 245.50 382.15 245.88 C 384.06 246.34 386.01 246.68 387.96 247.04 C 393.37 247.83 398.81 248.25 404.27 248.38 C 405.80 247.82 406.76 246.59 407.29 245.10 C 407.41 243.40 407.63 241.71 408.03 240.06 C 409.77 226.50 411.98 212.79 417.31 200.13 C 417.77 199.04 418.22 197.96 418.66 196.87 C 418.91 196.36 419.40 195.35 419.64 194.84 C 420.39 193.57 421.13 192.30 421.84 191.01 C 423.22 188.99 424.63 186.98 426.07 185.00 C 426.61 184.28 427.15 183.54 427.69 182.81 C 431.03 178.80 434.78 175.12 438.68 171.65 C 440.52 170.56 442.09 169.08 443.72 167.71 C 446.21 166.17 448.55 164.41 451.01 162.84 C 452.33 162.22 453.62 161.53 454.82 160.70 C 455.35 160.44 456.39 159.93 456.91 159.67 C 458.91 158.75 460.85 157.71 462.79 156.66 C 463.92 156.22 465.04 155.75 466.18 155.30 C 467.77 154.52 469.39 153.80 471.07 153.21 C 473.13 152.51 475.18 151.80 477.25 151.11 C 482.16 149.52 487.15 148.19 492.20 147.10 C 493.79 146.69 495.42 146.38 497.05 146.06 C 498.68 145.66 500.35 145.37 502.00 145.01 C 503.97 144.62 505.96 144.35 507.94 144.02 C 509.99 143.69 512.08 143.48 514.11 142.96 M 520.17 161.61 L 520.72 162.13 C 517.74 162.16 514.78 162.52 511.82 162.77 C 508.16 163.61 504.43 164.03 500.77 164.81 C 497.85 165.55 494.87 166.04 492.05 167.11 C 488.70 167.92 485.43 169.01 482.23 170.28 C 480.06 170.93 477.97 171.81 475.90 172.71 C 473.97 173.52 472.05 174.36 470.20 175.34 C 469.13 175.83 468.06 176.34 467.00 176.83 C 465.92 177.44 464.84 178.03 463.77 178.61 C 462.44 179.34 461.06 180.01 460.03 181.13 C 459.54 181.41 458.56 181.98 458.07 182.26 C 457.35 182.81 456.65 183.36 455.96 183.93 C 455.50 184.27 454.59 184.94 454.14 185.28 C 449.84 188.58 445.94 192.45 442.67 196.77 C 441.43 198.48 440.27 200.26 439.12 202.03 C 438.47 203.03 437.86 204.06 437.30 205.12 C 436.54 206.71 435.80 208.31 435.15 209.95 C 434.70 211.26 434.29 212.58 433.84 213.89 C 433.54 215.21 433.22 216.52 432.86 217.83 C 432.54 219.19 432.24 220.56 431.89 221.92 C 431.59 223.57 431.32 225.22 430.92 226.85 C 430.62 228.41 430.37 229.97 430.05 231.52 C 429.63 233.03 429.37 234.57 429.10 236.11 C 428.70 237.76 428.41 239.43 428.12 241.11 C 427.33 244.20 426.73 247.33 426.08 250.46 C 425.61 252.25 425.33 254.09 424.90 255.90 C 424.62 257.30 424.38 258.72 424.20 260.15 C 423.69 262.20 422.96 264.20 422.10 266.14 C 418.53 267.44 414.74 267.57 410.99 267.60 L 411.92 268.26 C 410.24 268.22 408.57 268.19 406.90 268.15 C 400.03 266.79 392.89 267.67 386.02 266.04 C 384.08 265.62 382.11 265.31 380.18 264.87 C 378.79 264.62 377.39 264.38 376.00 264.13 C 374.38 263.66 372.74 263.28 371.12 262.85 C 370.07 262.63 369.03 262.41 367.99 262.18 C 359.66 259.63 351.66 256.13 343.81 252.40 C 342.92 251.85 342.03 251.29 341.16 250.74 C 337.16 249.03 333.67 246.42 329.98 244.16 C 325.36 241.04 321.13 237.38 316.54 234.22 L 316.45 233.87 C 313.80 231.76 311.41 229.35 308.96 227.01 C 308.13 226.38 307.30 225.77 306.47 225.18 L 306.51 224.50 L 305.58 224.76 C 305.54 224.47 305.46 223.89 305.43 223.60 C 303.00 222.41 301.53 219.97 299.53 218.23 C 293.24 212.20 287.45 205.55 280.56 200.20 L 280.53 199.86 C 280.20 199.58 279.55 199.03 279.22 198.76 C 277.47 197.21 275.74 195.62 273.81 194.31 C 269.73 190.56 265.17 187.38 260.33 184.69 C 257.03 182.87 253.65 181.21 250.17 179.77 C 246.87 178.58 243.51 177.60 240.08 176.83 C 234.38 176.11 228.66 175.49 222.90 175.85 C 219.17 176.50 215.32 176.36 211.70 177.62 C 211.41 178.63 211.12 179.63 210.82 180.64 C 210.64 182.41 210.40 184.18 209.93 185.90 C 209.54 187.95 209.02 189.98 208.45 192.00 C 207.51 194.19 206.22 196.23 205.31 198.44 L 204.82 198.46 C 203.63 200.17 202.31 201.83 200.45 202.85 L 200.43 203.29 C 195.99 205.88 191.09 207.96 185.86 207.89 C 183.46 208.54 180.42 207.86 178.61 209.91 C 177.77 211.78 177.44 213.82 176.85 215.78 C 176.37 218.49 176.19 221.23 176.01 223.98 C 175.21 228.25 175.06 232.70 176.02 236.96 C 176.20 239.03 176.39 241.11 176.77 243.16 C 177.01 243.90 177.49 245.39 177.72 246.13 C 178.49 248.09 179.35 250.01 180.25 251.92 C 181.36 254.40 183.38 256.27 184.82 258.54 L 185.22 258.52 C 185.55 258.85 186.22 259.50 186.55 259.83 L 186.48 260.58 L 187.20 260.51 C 187.55 260.84 188.23 261.51 188.57 261.85 L 188.41 262.64 L 189.20 262.45 C 189.53 262.79 190.20 263.47 190.53 263.81 L 190.38 264.58 L 191.57 264.40 L 191.39 265.59 L 192.22 265.41 C 192.46 265.75 192.95 266.42 193.19 266.76 C 194.96 268.99 196.91 271.08 198.99 273.03 C 201.30 275.80 203.98 278.22 206.52 280.77 L 206.54 281.45 L 207.56 281.48 L 207.55 282.53 L 208.65 282.47 L 208.39 283.58 L 209.17 283.49 C 211.32 286.83 214.48 289.32 216.88 292.46 L 217.30 292.45 C 217.55 292.80 218.05 293.49 218.30 293.83 C 218.88 294.55 219.47 295.26 220.07 295.96 C 221.02 297.12 221.94 298.31 222.85 299.51 L 223.63 299.48 L 223.50 300.57 L 224.21 300.52 C 225.43 302.76 227.37 304.45 228.89 306.48 L 229.25 306.52 C 233.37 312.45 237.94 318.11 242.08 324.05 C 245.64 329.51 249.03 335.08 252.31 340.71 C 252.87 341.84 253.48 342.95 254.15 344.03 C 255.80 347.36 257.54 350.65 258.86 354.14 C 259.57 355.76 260.23 357.40 260.81 359.08 C 263.31 365.61 265.58 372.28 266.87 379.17 C 267.31 381.08 267.65 383.02 268.04 384.95 C 268.46 388.59 268.70 392.26 269.15 395.91 C 269.18 399.24 269.27 402.59 269.01 405.92 C 268.74 408.34 268.24 410.72 267.53 413.05 C 266.49 414.78 265.42 416.52 263.87 417.85 C 263.58 418.06 263.01 418.48 262.73 418.69 C 260.85 419.85 258.89 420.88 256.88 421.78 C 251.51 424.27 245.70 425.54 239.98 426.95 C 228.89 429.50 217.58 431.59 207.06 436.10 C 205.39 436.78 203.75 437.50 202.16 438.33 C 201.64 438.57 200.62 439.06 200.11 439.30 C 193.73 442.78 187.78 447.67 184.31 454.16 C 182.90 456.59 181.70 459.13 180.68 461.76 C 180.43 462.80 180.11 463.82 179.70 464.82 C 178.00 469.47 176.53 474.21 175.07 478.95 C 174.60 480.24 174.17 481.54 173.72 482.85 C 172.45 487.21 171.06 491.53 169.79 495.89 C 169.11 498.20 168.47 500.51 167.84 502.83 C 166.78 506.83 165.74 510.83 164.85 514.87 C 164.57 516.26 164.32 517.65 164.04 519.05 C 163.52 521.35 163.35 523.71 163.08 526.06 C 162.27 529.68 162.22 533.40 162.14 537.10 C 161.07 542.66 161.44 548.35 161.31 553.98 C 161.43 559.63 161.06 565.34 162.15 570.93 C 162.16 575.61 162.11 580.36 163.11 584.97 C 163.19 588.59 163.15 592.26 164.13 595.79 C 164.11 599.19 164.32 602.61 165.07 605.95 C 165.19 608.96 165.42 611.97 166.05 614.93 C 166.28 617.61 166.47 620.32 167.01 622.97 C 167.24 625.20 167.39 627.47 167.99 629.66 C 168.29 631.96 168.47 634.28 168.64 636.61 L 169.14 636.59 C 169.06 641.31 170.44 645.89 170.64 650.59 L 171.15 650.61 C 171.34 655.44 172.38 660.19 173.15 664.95 C 173.43 666.68 173.68 668.42 173.96 670.16 C 174.60 673.85 175.31 677.52 175.94 681.21 C 177.46 687.78 178.51 694.45 180.07 701.01 C 180.34 702.36 180.60 703.74 180.85 705.13 C 181.28 706.79 181.64 708.49 182.09 710.17 C 182.55 713.18 183.40 716.12 183.88 719.13 C 184.62 722.10 185.18 725.11 185.91 728.09 C 188.19 738.05 190.51 748.03 193.28 757.88 C 194.00 761.31 195.00 764.69 195.81 768.11 C 197.28 773.39 198.32 778.78 199.83 784.05 C 200.20 785.38 200.53 786.72 200.86 788.09 C 202.18 793.11 203.67 798.08 204.84 803.14 C 207.15 811.05 208.99 819.08 211.19 827.02 C 211.85 830.44 212.99 833.74 213.88 837.11 C 214.80 840.80 215.94 844.43 216.82 848.14 C 217.60 850.44 218.32 852.77 218.84 855.15 C 219.54 857.47 220.20 859.81 220.80 862.16 C 221.78 865.82 222.84 869.47 223.84 873.13 C 224.56 875.42 225.26 877.72 225.83 880.06 C 226.18 881.06 226.52 882.08 226.86 883.11 C 228.01 887.51 229.75 891.72 230.85 896.13 C 231.60 898.62 232.34 901.13 233.27 903.58 C 233.43 904.43 233.60 905.28 233.78 906.15 C 234.06 906.90 234.62 908.39 234.90 909.14 C 235.19 910.14 235.48 911.15 235.76 912.18 C 236.80 915.13 237.71 918.13 238.77 921.09 C 239.11 922.09 239.43 923.10 239.75 924.13 C 240.72 926.78 241.75 929.42 242.73 932.09 C 243.26 933.39 243.81 934.70 244.38 936.01 C 245.19 938.39 246.16 940.74 247.32 942.99 C 247.73 944.06 248.17 945.13 248.63 946.21 C 249.40 947.49 250.04 948.84 250.64 950.23 C 251.47 951.77 252.38 953.27 253.29 954.77 C 254.73 957.58 256.53 960.18 258.23 962.84 C 259.45 964.39 260.71 965.92 261.83 967.57 L 262.59 967.46 L 262.50 968.17 C 262.83 968.49 263.49 969.14 263.82 969.47 L 264.18 969.46 C 268.30 975.22 277.02 976.82 282.57 972.22 L 282.62 971.78 C 283.76 971.15 284.64 970.17 285.36 969.11 C 286.44 962.14 286.09 955.05 287.14 948.09 C 287.31 942.38 287.01 936.67 287.26 930.97 C 287.26 929.38 288.16 928.08 288.83 926.73 C 291.40 926.22 294.05 926.13 296.62 926.75 C 297.99 927.28 299.39 927.69 300.79 928.18 C 302.14 928.47 303.49 928.78 304.84 929.16 C 306.52 929.43 308.21 929.75 309.87 930.22 C 312.99 930.71 316.16 930.80 319.29 930.33 C 320.50 929.79 321.71 929.27 322.93 928.78 C 325.32 926.91 325.57 923.74 326.21 921.01 C 325.87 919.69 325.84 918.38 326.11 917.07 C 326.21 910.97 326.16 904.86 326.79 898.78 C 327.27 895.37 326.74 891.64 328.82 888.68 C 333.16 888.16 337.56 888.46 341.88 887.75 C 343.60 887.58 345.32 887.38 347.05 887.17 C 349.38 886.49 351.72 885.79 353.92 884.71 C 356.51 883.49 358.71 881.59 360.42 879.31 C 362.85 874.60 363.41 869.17 363.08 863.95 C 362.26 861.02 362.31 857.95 362.06 854.96 C 361.44 851.08 360.04 846.15 362.55 842.83 C 362.53 842.61 362.49 842.17 362.47 841.95 C 365.57 840.71 368.84 840.15 372.17 840.13 C 377.07 839.19 382.08 838.84 386.98 837.86 C 388.35 837.60 389.73 837.36 391.11 837.14 C 393.16 836.58 395.21 836.02 397.24 835.40 C 399.27 834.25 400.59 832.31 401.34 830.15 C 401.67 827.23 401.74 824.28 401.53 821.36 L 402.87 820.97 L 401.55 820.70 C 401.19 813.14 400.98 805.56 401.22 798.00 C 401.02 795.83 402.61 794.35 403.86 792.86 C 407.92 790.83 412.53 790.70 416.91 789.93 C 418.74 789.58 420.49 788.98 422.23 788.35 C 423.38 787.45 424.44 786.44 425.38 785.33 C 426.79 782.09 427.06 778.56 426.26 775.13 C 425.78 773.69 425.32 772.25 424.76 770.86 C 424.66 770.35 424.46 769.34 424.36 768.83 C 423.61 767.18 422.92 765.53 422.29 763.85 C 420.78 761.04 421.03 757.81 421.30 754.76 C 425.29 751.20 429.56 748.01 433.72 744.66 C 437.47 742.18 441.02 739.40 444.98 737.25 C 448.22 735.56 450.48 732.50 451.09 728.90 C 451.30 725.29 451.57 721.64 450.84 718.08 C 451.36 712.47 449.37 706.26 452.31 701.16 C 452.55 700.97 453.03 700.61 453.27 700.43 C 455.17 698.61 457.36 697.15 459.56 695.72 C 461.01 694.73 462.46 693.76 463.93 692.81 C 465.01 692.30 466.00 691.63 466.99 690.98 C 470.66 689.18 474.32 686.83 476.08 682.98 C 477.99 677.12 475.53 671.23 473.93 665.64 C 473.64 664.25 473.41 662.87 473.22 661.49 L 472.75 661.47 C 472.48 658.72 472.16 655.87 473.17 653.23 C 474.01 649.52 477.31 647.29 479.36 644.32 C 483.59 638.91 483.93 631.09 480.91 625.05 C 478.78 621.01 476.18 617.21 474.38 612.99 C 471.84 607.29 470.12 601.27 468.84 595.17 C 468.62 592.20 467.97 589.28 467.37 586.38 C 464.09 592.01 458.60 597.11 451.99 598.28 C 441.42 596.43 430.07 595.21 421.18 588.54 L 420.78 588.48 C 420.34 588.10 419.46 587.33 419.02 586.95 C 418.32 586.30 417.62 585.66 416.93 585.03 C 415.31 583.31 413.67 581.61 412.22 579.74 C 411.37 578.17 410.53 576.61 409.68 575.05 C 409.20 573.99 408.73 572.97 408.26 571.92 C 406.91 568.71 406.44 564.67 408.76 561.79 C 412.07 560.45 415.63 560.38 419.14 560.72 C 422.36 561.58 425.31 563.07 428.05 564.96 C 429.94 567.08 432.19 568.85 434.04 571.03 C 436.82 573.59 440.12 576.24 444.19 575.37 C 446.47 574.39 448.96 573.54 450.36 571.33 C 450.47 570.75 450.68 569.58 450.78 568.99 C 451.28 567.67 451.74 566.36 452.22 565.05 C 453.42 560.72 454.23 556.30 454.94 551.87 C 455.54 548.58 456.16 545.30 457.02 542.07 C 458.54 536.52 460.98 531.16 464.95 526.91 C 465.94 525.92 466.93 524.93 467.91 523.94 C 469.75 522.33 471.76 520.93 473.74 519.51 L 474.50 519.54 L 474.55 518.93 C 479.61 516.14 485.22 514.24 491.05 514.25 C 491.75 514.10 493.15 513.78 493.85 513.62 L 493.04 514.50 C 497.21 513.95 501.26 515.44 505.11 516.84 C 507.16 518.10 509.18 519.42 511.11 520.88 C 512.54 522.52 513.99 524.13 515.39 525.81 C 515.54 527.98 516.29 530.73 514.40 532.38 C 511.19 535.24 506.67 535.09 502.76 536.15 C 500.67 536.34 498.59 536.56 496.51 536.74 L 496.66 537.27 C 493.11 537.09 489.52 537.33 486.03 537.97 C 481.59 538.89 479.23 543.07 477.61 546.91 C 475.45 552.51 474.54 558.50 474.17 564.47 C 482.16 564.52 490.23 564.72 497.92 567.11 C 502.41 568.48 506.47 570.91 510.27 573.61 C 510.56 573.88 511.13 574.40 511.42 574.67 C 514.41 577.11 516.20 580.58 518.40 583.68 C 519.22 585.42 519.98 587.20 520.72 589.00 C 521.48 591.01 522.05 593.09 522.68 595.15 C 523.09 596.14 523.45 597.16 523.77 598.20 C 524.25 599.42 524.73 600.67 525.23 601.90 C 525.91 604.34 526.79 606.73 527.80 609.06 C 529.50 613.40 531.12 617.77 532.72 622.15 C 533.10 623.13 533.47 624.14 533.82 625.15 C 534.42 626.80 535.03 628.44 535.67 630.09 C 536.07 631.11 536.44 632.16 536.77 633.23 C 538.23 636.68 539.41 640.27 541.21 643.57 C 541.31 644.00 541.50 644.84 541.60 645.26 C 543.13 648.47 544.19 651.87 545.68 655.10 C 546.34 656.76 547.01 658.43 547.67 660.11 C 548.38 661.76 549.06 663.43 549.63 665.15 C 550.94 668.08 552.26 671.02 553.58 673.97 C 554.67 676.25 555.55 678.64 556.57 680.97 C 557.69 683.44 558.80 685.93 559.73 688.50 L 560.12 688.56 C 561.10 692.28 562.98 695.69 564.65 699.14 C 564.88 699.73 565.35 700.93 565.59 701.53 L 566.10 701.60 C 567.68 706.22 570.09 710.49 572.07 714.95 C 572.31 715.45 572.78 716.45 573.02 716.95 C 573.95 718.65 574.88 720.37 575.73 722.14 C 576.53 723.68 577.39 725.21 578.29 726.72 C 578.86 727.78 579.45 728.85 580.07 729.91 C 581.43 732.56 582.75 735.24 584.34 737.77 C 585.18 739.55 586.09 741.32 587.19 742.98 C 588.65 746.02 590.51 748.85 592.30 751.71 C 593.31 753.64 594.55 755.45 595.73 757.30 C 597.18 759.82 598.77 762.27 600.33 764.73 C 601.24 766.16 602.22 767.56 603.22 768.95 C 603.48 769.36 604.01 770.19 604.27 770.61 C 606.38 773.24 608.12 776.16 610.31 778.74 C 613.18 782.74 616.74 786.25 620.62 789.26 C 622.26 790.68 624.49 790.78 626.55 790.62 L 626.49 789.91 C 627.23 788.72 627.83 787.46 628.28 786.13 C 629.10 779.93 629.42 773.67 630.52 767.52 C 632.75 764.18 636.78 763.57 640.51 763.70 L 640.48 764.29 C 643.28 764.46 646.08 764.77 648.90 764.87 C 652.28 765.60 655.76 765.98 659.23 765.68 C 659.39 764.63 659.71 762.53 659.87 761.48 L 660.24 761.81 C 660.39 760.15 660.60 758.51 660.91 756.89 C 661.37 755.24 661.62 753.53 661.93 751.86 C 662.54 749.25 662.95 746.57 664.19 744.16 C 664.43 743.89 664.91 743.35 665.15 743.08 C 667.60 741.80 670.32 741.49 673.05 741.83 C 679.62 743.06 686.83 743.74 693.23 741.43 C 694.51 740.45 695.76 739.41 696.69 738.08 C 698.40 733.58 697.75 728.70 696.92 724.11 C 695.76 715.58 693.28 707.32 690.45 699.23 L 689.91 699.42 C 689.74 696.97 687.04 696.61 685.31 695.64 C 682.63 694.48 680.93 691.99 678.97 689.96 C 677.41 688.09 675.55 686.50 674.08 684.57 L 673.32 684.51 L 673.46 683.43 L 672.33 683.61 L 672.49 682.84 C 672.19 682.58 671.57 682.06 671.27 681.80 C 669.57 679.48 667.35 677.62 665.14 675.83 C 663.41 674.23 661.78 672.53 660.02 670.99 C 658.41 669.55 656.66 668.30 654.99 666.97 C 653.97 665.95 652.85 665.02 651.66 664.23 C 651.24 663.92 650.41 663.29 649.99 662.98 C 649.14 662.18 648.27 661.40 647.39 660.68 C 646.57 660.13 645.79 659.56 645.02 658.98 C 640.32 655.36 635.88 651.40 631.02 648.00 C 629.97 647.00 628.84 646.09 627.63 645.32 C 626.03 643.89 624.40 642.48 622.60 641.32 C 620.01 638.84 616.96 636.94 614.17 634.72 C 609.62 630.53 603.53 627.82 600.32 622.35 L 599.92 622.53 C 599.67 621.75 599.18 620.20 598.93 619.43 C 597.72 615.04 597.57 609.29 601.84 606.49 C 607.66 605.74 613.82 605.68 619.07 608.71 C 621.04 610.13 622.95 611.64 624.88 613.14 C 627.99 616.01 630.78 619.23 634.01 621.99 C 639.85 627.29 646.03 632.16 651.79 637.56 L 652.25 637.42 C 654.13 639.35 656.17 641.12 658.37 642.69 C 659.85 643.96 661.33 645.23 662.80 646.53 L 663.23 646.54 C 663.67 646.91 664.55 647.66 664.99 648.03 C 666.81 649.90 668.94 651.43 670.98 653.05 C 671.88 653.79 672.79 654.52 673.73 655.23 C 675.48 656.57 677.12 658.05 678.76 659.53 L 679.27 659.43 C 681.02 661.21 682.91 662.86 684.76 664.54 L 685.28 664.43 C 687.14 666.37 689.12 668.23 691.41 669.68 C 696.90 674.47 702.50 679.55 705.39 686.41 C 706.56 689.75 710.62 689.73 713.36 691.04 C 714.52 691.39 715.71 691.75 716.88 692.16 C 724.01 694.37 731.72 695.90 739.11 694.06 C 742.74 692.56 745.58 689.05 745.67 685.05 C 745.96 680.82 745.88 676.51 744.91 672.38 C 743.98 667.37 744.62 661.15 749.65 658.54 C 756.11 656.46 763.64 659.31 769.52 655.38 C 768.62 652.24 768.22 648.99 767.19 645.90 C 766.37 643.51 765.45 641.15 764.20 638.97 C 763.56 637.28 763.10 635.54 762.59 633.82 C 763.29 632.46 764.05 631.13 764.81 629.81 C 766.84 629.30 768.81 628.59 770.77 627.85 C 774.23 627.26 777.66 626.46 781.16 626.05 C 784.10 625.38 787.07 624.81 790.03 624.19 C 791.98 623.53 794.01 623.12 795.95 622.40 C 792.64 616.20 786.73 611.94 781.32 607.68 C 778.59 605.69 775.90 603.65 772.99 601.92 C 771.70 600.86 770.24 600.01 768.73 599.33 C 767.50 598.50 766.24 597.73 764.93 597.07 C 763.26 596.10 761.62 595.10 759.95 594.15 C 756.97 592.47 753.93 590.88 750.94 589.22 C 749.33 588.41 747.73 587.60 746.17 586.75 C 745.66 586.51 744.64 586.02 744.13 585.78 C 743.05 585.19 741.98 584.60 740.93 583.99 C 740.44 583.76 739.44 583.31 738.95 583.09 C 733.75 580.24 728.39 577.71 723.17 574.93 C 715.65 571.58 708.48 567.49 700.98 564.09 C 698.04 562.63 695.02 561.33 692.08 559.90 C 688.60 558.49 685.40 556.52 681.94 555.09 C 678.30 553.33 674.61 551.67 670.89 550.10 C 668.28 548.86 665.59 547.78 663.03 546.46 C 662.77 546.42 662.24 546.35 661.97 546.31 C 658.85 544.41 655.31 543.37 652.13 541.58 C 649.76 540.63 647.40 539.67 645.08 538.64 C 641.08 536.86 636.99 535.28 632.95 533.60 C 630.64 532.60 628.33 531.63 626.07 530.58 C 623.73 529.65 621.41 528.67 619.12 527.65 C 617.37 527.10 615.68 526.39 614.03 525.66 C 613.47 525.54 612.35 525.30 611.80 525.18 C 610.80 524.79 609.81 524.42 608.82 524.08 C 607.83 523.75 606.84 523.44 605.86 523.14 C 604.58 522.66 603.31 522.21 602.05 521.73 C 599.66 520.88 597.28 520.03 594.88 519.23 C 593.59 518.71 592.32 518.24 591.05 517.75 C 586.53 515.81 582.01 513.81 577.93 511.02 C 576.44 509.47 574.96 507.90 573.68 506.18 C 573.19 505.08 572.68 504.00 572.17 502.92 C 570.90 499.79 570.66 496.39 569.84 493.15 C 569.73 491.99 569.64 490.83 569.58 489.69 C 567.93 487.46 565.37 486.32 563.16 484.77 C 559.56 482.51 556.45 479.59 553.11 476.99 C 551.93 475.67 550.67 474.44 549.37 473.26 L 549.43 472.80 C 549.14 472.54 548.58 472.01 548.29 471.75 C 547.47 470.48 546.48 469.33 545.44 468.26 L 545.43 467.91 C 544.19 465.97 543.04 464.01 541.79 462.10 C 541.14 460.45 540.51 458.80 539.85 457.17 C 539.52 456.15 539.18 455.15 538.84 454.15 C 538.05 448.71 538.28 443.12 540.55 438.04 C 542.97 435.03 545.46 431.88 549.00 430.13 C 555.35 426.48 562.70 425.49 569.74 423.90 C 571.75 423.69 573.77 423.45 575.73 422.90 C 577.77 422.67 579.83 422.45 581.84 421.96 C 584.60 421.53 587.29 420.75 589.93 419.84 C 591.51 419.48 593.04 418.83 594.10 417.54 L 594.75 417.83 C 594.42 415.83 593.73 413.93 592.92 412.09 C 591.40 408.65 589.78 405.24 587.81 402.04 C 586.58 399.84 585.65 397.50 584.69 395.19 C 584.47 393.11 584.49 391.03 584.62 388.96 C 587.28 383.30 594.57 384.24 599.13 386.83 C 604.63 389.88 608.93 394.68 612.24 399.97 C 617.25 408.43 619.99 418.99 616.16 428.46 L 615.74 428.50 C 614.03 431.76 611.18 434.17 608.29 436.34 C 607.11 436.86 606.04 437.58 605.02 438.36 C 604.77 438.37 604.28 438.40 604.03 438.41 C 597.27 442.12 589.58 443.49 582.13 445.12 C 580.13 445.41 578.13 445.70 576.17 446.10 C 572.07 446.65 568.00 447.32 563.92 447.89 C 563.06 448.16 562.21 448.43 561.35 448.66 C 562.07 449.40 562.78 450.15 563.50 450.91 C 563.42 451.29 563.28 452.06 563.21 452.44 L 564.08 452.59 C 564.79 454.56 565.70 456.47 567.17 458.00 C 569.19 461.45 571.68 464.66 574.46 467.54 C 576.91 467.78 579.40 467.66 581.78 466.91 C 583.80 466.59 585.83 466.30 587.84 465.86 C 593.50 465.15 599.28 464.85 604.95 465.73 C 608.10 466.50 611.10 467.72 614.13 468.85 C 615.73 469.90 617.35 470.93 619.08 471.76 C 621.64 473.65 624.17 475.60 627.06 476.99 C 631.06 478.93 635.79 480.31 640.16 478.77 C 647.99 476.47 653.77 470.29 660.95 466.75 C 667.50 464.44 671.58 471.61 677.41 472.90 L 677.45 473.46 C 679.30 473.98 681.17 474.53 682.98 475.25 C 684.78 475.43 686.53 475.07 688.23 474.48 C 688.91 473.60 689.48 472.65 689.95 471.64 L 690.44 471.46 C 693.50 464.47 693.39 456.55 696.75 449.64 L 697.18 449.63 C 698.44 448.26 700.01 447.24 701.82 446.72 C 702.94 446.77 704.07 446.79 705.21 446.85 C 707.43 447.51 709.75 447.73 712.06 447.90 C 715.77 448.99 719.65 448.74 723.46 448.85 C 726.48 449.93 729.76 449.46 732.88 449.07 C 737.68 448.26 741.35 444.43 742.93 439.96 C 745.64 433.76 745.79 426.86 747.57 420.42 C 748.30 417.71 751.81 418.14 753.03 416.02 C 753.17 416.28 753.45 416.80 753.58 417.07 C 756.76 417.98 759.91 419.03 763.12 419.86 C 768.43 421.54 773.86 422.82 779.28 424.11 C 782.46 424.88 785.82 425.08 789.03 424.33 C 789.66 422.77 790.36 421.24 790.91 419.65 L 791.30 419.51 C 792.27 416.35 793.27 413.21 794.19 410.04 C 794.37 408.84 794.62 407.66 794.96 406.50 C 795.56 404.85 796.16 403.20 796.78 401.57 L 797.26 401.56 C 798.26 400.50 799.64 400.03 801.00 399.61 C 803.99 399.50 807.04 399.63 809.98 398.88 C 818.67 398.66 827.40 398.95 836.09 398.22 C 836.61 397.92 837.67 397.33 838.19 397.03 C 841.69 389.11 840.61 380.31 840.87 371.92 C 841.67 368.49 841.42 364.74 843.55 361.73 C 848.12 359.71 853.21 360.91 858.04 360.61 C 864.35 360.36 870.74 360.95 877.00 359.98 C 881.12 359.87 885.23 357.91 887.37 354.29 C 890.97 348.15 890.97 340.79 890.82 333.89 C 891.13 331.14 891.51 328.38 892.72 325.86 C 894.26 323.68 897.08 323.82 899.01 322.32 C 901.25 324.53 905.03 323.09 907.85 324.24 C 912.21 324.55 916.65 324.86 920.99 324.04 C 924.93 323.52 928.81 322.41 932.24 320.35 C 932.78 320.04 933.86 319.40 934.40 319.09 C 935.69 312.35 933.82 305.43 930.83 299.40 C 930.70 298.97 930.43 298.10 930.29 297.67 C 929.71 296.50 929.17 295.31 928.63 294.13 C 928.04 292.41 927.38 290.72 926.57 289.10 C 925.76 285.97 926.85 282.95 929.72 281.39 C 932.17 281.26 934.64 281.43 937.09 281.78 C 941.67 282.54 946.36 282.25 950.92 283.16 C 958.38 283.16 965.88 283.63 973.26 282.27 C 974.89 281.68 976.53 281.05 978.12 280.33 C 978.58 280.00 979.50 279.34 979.96 279.01 C 980.32 278.53 981.03 277.55 981.39 277.06 C 981.45 275.65 981.49 274.25 981.50 272.84 C 980.79 271.60 980.13 270.35 979.45 269.12 L 979.52 268.34 L 978.78 268.42 C 978.01 267.16 977.09 266.02 976.17 264.88 C 974.99 263.92 973.86 262.88 972.53 262.16 L 972.57 261.45 L 971.83 261.52 C 970.37 260.11 968.72 258.93 966.99 257.93 C 964.75 256.17 962.44 254.50 959.88 253.25 C 954.09 249.85 948.02 246.88 941.83 244.28 C 940.61 243.74 939.38 243.20 938.19 242.66 C 936.03 241.79 933.86 240.91 931.62 240.35 L 931.48 239.89 C 926.65 238.45 921.93 236.66 917.24 234.85 C 916.18 234.48 915.15 234.11 914.12 233.73 C 912.68 233.23 911.26 232.70 909.82 232.27 C 908.60 231.76 907.38 231.28 906.18 230.78 C 905.15 230.45 904.14 230.11 903.16 229.75 C 898.18 228.08 893.22 226.38 888.21 224.84 C 887.18 224.51 886.18 224.18 885.19 223.84 C 878.76 221.90 872.38 219.82 866.01 217.74 C 862.69 216.81 859.41 215.79 856.14 214.75 C 853.76 214.31 851.45 213.57 849.17 212.82 C 845.42 212.07 841.84 210.74 838.15 209.79 C 835.76 209.35 833.45 208.59 831.16 207.81 C 827.42 207.07 823.84 205.71 820.13 204.86 C 818.79 204.51 817.47 204.19 816.16 203.84 C 814.76 203.54 813.37 203.20 812.02 202.76 C 810.70 202.47 809.39 202.16 808.10 201.82 C 806.91 201.54 805.74 201.27 804.60 200.96 C 800.08 200.01 795.62 198.84 791.12 197.82 C 789.77 197.51 788.43 197.19 787.12 196.82 C 785.75 196.50 784.41 196.18 783.09 195.81 C 781.74 195.51 780.41 195.22 779.10 194.89 C 774.79 193.86 770.44 192.99 766.17 191.85 C 764.77 191.60 763.37 191.35 762.00 191.09 C 760.38 190.63 758.72 190.29 757.11 189.86 C 755.46 189.59 753.81 189.34 752.23 188.83 C 750.60 188.51 748.98 188.23 747.39 187.86 C 745.63 187.58 743.88 187.26 742.17 186.82 C 739.16 186.30 736.18 185.60 733.19 184.98 C 731.52 184.65 729.85 184.33 728.22 183.90 C 725.11 183.36 722.05 182.62 718.95 182.09 C 715.40 181.13 711.76 180.62 708.18 179.87 C 706.52 179.56 704.86 179.25 703.24 178.85 C 701.83 178.62 700.42 178.39 699.03 178.16 C 691.42 176.44 683.70 175.35 676.03 173.95 C 673.68 173.59 671.30 173.38 668.96 173.04 C 666.70 172.54 664.40 172.27 662.14 171.82 C 660.11 171.57 658.08 171.33 656.06 171.06 C 654.03 170.57 651.95 170.32 649.90 170.02 C 647.60 169.58 645.26 169.34 642.94 169.04 C 640.75 168.48 638.48 168.30 636.24 168.07 C 633.91 167.34 631.44 167.36 629.07 166.87 C 626.76 166.51 624.45 166.28 622.14 166.05 C 619.83 165.44 617.43 165.33 615.08 165.02 C 612.41 164.43 609.66 164.37 606.96 164.05 C 604.02 163.41 600.98 163.55 598.05 162.91 C 587.57 162.07 577.11 160.76 566.57 161.22 L 566.59 160.63 C 562.73 160.34 558.83 160.49 555.01 159.82 C 543.40 160.34 531.75 160.69 520.17 161.61 Z" />
<path fill="#ffffff" stroke="#ffffff" stroke-width="0.09375" opacity="1.00" d=" M 519.06 172.20 C 523.64 170.66 528.87 170.64 533.32 172.62 C 536.32 174.12 538.53 176.61 540.29 179.41 C 540.57 180.59 540.88 181.78 541.21 182.95 C 541.39 184.67 541.39 186.40 541.09 188.11 C 540.79 189.18 540.56 190.27 540.34 191.36 C 539.53 192.55 538.77 193.77 538.03 195.00 C 535.60 197.83 532.64 200.13 529.06 201.29 C 527.72 201.54 526.39 201.83 525.08 202.14 C 524.28 202.16 522.68 202.20 521.88 202.22 C 519.77 201.76 517.72 201.17 515.71 200.43 C 514.38 199.63 513.13 198.70 512.04 197.60 L 511.36 197.53 L 511.47 196.45 L 510.74 196.54 C 509.43 194.15 508.46 191.63 507.80 188.99 C 507.91 186.62 508.45 184.31 509.03 182.02 C 510.37 179.39 511.85 176.60 514.53 175.12 L 514.34 174.35 L 515.11 174.56 C 516.34 173.63 517.65 172.82 519.06 172.20 Z" />
<path fill="#ffffff" stroke="#ffffff" stroke-width="0.09375" opacity="1.00" d=" M 651.39 179.59 C 655.71 176.62 659.92 180.30 662.12 183.97 C 662.42 185.17 662.75 186.38 663.10 187.58 C 664.34 193.95 664.04 200.62 663.31 207.05 C 662.52 209.34 661.79 211.65 660.82 213.87 C 659.94 215.59 659.08 217.31 658.16 219.00 C 655.54 222.44 652.59 225.61 649.29 228.40 C 647.17 229.69 644.98 230.87 642.99 232.36 C 642.75 232.36 642.27 232.37 642.03 232.37 C 640.41 233.37 638.67 234.09 636.89 234.70 C 635.20 235.39 633.54 236.07 631.82 236.65 C 629.09 237.91 626.31 239.07 623.74 240.65 C 622.00 241.90 620.44 243.40 619.24 245.18 C 616.70 249.34 616.47 254.33 614.91 258.85 C 614.50 259.87 614.09 260.88 613.67 261.89 C 612.78 263.25 611.96 264.64 611.16 266.05 C 608.77 269.32 605.72 271.99 602.90 274.87 C 602.60 275.06 601.98 275.45 601.67 275.64 C 600.74 276.40 599.85 277.19 598.98 278.00 C 594.42 281.18 589.93 284.48 585.03 287.16 C 583.08 288.08 581.32 289.33 579.88 290.95 C 579.57 292.62 579.30 294.29 578.98 295.96 C 578.66 297.99 578.36 300.03 578.08 302.08 C 576.97 307.10 575.86 312.13 574.32 317.05 C 573.50 319.33 572.67 321.61 571.75 323.86 C 571.04 325.68 570.25 327.47 569.40 329.24 C 566.93 333.71 563.43 337.40 560.33 341.39 C 558.13 343.59 556.00 345.87 554.16 348.38 C 552.06 353.61 553.76 359.55 553.17 365.06 C 552.04 369.31 552.25 373.73 552.17 378.08 C 551.54 379.97 551.34 381.97 551.16 383.95 C 550.42 386.62 549.68 389.31 548.78 391.94 C 548.08 393.63 547.38 395.31 546.62 396.98 C 546.37 397.49 545.87 398.50 545.62 399.01 C 545.12 400.02 544.60 401.03 544.06 402.02 C 542.41 404.74 540.56 407.31 538.72 409.88 C 537.21 411.65 535.55 413.28 534.00 415.00 C 533.36 415.68 532.73 416.37 532.10 417.06 C 528.51 420.54 524.85 423.93 520.71 426.74 C 519.69 427.40 518.69 428.09 517.68 428.75 C 516.05 429.73 514.42 430.73 512.77 431.68 C 511.58 432.58 510.49 433.59 509.54 434.74 C 508.23 440.55 508.43 446.57 508.23 452.49 L 507.73 452.50 C 507.64 456.39 506.85 460.21 505.89 463.96 C 505.66 465.00 505.44 466.05 505.24 467.11 C 503.88 470.08 503.20 473.43 501.22 476.09 C 501.33 476.31 501.54 476.76 501.64 476.99 C 500.22 477.50 499.63 478.82 499.23 480.17 C 498.09 481.72 496.87 483.23 495.73 484.78 C 495.44 485.05 494.86 485.58 494.57 485.84 L 494.67 486.29 C 491.78 489.02 488.45 491.20 485.23 493.50 L 484.41 493.33 L 484.40 494.46 C 484.07 494.44 483.39 494.41 483.05 494.40 C 476.31 498.10 468.58 499.52 461.03 500.48 C 457.33 500.90 452.10 500.45 450.70 504.85 C 450.22 505.92 449.70 506.99 449.19 508.07 C 448.95 508.56 448.46 509.56 448.22 510.06 C 447.15 512.06 446.08 514.05 445.04 516.07 C 444.79 516.56 444.30 517.55 444.05 518.04 C 441.54 522.15 438.94 526.19 435.98 529.99 C 434.88 531.34 433.75 532.66 432.59 533.95 L 432.63 534.25 C 431.43 535.30 430.30 536.42 429.25 537.62 L 428.80 537.45 C 427.34 538.84 425.76 540.10 424.09 541.23 C 422.58 542.14 421.06 543.04 419.40 543.65 L 419.45 544.13 C 418.31 544.40 417.20 544.71 416.10 545.08 C 412.89 546.39 409.42 546.47 406.07 547.17 C 395.38 547.20 384.68 547.28 373.98 547.12 C 371.41 545.95 368.84 547.05 367.87 549.65 C 366.46 554.17 363.34 557.88 361.20 562.06 C 360.11 563.67 358.91 565.21 357.77 566.79 C 356.54 568.21 355.26 569.60 354.03 571.03 C 352.06 572.77 350.10 574.53 348.02 576.14 C 345.12 577.93 342.17 579.68 338.93 580.79 C 332.80 582.85 326.21 583.18 319.85 582.12 C 318.28 581.77 316.68 581.51 315.10 581.25 C 312.77 580.45 310.42 579.72 308.19 578.70 C 306.47 578.36 304.73 578.28 303.00 578.51 C 301.44 580.52 299.48 582.23 298.26 584.49 L 297.90 584.56 C 296.35 586.56 294.50 588.33 293.22 590.53 L 292.88 590.59 C 291.40 592.50 289.64 594.19 288.31 596.22 C 288.07 596.50 287.59 597.05 287.35 597.32 C 285.92 598.86 284.50 600.42 282.86 601.75 C 281.65 602.24 280.45 602.73 279.25 603.23 C 277.47 603.24 275.68 603.22 273.91 603.17 C 271.97 602.67 269.98 602.39 268.04 601.95 C 262.63 600.98 257.07 600.91 251.62 601.53 C 249.64 603.22 247.79 605.08 246.37 607.27 C 246.10 607.54 245.57 608.09 245.31 608.36 C 239.89 614.01 234.57 619.84 228.56 624.87 L 228.52 625.20 C 226.61 626.38 224.90 627.84 223.24 629.35 C 219.64 631.81 216.06 634.31 212.21 636.37 C 211.10 636.78 210.01 637.22 208.91 637.64 C 207.67 638.15 206.43 638.67 205.21 639.21 C 200.19 640.07 194.99 640.24 189.97 639.36 C 186.30 637.93 182.75 635.86 180.16 632.85 C 177.45 629.76 175.91 625.91 174.68 622.06 C 174.47 619.90 174.77 617.78 175.78 615.86 C 176.52 615.40 177.25 614.94 177.97 614.46 C 183.22 614.12 187.84 617.23 192.88 618.22 C 199.06 619.16 205.33 618.80 211.56 618.78 C 214.82 618.88 216.90 616.10 219.16 614.21 C 219.48 613.94 220.13 613.41 220.45 613.14 L 220.43 612.78 C 222.47 610.97 224.21 608.86 225.75 606.62 C 227.32 604.21 228.85 601.78 230.34 599.33 C 231.21 597.57 232.14 595.84 233.15 594.17 C 234.66 590.40 236.66 586.85 238.33 583.15 C 238.82 582.08 239.32 581.01 239.80 579.95 C 240.32 579.04 240.83 578.15 241.35 577.25 C 241.49 576.97 241.77 576.39 241.92 576.10 C 244.44 574.92 247.39 574.83 249.89 576.14 C 250.93 576.71 251.99 577.28 253.05 577.85 C 255.33 579.25 257.70 580.50 260.14 581.61 C 262.05 582.82 263.99 583.98 266.04 584.95 C 266.98 585.45 267.92 585.97 268.85 586.51 C 269.98 586.11 271.10 585.70 272.23 585.33 C 275.23 583.37 278.32 581.37 280.34 578.34 C 282.43 575.36 284.52 572.37 285.94 569.00 C 287.58 565.68 289.33 562.41 291.26 559.25 C 291.55 558.97 292.14 558.41 292.44 558.13 L 292.41 557.63 C 295.43 555.40 299.57 554.36 303.01 556.33 C 309.04 559.53 315.03 563.69 322.10 563.92 C 323.74 564.23 325.41 564.27 327.09 564.18 C 328.71 563.71 330.37 563.38 332.03 563.00 C 334.05 562.05 336.04 561.03 337.96 559.87 C 341.77 556.43 345.85 553.06 348.68 548.74 C 352.04 544.37 355.15 539.77 357.83 534.95 C 358.76 533.52 359.69 532.08 360.59 530.62 C 361.62 529.57 362.71 528.58 363.84 527.63 C 367.56 526.87 371.35 527.34 375.07 527.89 C 386.23 529.95 398.01 531.08 409.12 528.22 C 415.66 526.27 421.32 521.82 424.83 515.98 C 426.41 513.31 427.98 510.60 428.90 507.62 L 429.44 507.54 C 430.30 505.05 431.28 502.61 432.26 500.17 C 432.54 499.14 432.85 498.12 433.18 497.12 C 433.79 494.81 434.41 492.50 435.20 490.24 C 435.70 488.10 436.29 485.98 436.74 483.82 C 437.58 482.58 438.63 481.51 439.79 480.56 C 441.42 480.28 443.62 480.88 444.30 478.83 C 444.30 479.20 444.29 479.95 444.29 480.32 C 450.21 480.36 456.11 480.98 462.05 480.84 C 463.87 481.26 465.74 481.25 467.61 481.34 L 467.44 480.76 C 469.59 480.62 471.99 481.30 473.99 480.20 C 475.67 478.79 476.91 476.96 478.26 475.26 C 479.09 474.06 479.89 472.85 480.69 471.63 C 481.58 470.49 482.33 469.24 482.93 467.92 C 483.40 466.99 483.89 466.07 484.40 465.16 C 484.94 463.45 485.56 461.76 486.21 460.10 C 486.50 459.07 486.81 458.05 487.14 457.04 C 489.33 450.20 488.45 443.02 489.12 436.00 C 489.38 433.62 489.63 431.23 489.79 428.84 C 490.38 425.27 493.04 422.64 495.96 420.75 C 497.65 419.75 499.27 418.65 500.83 417.45 L 501.63 417.69 L 501.58 416.93 C 503.76 416.16 505.72 414.89 507.69 413.69 C 512.14 411.30 516.10 408.13 520.03 405.00 C 524.55 401.10 528.16 396.20 530.98 390.96 C 533.83 385.36 534.02 379.06 533.84 372.93 C 534.99 365.69 534.26 358.30 534.47 351.01 C 534.68 346.67 533.54 341.76 536.45 338.07 L 536.31 337.72 C 538.50 335.75 540.94 334.08 543.00 331.98 C 547.20 327.83 551.83 324.19 556.08 320.10 C 559.24 317.45 559.89 312.82 558.86 309.02 C 558.73 299.64 558.87 290.27 558.79 280.90 C 559.15 279.91 559.52 278.91 559.89 277.93 C 560.57 277.24 561.24 276.55 561.91 275.85 C 565.26 274.81 568.69 274.05 571.98 272.84 C 572.49 272.70 573.50 272.43 574.01 272.30 C 575.99 271.54 577.95 270.76 579.86 269.82 C 580.97 269.32 582.07 268.81 583.19 268.30 C 585.14 267.20 587.03 266.01 588.95 264.86 C 591.69 262.64 594.44 260.25 596.01 257.02 C 596.43 255.36 596.75 253.68 597.14 252.02 C 597.40 249.97 597.65 247.92 597.87 245.86 C 598.27 243.95 598.58 242.02 599.16 240.15 C 599.35 239.08 599.55 238.01 599.76 236.95 C 600.44 235.30 601.10 233.64 601.72 231.98 C 602.88 230.27 603.98 228.52 605.42 227.04 L 605.46 226.34 L 606.55 226.50 L 606.47 225.77 C 607.42 225.32 608.26 224.70 608.98 223.92 C 610.58 223.18 612.20 222.49 613.79 221.72 C 617.39 221.00 621.08 221.26 624.72 220.80 C 626.18 220.64 627.63 220.44 629.10 220.25 C 631.60 219.54 634.03 218.57 636.34 217.36 L 636.38 216.77 C 639.67 214.93 641.41 211.34 643.27 208.21 C 643.82 206.80 644.37 205.38 644.88 203.95 C 645.29 202.66 645.70 201.36 646.14 200.08 C 646.44 198.75 646.77 197.43 647.15 196.12 C 647.36 194.75 647.56 193.38 647.80 192.02 C 649.26 188.16 648.79 183.53 651.47 180.18 L 651.39 179.59 Z" />
<path fill="#ffffff" stroke="#ffffff" stroke-width="0.09375" opacity="1.00" d=" M 218.90 195.64 C 226.70 192.42 235.61 192.51 243.75 194.18 C 245.21 194.64 246.66 195.13 248.11 195.61 C 251.70 197.24 255.10 199.25 258.22 201.66 C 260.35 203.56 262.33 205.62 264.31 207.68 C 264.56 207.96 265.07 208.53 265.32 208.81 C 265.96 209.84 266.63 210.86 267.31 211.87 C 268.38 213.86 269.42 215.88 270.43 217.91 C 273.49 226.12 273.65 235.34 271.83 243.82 C 271.24 245.87 270.56 247.90 269.72 249.87 C 269.21 250.91 268.69 251.95 268.17 253.00 C 267.22 254.40 266.29 255.82 265.38 257.25 C 265.11 257.52 264.58 258.06 264.31 258.32 C 262.73 260.10 261.02 261.75 259.25 263.34 C 256.62 265.11 254.07 267.01 251.19 268.36 C 248.56 269.45 245.91 270.55 243.07 270.96 C 238.12 272.17 232.93 271.97 227.94 271.17 C 226.33 270.72 224.71 270.31 223.12 269.83 C 221.43 269.23 219.76 268.56 218.17 267.74 C 217.10 267.21 216.04 266.69 214.97 266.19 C 213.23 264.92 211.52 263.60 209.78 262.34 C 209.50 262.08 208.94 261.55 208.66 261.29 C 207.44 260.18 206.29 259.02 205.20 257.80 C 203.51 255.73 201.97 253.54 200.64 251.23 C 199.99 249.82 199.31 248.45 198.60 247.08 C 197.37 243.47 196.14 239.86 195.95 236.01 C 195.21 233.00 195.22 229.88 195.77 226.84 C 196.22 224.91 196.52 222.96 196.73 221.00 C 197.23 219.70 197.70 218.40 198.19 217.11 C 199.01 214.54 200.46 212.26 201.69 209.88 C 202.74 208.58 203.76 207.26 204.71 205.89 C 204.98 205.54 205.52 204.82 205.79 204.47 L 206.52 204.49 L 206.50 203.44 L 207.16 203.49 C 208.54 202.11 210.07 200.90 211.64 199.75 C 212.73 199.07 213.81 198.37 214.89 197.67 C 216.33 197.23 217.62 196.43 218.90 195.64 Z" />
<path fill="#ffffff" stroke="#ffffff" stroke-width="0.09375" opacity="1.00" d=" M 696.08 225.41 C 698.18 222.72 701.82 222.14 705.04 222.13 C 713.74 222.13 722.55 221.72 731.09 223.74 C 732.32 224.22 733.55 224.67 734.81 225.14 C 737.43 225.96 739.71 227.53 742.01 228.99 C 743.30 230.41 744.67 231.76 746.16 232.98 C 748.09 235.53 748.27 238.99 746.91 241.86 C 745.37 243.05 743.81 244.26 741.93 244.85 C 734.01 248.18 725.20 248.61 716.80 247.19 C 715.59 246.72 714.38 246.27 713.17 245.85 C 711.29 245.18 709.53 244.23 707.75 243.36 C 703.90 240.94 700.18 238.25 697.12 234.88 C 696.14 233.63 695.21 232.35 694.34 231.04 C 694.42 229.10 694.73 227.19 695.52 225.40 L 696.08 225.41 Z" />
<path fill="#ffffff" stroke="#ffffff" stroke-width="0.09375" opacity="1.00" d=" M 472.06 238.01 C 477.77 235.63 484.65 236.66 489.34 240.72 C 489.66 240.97 490.30 241.46 490.62 241.70 L 490.45 242.15 C 491.12 242.98 491.79 243.82 492.46 244.65 C 494.65 250.14 494.87 257.20 491.03 262.04 C 489.43 263.55 487.80 265.04 486.07 266.41 C 485.80 266.41 485.26 266.43 484.99 266.43 C 481.08 268.48 475.66 268.55 471.82 266.32 L 470.99 266.48 C 468.34 264.36 465.63 262.13 464.18 258.98 C 462.42 253.77 462.47 247.51 465.82 242.93 C 467.62 240.97 469.57 239.07 472.06 238.01 Z" />
<path fill="#ffffff" stroke="#ffffff" stroke-width="0.09375" opacity="1.00" d=" M 674.29 247.46 C 677.88 246.95 681.53 246.94 685.09 247.73 C 686.34 248.25 687.61 248.74 688.89 249.24 C 690.68 249.80 692.40 250.56 693.96 251.62 C 694.23 251.63 694.76 251.64 695.03 251.65 C 701.63 255.61 708.14 260.01 712.79 266.29 C 713.49 267.53 714.18 268.78 714.85 270.04 C 715.37 271.66 715.80 273.31 716.30 274.94 C 716.76 279.04 716.60 283.57 714.31 287.13 C 714.39 287.46 714.55 288.13 714.63 288.46 C 714.33 288.36 713.74 288.15 713.44 288.05 C 713.47 288.35 713.52 288.95 713.55 289.24 C 712.86 290.02 712.24 290.84 711.69 291.72 C 710.69 293.36 709.26 294.67 707.70 295.76 C 706.46 296.55 705.26 297.37 704.08 298.23 C 703.03 298.72 701.98 299.23 700.95 299.73 C 699.66 300.23 698.36 300.70 697.09 301.20 C 692.24 302.42 687.33 303.62 682.31 303.71 L 682.64 304.21 C 678.76 304.21 674.86 304.36 671.05 305.14 C 666.94 305.21 662.83 305.77 658.90 307.00 C 657.12 310.44 659.71 313.71 661.68 316.34 C 663.50 318.82 665.88 320.80 667.70 323.28 C 670.25 326.46 672.97 329.51 675.24 332.93 C 676.07 334.65 676.93 336.36 677.85 338.06 C 678.99 340.66 678.93 343.53 678.63 346.30 C 677.08 348.00 675.47 349.68 673.46 350.82 L 673.46 351.31 C 669.58 352.01 665.47 352.15 661.89 350.28 C 660.12 348.97 658.42 347.56 656.59 346.35 C 646.02 337.31 637.54 325.57 633.80 312.07 C 633.48 310.68 633.18 309.31 632.78 307.96 C 632.26 304.63 632.00 301.21 632.77 297.90 C 633.21 296.78 633.57 295.64 633.86 294.48 L 634.35 294.63 C 638.00 288.12 646.04 286.43 652.74 284.88 C 654.85 284.64 656.98 284.40 659.06 283.88 C 664.06 283.38 669.08 282.84 674.02 281.94 C 677.05 281.63 680.03 280.99 682.91 279.97 C 684.98 279.18 686.97 278.20 688.91 277.11 C 687.15 276.24 686.29 274.36 685.03 272.96 C 683.73 271.58 682.33 270.27 681.31 268.68 C 678.97 265.88 676.59 263.12 674.65 260.03 C 674.63 259.76 674.58 259.23 674.56 258.96 C 673.86 257.88 673.41 256.72 673.21 255.46 L 672.65 255.43 C 672.61 253.44 672.60 251.46 672.61 249.48 L 673.65 249.59 L 673.34 248.35 L 674.59 248.56 L 674.29 247.46 Z" />
<path fill="#ffffff" stroke="#ffffff" stroke-width="0.09375" opacity="1.00" d=" M 310.95 256.77 C 314.91 254.15 319.55 255.65 323.28 257.86 L 323.38 258.32 C 327.50 260.07 331.10 262.80 335.17 264.66 C 337.16 265.67 339.08 266.80 341.03 267.88 C 344.02 269.57 347.08 271.14 350.01 272.95 C 351.06 273.58 352.13 274.18 353.26 274.69 C 355.81 276.16 358.38 277.61 361.04 278.90 C 363.34 280.27 365.74 281.48 368.04 282.87 C 372.13 285.39 378.25 287.32 378.71 292.93 C 379.95 299.56 371.92 305.05 366.09 301.78 C 364.42 300.80 362.71 299.91 360.97 299.07 C 354.93 295.81 349.10 292.17 342.98 289.08 C 340.06 287.30 337.07 285.67 334.02 284.16 C 332.99 283.44 331.90 282.82 330.76 282.32 C 329.48 281.59 328.22 280.84 326.96 280.11 C 323.20 278.12 319.66 275.70 315.70 274.10 L 315.60 273.70 C 312.99 272.68 310.74 271.00 308.71 269.10 C 306.92 265.90 306.90 262.05 308.93 258.95 C 309.61 258.23 310.28 257.50 310.95 256.77 Z" />
<path fill="#ffffff" stroke="#ffffff" stroke-width="0.09375" opacity="1.00" d=" M 287.07 288.16 C 290.21 286.30 293.91 287.88 296.90 289.25 C 300.70 290.91 304.15 293.19 307.70 295.31 C 310.14 297.20 312.72 298.92 315.27 300.68 C 316.43 301.64 317.61 302.59 318.79 303.56 L 319.63 303.44 L 319.61 304.62 C 319.94 304.65 320.60 304.72 320.93 304.75 C 330.53 313.53 341.32 321.50 348.37 332.66 C 350.04 334.85 349.79 337.67 349.36 340.22 C 346.90 342.02 343.76 342.05 341.05 340.78 C 338.25 339.83 335.76 338.21 333.06 337.03 C 328.92 334.54 324.97 331.78 321.06 328.97 C 316.91 325.78 312.84 322.50 308.72 319.30 C 301.93 313.05 295.06 306.82 289.22 299.66 C 286.88 296.46 283.50 291.75 287.07 288.16 Z" />
<path fill="#ffffff" stroke="#ffffff" stroke-width="0.09375" opacity="1.00" d=" M 261.88 304.52 C 267.82 303.17 273.67 306.72 276.30 311.98 C 276.84 313.67 277.45 315.34 278.06 317.02 C 278.59 318.73 279.19 320.41 279.78 322.10 C 280.54 324.07 281.27 326.05 282.15 327.97 C 283.84 332.42 285.75 336.77 287.60 341.16 C 288.18 342.39 288.77 343.63 289.37 344.87 C 290.07 346.66 290.85 348.41 291.63 350.17 C 292.87 353.18 294.25 356.14 295.57 359.12 C 296.67 361.42 297.59 363.79 298.56 366.15 C 299.39 367.81 300.20 369.50 301.03 371.16 C 302.15 374.86 302.53 379.18 300.48 382.63 L 299.57 382.55 L 299.57 383.54 C 296.74 383.90 293.83 384.07 291.11 383.01 C 290.05 381.91 289.05 380.77 288.11 379.58 L 287.67 379.54 C 285.71 375.22 283.47 371.04 281.38 366.78 C 280.52 364.89 279.61 363.02 278.63 361.19 C 275.35 354.14 272.30 346.99 269.29 339.82 C 267.89 336.87 266.70 333.83 265.38 330.85 C 264.24 328.23 263.13 325.60 262.19 322.90 C 261.49 321.25 260.79 319.60 260.23 317.90 C 259.74 316.59 259.27 315.28 258.73 314.01 C 258.13 311.24 258.03 308.20 259.88 305.86 C 260.38 305.53 261.38 304.85 261.88 304.52 Z" />
<path fill="#ffffff" stroke="#ffffff" stroke-width="0.09375" opacity="1.00" d=" M 448.88 312.68 C 451.49 311.56 454.31 311.53 457.09 311.82 C 460.10 312.62 463.28 312.99 466.03 314.55 C 466.27 314.52 466.74 314.46 466.98 314.43 C 468.57 315.68 470.06 317.10 470.77 319.05 C 471.27 320.66 471.75 322.28 472.26 323.89 C 472.38 326.47 472.47 329.03 472.57 331.61 L 471.87 329.13 C 471.94 331.43 471.79 333.74 471.24 335.98 C 470.38 336.64 469.65 337.41 469.03 338.29 C 468.78 338.34 468.27 338.42 468.02 338.46 C 466.48 339.32 464.78 339.71 463.11 340.18 C 457.64 341.50 451.91 340.58 446.93 338.08 C 446.07 337.14 445.18 336.23 444.31 335.32 L 443.84 335.38 C 438.53 327.85 443.06 318.38 448.88 312.68 Z" />
<path fill="#ffffff" stroke="#ffffff" stroke-width="0.09375" opacity="1.00" d=" M 740.82 338.59 C 748.33 335.41 756.66 338.43 764.02 340.67 C 767.03 341.81 769.99 343.06 772.92 344.40 C 774.60 345.29 776.32 346.11 778.07 346.91 C 779.10 347.53 780.17 348.13 781.27 348.68 C 785.29 350.89 788.70 353.93 792.33 356.69 C 792.58 356.93 793.08 357.43 793.34 357.67 C 796.09 360.87 798.68 364.60 797.53 369.08 C 796.15 370.85 794.39 372.55 791.99 372.56 L 791.25 372.71 C 791.31 372.92 791.42 373.35 791.48 373.56 C 788.66 372.94 785.77 373.23 782.92 373.21 C 780.26 372.44 777.60 371.75 774.90 371.18 C 773.88 370.82 772.86 370.48 771.84 370.15 C 770.59 369.68 769.33 369.21 768.11 368.74 C 765.34 367.65 762.59 366.54 759.91 365.26 C 755.11 362.79 750.43 360.05 746.15 356.75 C 743.29 354.59 740.86 351.93 738.63 349.14 C 737.00 346.26 736.71 342.65 738.88 339.95 C 739.37 339.61 740.34 338.93 740.82 338.59 Z" />
<path fill="#ffffff" stroke="#ffffff" stroke-width="0.09375" opacity="1.00" d=" M 604.80 344.92 C 607.17 342.25 610.71 341.51 614.15 341.74 C 622.82 344.27 631.51 347.77 637.94 354.35 L 638.56 354.41 L 638.65 355.03 C 640.66 357.19 642.24 359.71 644.23 361.90 C 644.66 362.82 645.10 363.74 645.54 364.67 L 646.08 364.55 C 647.80 369.40 650.90 374.30 649.49 379.65 C 649.02 381.81 646.72 382.40 644.99 383.25 C 643.62 383.21 642.27 383.20 640.92 383.19 C 639.64 382.66 638.36 382.19 637.09 381.71 C 635.33 380.96 633.64 380.11 631.97 379.21 C 629.57 377.91 627.28 376.42 624.94 375.03 C 623.40 373.89 621.83 372.83 620.24 371.80 C 619.27 371.08 618.28 370.39 617.29 369.73 C 614.64 367.67 611.85 365.79 609.18 363.77 C 607.31 362.20 605.53 360.55 603.56 359.13 L 603.78 358.32 L 602.94 358.49 C 602.62 357.63 601.97 355.89 601.64 355.03 C 601.63 352.47 602.28 350.00 602.81 347.53 L 603.42 347.65 C 603.88 346.73 604.34 345.82 604.80 344.92 Z" />
<path fill="#ffffff" stroke="#ffffff" stroke-width="0.09375" opacity="1.00" d=" M 418.88 390.82 C 422.74 389.21 426.89 388.26 431.10 388.69 C 433.91 389.33 436.63 390.32 439.04 391.95 C 440.37 393.42 442.02 394.69 442.73 396.62 L 443.31 396.55 C 443.90 400.03 444.12 403.62 443.26 407.09 C 441.63 409.79 439.95 412.56 437.18 414.25 C 436.40 414.71 435.62 415.18 434.85 415.66 C 433.64 416.18 432.44 416.71 431.25 417.26 C 426.45 418.25 421.39 418.20 416.85 416.20 C 414.38 414.63 412.40 412.46 410.65 410.15 C 409.91 406.43 409.93 402.60 410.69 398.89 C 411.98 397.10 413.32 395.33 414.74 393.65 C 416.16 392.77 417.53 391.80 418.88 390.82 Z" />
<path fill="#ffffff" stroke="#ffffff" stroke-width="0.09375" opacity="1.00" d=" M 649.99 409.18 C 651.57 408.16 654.34 409.12 655.02 406.99 L 655.60 408.11 C 658.62 408.54 661.69 408.62 664.74 408.80 C 667.21 409.55 669.71 410.21 672.23 410.81 C 677.61 413.05 682.77 415.92 687.06 419.93 C 688.52 421.45 689.85 423.11 690.92 424.95 C 691.65 426.95 691.55 429.08 691.45 431.17 C 690.42 432.31 689.34 433.40 688.23 434.45 C 681.13 437.07 673.25 435.70 665.88 435.16 C 661.00 434.22 656.24 432.64 651.97 430.08 C 650.65 428.71 649.28 427.39 647.92 426.07 C 647.34 425.01 646.76 423.95 646.19 422.90 C 645.60 421.45 645.49 419.89 645.38 418.36 C 644.93 418.27 644.03 418.09 643.58 418.00 C 644.02 417.91 644.90 417.75 645.34 417.66 C 645.22 414.32 646.50 410.32 649.99 409.18 Z" />
<path fill="#ffffff" stroke="#ffffff" stroke-width="0.09375" opacity="1.00" d=" M 358.98 439.18 C 361.21 438.34 363.56 437.58 365.97 437.92 C 367.00 438.24 368.04 438.56 369.09 438.87 C 370.23 439.21 371.39 439.53 372.56 439.83 C 372.46 439.92 372.26 440.11 372.16 440.21 C 375.91 442.29 378.77 445.52 381.32 448.91 C 383.49 452.56 382.66 456.87 379.99 460.00 C 379.29 460.76 378.70 461.60 378.22 462.51 L 377.82 462.55 C 377.57 462.86 377.05 463.46 376.80 463.77 C 375.28 465.00 373.68 466.12 372.09 467.25 C 370.40 467.88 368.73 468.52 367.10 469.28 C 363.75 469.90 360.18 470.25 356.98 468.83 C 355.22 467.95 353.73 466.68 352.39 465.28 L 352.56 464.46 L 351.54 464.33 C 351.56 464.01 351.60 463.37 351.62 463.05 C 349.70 460.07 349.91 456.32 349.80 452.91 C 350.11 451.60 350.40 450.28 350.67 448.97 C 351.32 447.55 351.94 446.12 352.56 444.69 C 353.81 443.55 354.92 442.29 355.91 440.93 C 356.95 440.37 357.97 439.78 358.98 439.18 Z" />
<path fill="#ffffff" stroke="#ffffff" stroke-width="0.09375" opacity="1.00" d=" M 275.53 461.57 C 277.93 458.76 281.43 457.51 284.95 456.81 C 286.36 456.81 287.77 456.82 289.19 456.86 C 290.45 457.24 291.74 457.53 293.04 457.80 C 295.46 458.64 297.76 459.77 300.05 460.91 C 301.03 461.71 301.99 462.55 302.96 463.38 L 303.61 463.48 L 303.62 464.12 C 303.92 464.47 304.52 465.18 304.82 465.54 L 305.27 465.70 C 307.28 469.89 307.42 474.92 305.35 479.12 C 301.50 485.27 294.08 488.52 286.94 487.34 C 281.59 485.97 277.16 482.07 275.18 476.93 C 273.24 472.03 272.52 466.20 275.53 461.57 Z" />
<path fill="#ffffff" stroke="#ffffff" stroke-width="0.09375" opacity="1.00" d=" M 513.63 478.91 C 516.58 474.21 523.03 473.12 527.94 475.14 C 533.32 477.63 537.91 481.58 541.70 486.11 C 543.22 488.04 544.47 490.20 546.25 491.92 C 546.69 493.01 547.17 494.09 548.07 494.92 C 548.39 495.44 549.01 496.49 549.32 497.01 C 549.36 497.24 549.43 497.70 549.46 497.94 C 550.70 500.06 551.47 502.42 552.26 504.75 C 552.81 507.62 552.44 510.55 551.16 513.19 C 549.48 515.13 546.17 514.89 545.02 517.04 C 543.73 514.70 540.23 515.33 538.07 514.00 C 533.36 511.56 528.98 508.47 524.95 505.03 C 524.30 504.34 523.65 503.65 523.01 502.98 C 522.33 502.32 521.65 501.68 520.97 501.05 C 519.51 499.43 518.21 497.68 516.80 496.02 C 516.34 494.82 515.71 493.71 514.59 493.02 C 514.60 492.76 514.61 492.24 514.61 491.98 C 513.86 490.72 513.22 489.43 512.66 488.10 C 511.98 484.99 512.21 481.78 513.63 478.91 Z" />
<path fill="#ffffff" stroke="#ffffff" stroke-width="0.09375" opacity="1.00" d=" M 197.11 485.50 C 199.52 481.24 204.51 480.10 209.01 479.75 C 211.32 480.19 213.66 480.49 215.93 481.09 C 217.61 481.76 219.28 482.49 220.94 483.23 C 221.15 483.59 221.55 484.31 221.75 484.67 L 222.38 484.37 C 223.25 486.50 223.74 488.75 224.17 491.02 C 223.75 497.20 225.47 503.90 222.36 509.61 L 221.90 509.60 C 220.78 510.28 219.56 510.77 218.34 511.24 C 212.22 511.08 206.10 511.26 199.98 511.14 C 198.97 510.79 197.94 510.45 196.94 510.10 C 196.28 509.32 195.57 508.60 194.81 507.93 C 194.07 504.63 193.82 501.20 192.72 497.99 C 193.29 496.06 193.65 494.07 194.05 492.10 C 194.52 489.96 195.15 487.84 196.51 486.09 L 196.37 485.36 L 197.11 485.50 Z" />
<path fill="#ffffff" stroke="#ffffff" stroke-width="0.09375" opacity="1.00" d=" M 576.55 544.60 C 581.64 542.19 587.01 545.17 592.14 545.83 C 594.42 546.61 596.74 547.30 599.10 547.80 C 601.11 548.49 603.14 549.17 605.18 549.82 C 606.13 550.17 607.10 550.52 608.08 550.87 C 609.36 551.35 610.65 551.82 611.94 552.34 C 614.24 553.33 616.54 554.33 618.88 555.26 C 620.56 555.89 622.23 556.57 623.90 557.27 C 625.56 557.89 627.21 558.56 628.86 559.27 C 631.56 560.21 634.24 561.21 636.90 562.27 C 638.57 562.90 640.22 563.57 641.87 564.26 C 643.55 564.90 645.23 565.57 646.89 566.28 C 648.28 566.81 649.67 567.37 651.07 567.90 C 652.34 568.35 653.62 568.80 654.89 569.32 C 656.28 569.84 657.67 570.37 659.08 570.89 C 660.32 571.34 661.56 571.76 662.82 572.23 C 664.24 572.76 665.67 573.30 667.12 573.79 C 669.77 574.82 672.42 575.88 675.13 576.78 C 678.76 578.22 682.42 579.61 686.15 580.83 C 690.76 582.59 695.40 584.28 700.11 585.79 C 702.35 586.65 704.62 587.45 706.89 588.28 C 709.28 589.10 711.65 590.02 714.08 590.78 C 715.33 591.26 716.58 591.75 717.85 592.25 C 718.85 592.55 719.86 592.89 720.87 593.25 C 725.25 594.82 729.65 596.36 734.07 597.83 C 735.05 598.16 736.05 598.48 737.05 598.80 C 738.06 599.17 739.09 599.54 740.13 599.90 C 741.38 600.36 742.63 600.82 743.90 601.33 C 745.64 602.08 747.36 602.87 749.06 603.74 C 750.35 604.46 751.68 605.13 753.04 605.75 C 754.64 606.86 756.20 608.03 757.74 609.24 C 758.54 610.17 759.38 611.07 760.30 611.92 C 762.53 615.29 762.39 620.40 758.94 622.91 C 755.52 626.21 750.47 626.05 746.07 625.72 C 740.29 625.05 734.66 623.48 729.11 621.82 C 728.12 621.51 727.15 621.20 726.19 620.89 C 725.17 620.56 724.17 620.23 723.17 619.90 C 722.14 619.54 721.12 619.18 720.11 618.82 C 719.57 618.68 718.49 618.40 717.94 618.26 C 714.74 616.90 711.34 616.07 708.14 614.74 C 705.44 613.78 702.74 612.81 700.12 611.67 C 698.40 611.11 696.73 610.42 695.13 609.62 C 693.39 609.06 691.69 608.40 690.05 607.63 C 688.00 606.76 685.95 605.90 683.87 605.15 C 682.61 604.65 681.35 604.15 680.13 603.64 C 678.44 603.04 676.76 602.39 675.10 601.74 C 672.03 600.53 668.99 599.25 665.87 598.18 C 664.61 597.65 663.34 597.14 662.10 596.62 C 660.40 596.04 658.72 595.40 657.08 594.72 C 655.68 594.20 654.28 593.68 652.88 593.21 C 651.65 592.71 650.40 592.23 649.18 591.76 C 648.15 591.45 647.13 591.12 646.13 590.77 C 640.79 588.74 635.43 586.80 630.12 584.70 C 628.69 584.17 627.27 583.62 625.86 583.10 C 623.26 581.98 620.58 581.06 617.92 580.12 C 616.66 579.65 615.39 579.23 614.15 578.77 C 612.72 578.22 611.30 577.69 609.86 577.21 C 608.61 576.71 607.35 576.23 606.12 575.74 C 603.00 574.63 599.99 573.23 596.89 572.10 C 595.23 571.40 593.56 570.75 591.87 570.18 C 590.61 569.66 589.35 569.16 588.11 568.65 C 586.40 568.06 584.73 567.36 583.09 566.65 C 581.41 566.03 579.51 565.70 578.26 564.32 C 577.85 564.42 577.03 564.60 576.62 564.69 C 576.61 564.32 576.60 563.58 576.59 563.22 L 575.55 563.46 L 575.65 562.34 L 574.78 562.43 C 571.99 557.34 571.50 550.87 574.78 545.88 C 575.22 545.56 576.11 544.92 576.55 544.60 Z" />
<path fill="#ffffff" stroke="#ffffff" stroke-width="0.09375" opacity="1.00" d=" M 545.90 569.62 C 547.78 569.32 549.67 569.40 551.57 569.60 L 551.49 570.82 L 552.21 570.26 C 552.88 571.36 553.77 572.31 554.65 573.27 C 555.41 574.17 556.17 575.09 556.93 576.01 C 558.14 577.24 559.30 578.53 560.29 579.95 C 561.52 581.97 562.90 583.91 564.16 585.92 C 564.99 587.69 566.03 589.36 567.23 590.91 C 567.93 592.74 569.09 594.33 570.21 595.93 C 571.00 597.67 572.02 599.29 573.13 600.87 C 573.94 602.65 574.85 604.40 576.09 605.95 C 578.91 611.90 582.89 617.22 585.76 623.15 C 586.57 624.73 587.44 626.30 588.46 627.77 L 588.46 628.21 C 589.04 629.10 589.60 630.01 590.13 630.96 C 591.47 633.32 592.32 636.10 594.38 637.98 C 594.35 638.35 594.30 639.08 594.27 639.44 L 595.13 639.64 C 595.34 640.21 595.76 641.36 595.97 641.94 C 596.61 642.97 597.17 644.04 597.75 645.13 C 598.25 646.05 598.75 646.98 599.26 647.91 C 599.86 649.27 600.58 650.59 601.37 651.86 C 603.63 656.20 605.69 660.66 608.08 664.94 C 608.89 666.70 609.78 668.42 610.72 670.13 C 611.47 671.74 612.25 673.33 613.03 674.94 C 613.29 675.43 613.81 676.40 614.07 676.89 C 614.61 678.09 615.12 679.31 615.59 680.56 L 616.11 680.61 C 616.87 683.43 618.60 685.85 619.65 688.56 L 620.49 688.64 C 620.42 689.10 620.30 690.03 620.23 690.49 L 621.12 690.59 C 622.27 694.23 624.14 697.59 625.64 701.11 C 625.88 701.73 626.36 702.97 626.60 703.59 L 627.50 703.61 C 627.42 704.07 627.27 704.99 627.20 705.45 L 628.11 705.54 C 628.67 708.75 630.66 711.44 631.59 714.55 L 632.09 714.62 C 633.02 717.53 634.53 720.20 635.60 723.06 C 636.18 724.36 636.78 725.67 637.41 726.99 C 637.93 730.00 636.79 732.85 634.13 734.43 C 629.86 735.05 625.19 736.99 621.07 734.79 C 620.87 734.56 620.47 734.09 620.27 733.85 C 616.82 729.10 614.16 723.85 610.81 719.05 C 610.15 717.75 609.45 716.49 608.71 715.26 C 607.13 712.51 605.55 709.76 603.86 707.07 C 603.21 705.76 602.49 704.49 601.72 703.27 C 601.07 702.19 600.44 701.14 599.82 700.08 C 599.27 699.01 598.64 697.98 597.97 697.02 C 596.32 694.02 594.50 691.12 592.95 688.07 C 591.69 685.68 590.26 683.40 588.92 681.07 C 587.66 678.69 586.28 676.39 584.90 674.09 C 583.95 672.08 582.85 670.16 581.69 668.29 C 581.14 667.18 580.54 666.12 579.90 665.09 C 577.01 659.39 573.85 653.81 570.64 648.29 C 570.20 647.39 569.78 646.49 569.37 645.60 C 568.86 644.74 568.36 643.90 567.86 643.06 C 567.64 642.55 567.21 641.55 566.99 641.04 C 565.08 638.08 564.10 634.48 561.58 631.97 C 561.63 631.62 561.74 630.92 561.80 630.56 L 560.89 630.44 C 560.50 628.85 559.79 627.37 558.86 626.05 C 558.30 624.67 557.67 623.34 556.94 622.07 C 555.70 619.66 554.37 617.31 553.25 614.86 C 551.81 612.27 550.49 609.62 549.35 606.90 C 548.57 605.25 547.87 603.58 547.26 601.88 C 546.78 600.59 546.33 599.31 545.85 598.04 C 544.61 593.78 543.56 589.47 542.83 585.10 C 542.43 580.70 542.57 576.25 543.81 571.99 C 544.67 571.34 545.37 570.55 545.90 569.62 Z" />
<path fill="#ffffff" stroke="#ffffff" stroke-width="0.09375" opacity="1.00" d=" M 375.07 581.06 C 380.99 578.29 387.16 581.48 391.75 585.24 C 394.95 588.00 398.04 590.98 400.71 594.26 C 402.24 596.13 403.56 598.17 405.18 599.98 C 406.75 602.99 408.99 605.61 410.38 608.74 C 412.65 613.84 415.05 619.82 412.48 625.29 C 411.74 626.02 411.01 626.75 410.28 627.50 C 405.95 629.67 401.47 627.27 397.68 625.15 L 397.55 624.48 L 396.77 624.57 C 393.07 621.12 389.26 617.78 385.92 613.96 C 385.01 612.88 384.11 611.79 383.24 610.69 C 377.60 602.43 370.27 592.58 374.06 582.06 C 374.32 581.81 374.82 581.31 375.07 581.06 Z" />
<path fill="#ffffff" stroke="#ffffff" stroke-width="0.09375" opacity="1.00" d=" M 451.56 612.65 C 454.07 610.81 457.26 611.18 460.14 611.67 C 461.48 612.71 462.81 613.78 464.12 614.89 C 466.45 617.29 468.50 619.96 470.13 622.90 C 470.62 623.97 471.13 625.04 471.65 626.13 C 473.48 630.20 475.61 634.68 474.35 639.25 C 473.46 641.28 472.05 643.13 470.12 644.27 C 466.23 646.51 461.45 647.89 457.15 645.93 C 455.27 644.35 453.84 642.36 452.61 640.27 C 452.10 639.14 451.57 638.03 451.05 636.93 C 450.23 634.71 449.50 632.45 448.80 630.20 C 448.58 628.47 448.25 626.76 447.83 625.09 C 447.80 622.98 447.80 620.88 447.73 618.78 C 448.28 617.09 448.97 615.45 449.80 613.89 C 450.24 613.58 451.12 612.96 451.56 612.65 Z" />
<path fill="#ffffff" stroke="#ffffff" stroke-width="0.09375" opacity="1.00" d=" M 326.86 617.83 C 332.59 616.75 338.42 617.47 344.05 618.77 C 345.33 619.26 346.61 619.72 347.90 620.23 C 349.70 621.11 351.49 622.00 353.31 622.84 L 353.45 623.15 C 355.08 624.33 356.56 625.69 358.09 627.01 C 358.96 628.10 359.85 629.18 360.73 630.28 C 361.42 631.58 362.16 632.87 363.18 633.96 C 363.33 634.52 363.64 635.64 363.79 636.20 C 364.28 637.39 364.72 638.60 365.17 639.82 C 365.42 641.09 365.45 642.68 367.01 643.02 C 365.10 643.33 365.55 645.49 364.94 646.83 C 364.68 647.12 364.16 647.71 363.90 648.01 C 361.06 649.24 357.87 648.95 355.02 647.94 C 353.41 647.20 351.77 646.53 350.14 645.87 C 348.73 645.31 347.36 644.73 345.96 644.21 C 344.67 643.70 343.38 643.23 342.12 642.68 C 336.64 642.30 329.23 640.39 325.49 645.69 C 325.41 646.63 325.24 648.52 325.16 649.47 L 324.69 649.40 C 324.60 651.90 324.39 654.41 323.88 656.87 C 323.56 659.78 322.28 662.42 321.12 665.06 C 319.53 668.05 317.41 670.68 315.04 673.08 C 314.35 673.70 313.66 674.32 312.98 674.95 C 312.54 675.29 311.66 675.99 311.22 676.33 C 309.48 677.26 307.72 678.14 305.91 678.91 C 300.12 680.85 293.94 681.07 287.93 680.29 C 286.19 679.58 284.46 678.86 282.72 678.19 L 282.59 677.77 C 282.23 677.54 281.51 677.08 281.15 676.85 C 276.02 672.55 272.05 666.97 269.30 660.89 C 268.43 658.92 267.62 656.92 267.10 654.83 C 266.66 653.49 266.24 652.18 265.77 650.87 C 264.56 646.04 264.23 641.09 263.73 636.15 C 263.31 632.93 263.34 629.61 264.49 626.54 L 265.46 626.52 L 265.32 625.59 C 267.92 623.92 271.38 623.76 273.99 625.51 C 274.23 625.54 274.71 625.60 274.95 625.63 C 278.46 627.79 281.83 630.32 283.67 634.14 C 284.52 636.08 285.31 638.07 285.96 640.11 C 286.62 643.40 287.27 646.70 288.02 649.98 C 288.66 651.35 289.30 652.73 289.87 654.14 C 291.16 655.16 292.58 656.04 294.17 656.53 C 294.66 656.20 295.64 655.55 296.13 655.23 C 298.95 652.59 300.98 649.29 302.89 645.97 C 305.18 641.60 307.47 637.24 309.92 632.95 C 310.81 631.55 311.73 630.17 312.62 628.77 C 314.07 627.13 315.46 625.44 316.70 623.64 C 316.94 623.42 317.43 622.98 317.68 622.77 C 318.46 622.14 319.24 621.50 320.00 620.86 C 322.08 619.43 324.42 618.44 326.86 617.83 Z" />
<path fill="#ffffff" stroke="#ffffff" stroke-width="0.09375" opacity="1.00" d=" M 233.64 648.56 C 235.93 646.32 239.43 647.32 242.27 647.44 C 243.19 648.27 244.14 649.09 245.09 649.91 C 245.76 650.57 246.43 651.24 247.10 651.92 C 247.80 652.88 248.54 653.81 249.32 654.73 C 253.05 660.96 255.60 667.84 257.19 674.92 C 257.92 681.86 259.06 689.49 255.71 695.95 C 255.40 696.16 254.77 696.59 254.46 696.81 L 254.68 697.37 C 250.82 700.44 245.91 699.21 242.40 696.30 L 242.44 695.50 L 241.70 695.55 C 241.44 695.22 240.92 694.56 240.67 694.23 C 239.27 692.26 237.94 690.25 236.66 688.21 C 236.41 687.69 235.90 686.65 235.64 686.13 C 234.62 684.08 233.71 681.97 233.04 679.78 C 232.12 677.26 231.52 674.64 230.86 672.05 C 230.09 668.27 230.06 664.40 230.19 660.57 L 229.47 660.63 C 230.17 656.45 230.31 651.63 233.64 648.56 Z" />
<path fill="#ffffff" stroke="#ffffff" stroke-width="0.09375" opacity="1.00" d=" M 370.37 680.48 C 373.91 676.49 379.81 678.56 383.01 681.90 C 385.81 684.94 387.93 688.49 390.17 691.95 C 391.09 693.67 392.11 695.35 393.19 696.98 C 394.52 699.28 395.76 701.63 397.10 703.93 C 397.67 705.30 398.36 706.63 399.14 707.91 C 399.73 709.28 400.36 710.63 401.09 711.95 C 402.93 716.03 404.98 720.00 406.67 724.15 C 407.43 725.85 408.14 727.58 408.83 729.33 C 409.48 730.88 410.10 732.45 410.73 734.03 C 411.12 735.04 411.49 736.06 411.85 737.10 C 412.20 738.12 412.54 739.15 412.88 740.19 C 413.19 741.16 413.50 742.15 413.80 743.14 C 414.62 745.42 415.31 747.75 415.88 750.11 C 416.77 752.98 417.44 755.92 418.15 758.85 C 419.64 765.79 420.22 772.90 419.75 779.99 C 419.61 782.29 418.78 784.54 417.45 786.42 C 414.90 788.73 411.07 787.75 408.31 786.37 L 408.38 785.36 C 408.04 785.34 407.36 785.31 407.02 785.30 C 405.09 782.74 402.54 780.73 400.63 778.15 C 400.11 777.08 399.61 776.01 399.16 774.94 C 397.60 770.55 395.77 766.26 394.30 761.84 C 393.91 760.82 393.56 759.80 393.25 758.78 C 392.76 757.52 392.29 756.28 391.81 755.04 C 391.36 753.61 390.84 752.22 390.34 750.84 C 389.82 749.57 389.35 748.31 388.87 747.06 C 388.38 745.64 387.84 744.26 387.29 742.88 C 386.78 741.60 386.30 740.33 385.82 739.05 C 383.48 732.48 380.82 726.02 378.30 719.51 L 377.94 719.36 C 376.57 715.47 374.65 711.82 372.97 708.06 C 372.41 706.81 371.83 705.58 371.29 704.34 C 369.94 700.96 368.94 697.46 367.70 694.05 C 366.92 689.46 366.03 683.63 370.37 680.48 Z" />
<path fill="#ffffff" stroke="#ffffff" stroke-width="0.09375" opacity="1.00" d=" M 265.90 736.84 C 267.76 735.75 269.85 735.36 271.98 735.48 C 274.43 736.83 276.66 738.54 278.37 740.77 C 279.58 742.80 281.04 744.67 282.32 746.66 C 282.89 747.78 283.50 748.90 284.15 750.00 C 285.72 752.50 287.01 755.16 288.34 757.80 C 288.98 759.16 289.65 760.52 290.35 761.86 C 291.27 764.36 292.64 766.67 293.60 769.17 C 294.17 770.38 294.76 771.61 295.36 772.82 C 295.82 773.96 296.30 775.09 296.78 776.24 C 297.46 777.85 298.10 779.51 298.74 781.16 C 299.51 782.76 300.22 784.41 300.80 786.11 C 301.45 787.79 302.10 789.49 302.70 791.20 C 303.21 792.44 303.71 793.71 304.24 794.97 C 304.75 796.34 305.29 797.72 305.79 799.13 C 306.42 800.81 307.06 802.51 307.70 804.21 C 308.77 807.15 309.86 810.10 310.77 813.11 C 311.47 815.10 312.15 817.11 312.78 819.13 C 313.19 820.45 313.53 821.80 313.86 823.17 C 314.19 824.16 314.52 825.17 314.85 826.19 C 315.17 827.16 315.48 828.15 315.77 829.16 C 316.50 831.46 317.25 833.78 317.82 836.14 C 318.59 838.75 319.26 841.39 320.11 843.98 C 320.77 846.65 321.40 849.35 322.18 852.00 C 322.77 854.67 323.42 857.33 324.08 860.00 C 324.35 861.35 324.61 862.74 324.89 864.12 C 325.87 868.27 326.37 873.09 323.71 876.75 C 323.48 877.00 323.04 877.51 322.81 877.76 C 319.01 880.33 313.52 880.15 310.10 877.01 C 308.88 875.79 307.99 874.29 306.93 872.95 C 305.73 871.07 304.63 869.14 303.63 867.16 C 303.22 866.03 302.76 864.92 302.30 863.83 C 301.90 862.79 301.52 861.75 301.18 860.72 C 300.54 859.09 299.92 857.47 299.30 855.86 C 298.91 854.82 298.54 853.80 298.18 852.78 C 297.81 851.77 297.44 850.77 297.08 849.77 C 296.19 847.11 295.09 844.53 294.26 841.86 C 293.60 839.84 292.91 837.85 292.24 835.85 C 291.91 834.84 291.60 833.83 291.31 832.83 C 290.58 830.84 289.83 828.88 289.23 826.87 C 288.40 824.57 287.60 822.28 286.76 820.00 C 285.87 817.29 284.87 814.62 283.86 811.96 C 283.73 811.41 283.46 810.31 283.32 809.76 C 282.12 806.87 281.18 803.88 280.25 800.89 C 279.61 799.19 278.98 797.52 278.31 795.85 C 277.80 794.56 277.34 793.29 276.86 792.03 C 276.29 790.64 275.71 789.27 275.22 787.87 C 273.80 784.58 272.48 781.26 271.18 777.93 C 268.36 770.44 265.56 762.90 263.91 755.04 C 262.90 750.41 262.45 745.65 263.58 741.00 C 264.44 739.66 265.23 738.27 265.90 736.84 Z" />
</g>
</svg>
