<?xml version="1.0" encoding="UTF-8"?>
<svg xmlns="http://www.w3.org/2000/svg" viewBox="0 0 1049.09 1049.09">
  <defs>
    <style>
      .cls-1 {
        fill: #ff0202;
        stroke: #ff0202;
      }

      .cls-1, .cls-2 {
        stroke-miterlimit: 10.43;
        stroke-width: .09px;
      }

      .cls-2 {
        fill: #fff;
        stroke: #fff;
      }
    </style>
  </defs>
  <g id="Capa_3" data-name="Capa 3">
    <rect class="cls-1" x=".05" y=".05" width="1049" height="1049"/>
  </g>
  <g id="Layer_1" data-name="Layer 1">
    <path class="cls-1" d="M454.07,178.51c23.44-12.46,72.26-19.08,98.29-20.45,46.48-.78,92.4,7.36,138.15,14.52,89.78,16.65,179.53,36.5,264.71,70.03,14.87,6.4,30.61,13.32,41.07,26.2-2.64,2.93-150.8,129.08-181.08,147.54-12.11,7.38-131.61,71.94-182.45,76.02-23.23-6.05-54.34-22.19-42.4,9.19,12.48,9.27,142.07,56.15,215,121.77-29.07,13.04-50.42,93.68-79.64,83.25-3.56-1.27-12.75,10.98-12.75,10.98-6.64,37.28-71.49,74.55-89.52,84.67-21.84,12.25-75.41-128.51-95.36-181.77-5.3-12.96-9.7-28.19-21.45-37.31-10.06-8.48-28.09-3.06-13.79,35.07,3.44,6.86,2.28,52.9-45.16,137.38-3.15,4.85-37.91,77.36-51.32,88.47-17.54,14.53-43.92,63.17-66.12,81.69-33.84,28.23-46.48,67.29-71.46,47.94-13.99-22.12-20.2-47.93-28.3-72.51-8.53-28.66-16.49-57.48-23.82-86.46-22.75-82.62-44.39-166.56-48.25-252.41-7.17-158.55,72.49-132.77,106.7-157.02,1.8-23.82-3.38-44.52-14.55-65.11-14.62-25.54-34.4-44.04-54.73-65.11-7.21-8.18-16.65-19.69-20.28-30.38-15.63-60.26,34.41-83.99,79.83-65.43,26.77,12.1,44.02,37.04,66.36,55.09,16.18,13.62,42.97,21.19,63.37,26.68,33.96-3.06,51.83-67.41,68.94-82.54Z"/>
    <g>
      <path class="cls-2" d="M486.22,149.17c37.19-9.36,76.07-9.03,113.92-4.23,91.36,9.28,181.35,29.23,269.57,54.36,29.65,8.32,58.81,18.48,86.82,31.3,14.95,6.98,29.94,15.57,39.84,29.13,7.88,10.45,7.28,26.92-3.03,35.59-10.36,9.44-25.34,9.31-38.45,9.39,.22,8.81,2.44,19.07-3.72,26.51-6.92,10.16-19.76,12.33-31.09,13.66-2.12,1.52-6.42-.48-7.98,2.18-4.44,8.77-5.7,19.72-13.77,26.27-9.62,9.28-23.93,7.59-36.09,8.62-1.19,8.3-1.44,17.13-5.72,24.61-2.58,4.31-4.89,10.22-10.39,11.4-10.56,1.12-21.2,.58-31.78,.58-3.46,8.21-5.88,17.83-13.74,23.07-9.23,6.04-20.86,4.02-30.99,1.81-2.19-.5-5.25-.88-6.34,1.64-3.72,7.5-6.64,16.58-14.74,20.49-8.54,5.65-19.29,4.71-29.01,4.64-2.15,.13-5.18-.66-6.22,1.88-3.69,7.03-6.58,15.14-13.82,19.39-9.88,8.04-23.89,5.01-34.38-.17-7.95,.99-13.76,8.95-21.98,9.79-8.52,1.95-16.98-.51-24.14-5.06-8.75-5.56-18.95-10.92-29.54-8.03,1.22,2.76,.97,6.89,3.37,9.24,4.95,3.17,10.63,4.85,16.11,6.86,21.38,7.98,42.48,16.69,63.45,25.67,38.85,17.27,77.92,34.83,113.18,58.82,8.91,6.59,17.96,13.35,24.92,22.07,4.53,6,8.52,14.93,4.28,22.12-5.39,8.49-16.1,10.93-24.88,14.31-.37,7.56,3.04,16.83-2.84,22.96-5.47,4.96-12.69,7.36-19.71,9.18-1.38,8.05-.82,17.25-6.04,24.08-4.53,5.39-10.56,10.16-17.71,11.24-8.87,1.75-17.95,.53-26.88,.04,.2,11.94,3.06,25.07-3.16,35.99-3.25,6.71-10.04,11.47-17.41,12.37-5.07,.56-10.11,.86-15.17,1.39-1.83,6.72-2.73,15.37-9.44,19.16-6.58,4.65-14.92,3.7-22.51,4.33-2.06,8.11-5.23,16.83-12.7,21.48-6.39,5.4-16.24,3.55-22.68-.86-22.02-13.94-35-37.57-47.01-59.92-23.31-44.22-42.1-90.6-59.7-137.32-2.74-7.18-4.99-14.58-8.81-21.29-1.83-2.75-5.75-2.25-8.58-2.53-2.02,4.38,.37,9.2,1.6,13.48,3.95,12.67,12.54,23.92,12.45,37.68,1.11,8.07-5.23,13.81-8,20.69-1.18,8.51,2.44,16.75,1.85,25.3,.78,7.48-4.55,13.56-9.87,18.02-4.43,4.05-9.7,6.97-14.76,10.14-.94,9.86,2.08,21.24-4.31,29.84-5.33,9.03-14.88,14.02-22.96,20.18,.93,9.26,2.81,18.67,1.17,27.95-3.05,11.45-14.58,16.8-24.9,20.17-.47,10.34,1.12,21.2-2.88,31.07-3.78,6.31-9.36,12.29-16.67,14.32-6.04,1.59-12.19,2.68-18.33,3.78-1.08,13.06-1.2,27.78-11.19,37.69-7.16,6.36-16.74,8.51-25.62,11.3-.54,12.39-.55,26.56-10.24,35.87-7.3,8.66-20.02,7-30.06,6.97-.11,10.19,.22,20.71-3.61,30.4-8.42,10.65-23.1,17.12-36.59,13.36-13.01-4.47-21.85-16.05-28.78-27.34-9.31-15.59-15.14-32.9-20.89-50.03-30.25-100.2-58.62-201.54-71.44-305.67-3.04-28.89-3.85-58.05-2.31-87.05,.31-19,8.72-36.32,13.81-54.27,4.87-16,11.17-32.82,25.23-43.01,17.53-12.9,39.55-16.18,59.99-22.03,2.39-.96,5.9-1.55,6.56-4.48,1.49-6.28-.21-12.65-1.66-18.74-5.68-23.22-18.85-43.85-33.71-62.27-11.29-13.64-22.94-27.02-35.65-39.36-5.49-5.55-11.24-11.09-15.11-17.95-7.52-14.52-8.5-31.62-5.74-47.52,1.19-7.03,3.34-13.99,3.33-21.17-2.37-6.13-7.44-10.87-9.84-17.04-2.86-7.73-4.7-16.26-3.22-24.46,3.43-6.85,12.8-8.84,19.7-6.98,9.94,2.57,17.59,10.27,27.14,13.75,11.56,.42,22.91-3.12,34.52-2.52,17.32-1.25,34.56,4.63,48.63,14.5,13.96,10.16,26.29,22.37,37.72,35.27,23.31,25.54,57.13,42.73,92.23,41.2,3.52-21.57,5.6-44.94,19.54-62.79,14.62-18.91,36.7-30.67,59.56-36.46Zm-16.7,27.34c-15.83,7.51-30.39,20.56-34.81,38.07-4.11,14.6-6.18,29.67-9.63,44.43-.96,2.65-1.03,6.54-3.84,8.17-3.16,.84-6.4,1.38-9.67,1.33-12.89-.34-25.8-1.61-38.38-4.53-20-5.38-38.8-15.06-54.66-28.41-21.9-17.69-38.81-42.14-65.05-54-12.83-6.44-27.49-5.38-41.3-3.84-1.58,8.45-2.42,18.07-9.33,24.12-6.12,6.23-15.5,6.32-23.55,7.84-3.45,11.96-4.81,24.97-.95,37.01,3.56,10.48,12.55,17.42,19.62,25.44,19.93,20.65,39.48,42.15,53.81,67.19,10.95,20.18,19.45,42.86,17.69,66.21-.08,4.1-.65,9.03-4.16,11.75-8.22,6.64-18.83,8.89-28.9,11.1-14.99,3.08-30.34,6.99-42.94,16.07-11.35,9.43-14.46,24.77-18.95,38.08-7.88,23.86-13.98,48.7-12.88,74.02,3.78,84.15,21.77,166.94,44.07,247.93,7.19,28.4,14.99,56.66,23.35,84.75,7.94,24.1,14.03,49.4,27.74,71.08,4.09,6.04,8.67,12.71,15.92,15.2,5.8,1.05,13.02-2.78,13.6-9.08,1.32-12.12,.66-24.36,1.77-36.48,.82-1.65,2.29-3.76,4.41-3.18,7.14,1.07,14.04,3.44,21.21,4.31,4.54,.6,11.31-.69,12.23-6.12,1.25-10.97,.65-22.08,2.18-33.03,.5-1.65,2.19-2.46,3.75-2.79,7.82-1.61,16.49-.56,23.67-4.6,4.5-2.26,7.48-7.04,7.84-12.02,.16-9.51-1.45-18.89-2.23-28.33,11.36-6.48,25.38-3.47,37.15-8.87,3.62-1.13,3.01-6.04,3.81-8.87,.14-10.04-1.53-20.28,.21-30.18,5.19-8.1,18.49-3.1,23.89-11.08,2.41-5.66-.26-11.97-2.22-17.29-.97-3.9-4.45-8.62-1.65-12.55,7.31-7.98,17.12-12.92,25.6-19.45,6.44-5.47,2.46-15.24,3.71-22.39,.73-4.64-1.64-11.4,3.94-13.91,5.13-4.44,11.45-7.14,16.73-11.37,3.51-1.78,5.39-5.83,5.02-9.62-1.08-6.8-3.53-13.32-4.26-20.16,.17-8.18,7.79-12.96,10.12-20.24,1.53-7.9-3.11-15.04-6.48-21.76-4.84-8.69-6.96-18.53-8.65-28.23-4.36,3.58-8.27,8.02-13.65,10.03-14.04-.13-29.21-3.83-38.79-14.8-4.14-5.28-8.74-11.35-7.85-18.53,2.55-5.04,9.04-3.45,13.6-3.28,7.17,3,12.09,9.38,18.58,13.46,4.01,1.73,9.27-.09,10.87-4.22,6.02-13.63,3.69-30.37,13.8-42.25,6.92-8.04,16.99-14.23,27.92-13.99,8.96-.32,18.39,4.09,23.01,11.92,2.05,2.86-.12,6.69-2.99,7.95-9.42,3.56-20.04,2.01-29.37,5.66-7.05,5.76-6.78,16.17-8.91,24.36,12.01,1.39,25.49,.61,35.35,8.92,11.52,8.94,13.88,24.27,19.08,36.97,19.56,52.21,40.18,104.52,70.22,151.75,7.56,11.41,14.61,24.29,27.62,30.28,2.41-9.48,3.77-19.24,7.22-28.43,8.54,.95,17.09,1.89,25.67,2.59,1.76-8.18,2.85-16.7,6.77-24.21,8.2,.69,16.48,1.59,24.7,.48,4.1-.62,7.16-4.37,7.36-8.45,.02-7.79-1.74-15.45-3.58-22.97-1.67-4.64-2.17-10.38-6.28-13.7-12.07-9.57-21.63-21.86-33.84-31.26-14.56-11.45-28.97-23.09-43.77-34.23-4.75-4.36-11.84-8.54-12.16-15.74-1.75-6.39,4.83-11.84,10.87-10.03,7.61-.17,13.66,5.35,18.84,10.23,20.39,19.45,43.05,36.28,64.51,54.5,6.19,4.91,10.31,11.73,15.24,17.77,9.05,4.69,19.58,7.13,29.8,5.95,4.05-.58,7.61-3.87,7.88-8.06,.36-7.65-.36-15.32,.32-22.96,.29-2.79,2.93-4.67,5.54-5.04,5.97-.83,12.02-1.24,18.03-1.9-1.39-8.43-4.2-16.49-6.74-24.61,10.11-6.03,22.32-6.07,33.4-9.26-2.43-4.2-5.71-7.87-9.41-10.97-11.44-9.38-24.45-16.57-37.48-23.46-42.29-22.06-85.52-42.34-129.72-60.28-13.81-5.83-29.28-8.45-41.51-17.54-7.07-5.17-6.29-14.46-9.33-21.69-8.3-6.57-17.75-12.32-23.38-21.61-4.75-7.06-8.68-16.32-5.68-24.83,2.52-8.61,10.85-13.64,19.06-15.83,12.06-2.89,24.55-3.99,36.3-8.2-2.05-8.5-7.09-15.84-9.87-24.05-1.97-5.58,4.23-11.78,10.03-9.01,9.72,3.08,16.08,11.99,20.46,20.71,3.71,8.43,4.51,20.01-2.63,26.82-14,12.3-33.63,12.62-51.03,15.71,3.4,6.12,6.61,12.51,11.3,17.78,2.81,3.01,7.37,.77,10.69,.51,10.69-2.29,22.8-2.77,32.23,3.63,6.48,3.22,12.41,9.07,20.18,8.66,11.12,.65,17.78-10.58,27.97-12.77,8.17,2.95,15.18,9.22,24.24,9.79,3.85-9.07,5.37-19.04,9.98-27.78,3.39-1.79,7.3-.64,10.93-.36,8.17,1.34,16.47,1.55,24.73,.95,9.34-2.17,10.18-13.28,12.14-20.77,1.53-3.52,.84-10.43,6.05-10.77,12.05,2.58,23.83,6.34,36.03,8.34,4.27-7.83,6.48-16.49,8.97-24.98,11.67-2.21,23.6-1.14,35.39-2.19,3.68,1.08,6.34-1.93,6.99-5.01,2.57-10.33,1.7-21.11,3.13-31.59,12.34-.84,24.73-1.01,37.04-2.39,4.56-.45,7.93-4.35,9.31-8.48,2.99-8.02,1.15-16.99,4.12-24.92,.75-4.03,6.16-1.66,8.5-2.29,10.75,1.1,22.57,2.01,32.13-4.07,2.7-3.24,.92-8,.2-11.61-1.46-7.16-5.69-13.35-7.38-20.43-.78-2.61,.98-5.9,3.88-6.01,15.7,.39,32,4.04,47.32-.93,4.66-2.22,4.62-8.36,1.54-11.88-10.25-12.62-25.68-19.41-40.26-25.68-83.5-32.87-171.48-52.33-259.49-68.65-44.85-7.02-89.87-14.99-135.43-14.23-25.52,1.34-52.08,3.53-75.06,15.74Z"/>
      <path class="cls-2" d="M522.97,172.01c8.9-2.66,19.98,4.77,18.6,14.58,.26,12.34-15.83,20.2-26.02,13.98-7.49-4.16-9.29-15.39-3.7-21.76,2.71-3.51,6.77-5.95,11.12-6.8Z"/>
      <path class="cls-2" d="M652.6,178.51c4.69,1.51,11.35,3.7,11.06,9.97,3.96,15.17-1.74,32.42-15.2,40.93-7.76,6.05-18.1,7.31-25.87,13.2-6.76,7.82-6.2,19.82-13.76,27.2-7.31,9.44-19.17,13.32-27.64,21.3-3.6,11.62-4.02,24.4-9.84,35.36-4.18,9.22-12.27,15.8-17.18,24.5-1.61,16.58,.69,34.78-8.65,49.57-7.86,15.28-22.2,25.23-35.78,34.94-1.14,13.44-.67,27.82-7.27,40.05-5.99,13.23-19.36,22.3-33.6,24.2-5.18,1.36-11.04,.71-15.87,3.24-5.48,7.8-8.47,17.1-14.41,24.62-6.8,9.76-16.83,18.48-29.14,19.57-13.14,.9-26.32,.34-39.47,.55-6.16,12.37-13.76,25.21-26.42,31.83-5.16,2.95-11.22,3.64-17.05,3.87-7.5,.06-14.4-3.61-21.7-4.6-8.84,6.72-13.66,17.84-22.91,24.07-9.05,1.23-18.16-1.41-27.25-1.11-4.81,1.11-7.5,5.83-10.95,8.93-11.98,12.21-24.42,26.81-42.29,29.64-12.62,2.89-26.57-7.63-25.8-20.81-.41-2.56,2.61-4.49,4.88-4.42,8.3,1.82,16.42,4.87,25.05,4.63,8.41,1.93,14.8-4.8,19.53-10.71,7.56-10.7,12.35-23.01,18.75-34.38,9.18,2.58,16.96,8.36,25.77,11.8,14.33-2.89,15.62-20.2,24.78-29.06,5.27-4.2,11.29,1.08,16.2,3.13,6.08,3.62,13.43,4.85,20.37,3.48,13.29-4.4,20.59-17.29,27.56-28.5,2.81-3.98,6.06-9.53,12.01-7.62,10.89,1.01,21.74,3.53,32.74,2.37,7.32-1.32,15.06-4.21,19.66-10.37,6.95-8.92,10.33-19.96,13.07-30.76,1.02-3.12,2.1-7.48,5.96-8.02,10.18-.51,20.35,.87,30.54,.28,3.51-.52,5.03-4.36,7.29-6.6,7.32-9.77,9.61-22.28,9.65-34.23,.38-6.48,.04-14.74,6.53-18.52,12.58-8.82,28.25-15.16,35.32-29.79,5.02-11.15,2.77-23.86,3.24-35.7,.39-5.36-1.02-11.35,1.79-16.27,5.98-8.6,15.76-13.58,22.2-21.73,2.15-10.08,.53-20.73,.99-31.02,.11-3.56-.84-9.7,3.72-11.22,7.79-2.71,16.03-4.54,23.12-8.98,3.57-2.55,8.24-4.67,9.76-9.12,3.27-10.31,2.23-22.69,10.12-30.99,9.07-9.64,26.01-1.88,33.99-12.95,7.86-10.36,7.49-24.07,12.4-35.75Z"/>
      <path class="cls-2" d="M226.98,194.05c8.26-.76,17.22-.9,24.58,3.53,16.5,8.15,26.1,28.08,20.98,45.99-3.2,14.86-16.61,26.59-31.6,28.38-18.98,3.03-39.11-10.67-43.36-29.39-6.94-20.64,7.89-45.19,29.4-48.51Z"/>
      <path class="cls-2" d="M701.95,223.01c10.36-.78,21.23-1.4,31.29,1.82,5.9,2.42,12.44,5.8,14.95,12.08,1.34,3.62-1.78,7.05-4.95,8.32-7.38,3.08-15.65,3.85-23.55,3.07-9.41-1.9-17.83-7.69-23.81-15.09-3.39-4.22,1.53-9.87,6.07-10.2Z"/>
      <path class="cls-2" d="M473.98,238.03c5.26-1.09,11.13-1.06,15.35,2.74,7.04,5.65,7.73,18.15,.08,23.64-5.68,5.85-15.87,5.77-21.17-.54-8.54-7.13-5.14-23.21,5.74-25.84Z"/>
      <path class="cls-2" d="M674.83,246.74c14.02,.55,27.23,7.68,36.49,18.03,5.14,5.17,7.55,13.43,4.78,20.37-2.74,7.94-9.71,13.8-17.62,16.21-13.28,4.06-27.45,3.17-40.78,7,5.66,13.71,20.02,22.29,23.1,37.39-4.18,3.06-8.07,8.33-14.09,6.67-8.63-3.27-14.7-10.65-20.72-17.29-7.7-9.77-13.19-21.83-13.23-34.45,.76-5.66,5.5-10.07,10.46-12.43,14.87-5.12,31.39-3.26,45.81-10.03-5.3-7.13-12.05-13.42-15.33-21.84,.06-3.25,.56-6.44,1.13-9.63Z"/>
      <path class="cls-2" d="M315.52,255.69c2.9-.2,5.41,1.88,8.02,2.87,15.86,8.31,31.3,17.4,47.04,25.94,3.15,1.99,7.3,3.61,8.66,7.43,2.76,6.59-5.7,13.96-11.62,10.51-15.87-7.22-30.43-16.98-45.9-24.99-5.25-3.07-12.33-5.32-13.97-12-.16-4.63,3.19-8.82,7.77-9.76Z"/>
      <path class="cls-2" d="M285.46,289.1c3.64-.86,7.67-1.74,11.09,.41,17.52,8.37,32.22,21.59,45.78,35.27,2.99,3.68,6.85,7.15,8.06,11.92,.86,3.77-3.79,7.09-7.2,5.3-13.19-4.98-24.05-14.44-34.86-23.22-9.36-8.27-20.4-16.59-22.87-29.68Z"/>
      <path class="cls-2" d="M263.87,304.88c3.54-.68,7.46,.83,9.9,3.44,4.22,6.12,6.04,13.41,8.82,20.22,6,14.48,12.91,28.57,18.79,43.09,1.08,3.68,2.66,8.94-.97,11.77-4.31,3.57-10.04-.38-12.33-4.27-8.71-14.77-14.74-30.88-21.58-46.54-2.47-5.95-5.38-11.77-6.81-18.1-2.55-3.81,.33-8.52,4.18-9.61Z"/>
      <path class="cls-2" d="M450.94,312.9c7.77-.96,19.72,.23,21.43,9.82,.25,5.27,2.1,12.88-3.45,16.22-6.74,3.49-15.45,3.34-21.84-.87-4.45-3.05-6.49-9.31-4.33-14.32,1.79-4.05,3.55-9.28,8.19-10.85Z"/>
      <path class="cls-2" d="M744.96,338c12.74-1.47,24.63,5.09,35.61,10.56,6.46,4.17,13.75,8.56,17.34,15.66,2.56,5.43-4.14,10.82-9.38,9.37-15.64-.54-30.69-7.52-42.67-17.39-3.33-2.94-7.5-6.01-8.13-10.76,.01-3.81,3.53-7.05,7.23-7.44Z"/>
      <path class="cls-2" d="M608.63,341.97c18.19,.56,35.06,13.48,40.98,30.57,.48,2.85,2.01,6.54-.19,8.86-2.92,3.67-8.52,2.16-12.3,.71-10.46-5.04-19.87-11.99-29.01-19.09-3.22-2.52-6.73-5.83-5.65-10.53,.31-4.22,4.05-7.11,6.17-10.52Z"/>
      <path class="cls-2" d="M422.98,390.06c9.52-3.81,23.21,3.32,21.61,14.47-2.78,14.01-23.93,19.46-32.32,7.3-5.61-8.66,1.56-19.67,10.71-21.77Z"/>
      <path class="cls-2" d="M652.96,409.01c14.23-1.7,29.62,4.29,38.16,15.94,3.19,4.28-.4,10.19-5.19,11.01-12.63,1.59-27.38,.81-36.92-8.82-4.66-5.35-4.77-17.19,3.95-18.13Z"/>
      <path class="cls-2" d="M361.96,438.97c9.86-2.23,19.4,6.42,21.43,15.51-2.56,9.75-12.75,16.6-22.71,15.96-15.18-3.49-12.92-28.28,1.28-31.47Z"/>
      <path class="cls-2" d="M282.99,458.04c8.85-1.85,19.63,2.02,23.66,10.45,4.14,9.93-6.39,20.1-16.05,19.8-10.01-.03-16.9-10.37-16.77-19.64,.45-4.98,4.2-9.57,9.16-10.61Z"/>
      <path class="cls-2" d="M520.98,475.05c7.51-1.93,13.44,4.05,18.39,8.67,6.28,6.79,12.4,14.7,13.8,24.13,.4,5.13-5.04,10.05-10.22,8.2-5.78-1.29-10.59-5.22-15.08-8.84-6.12-5.33-12.4-11.25-14.68-19.33-1.71-5.57,2.13-11.84,7.79-12.83Z"/>
      <path class="cls-2" d="M204.98,481.02c5.98-1.17,13.37-.19,17.79,4.3,3.13,5.77,1.5,12.98,1.89,19.27,.25,4.78-4.4,8.16-9.1,6.99-5.96-.6-13.24,2.09-18.56-1.47-6.32-9.16-3.73-25.64,7.98-29.09Z"/>
      <path class="cls-2" d="M577.99,544.96c8.02-1.55,15.76,1.85,23.32,3.95,14.61,5.03,28.77,11.23,43.24,16.64,27.31,10.84,55.13,20.33,82.79,30.23,11.24,4.05,23.46,7.1,32.42,15.56,2.92,2.79,3.79,8.05,.56,10.99-4.75,6.42-13.72,3.76-20.37,2.82-22.21-5.23-43.01-14.76-64.26-22.81-31.19-12.35-63.03-23.04-93.98-35.99-9.42-1.74-12.2-16.93-3.72-21.39Z"/>
      <path class="cls-2" d="M547.86,569.81c2.01-.92,3.91,.96,5.33,2.11,6.79,6.47,11.52,14.69,16.33,22.67,22.42,37.83,42.98,76.78,61.24,116.79,2.87,6.42,6.8,12.77,6.72,20.07-.38,1.69-1.89,2.91-3.34,3.71-3.76,.5-8.86,3.01-12.16-.02-5.42-6.22-9.24-13.56-13.42-20.6-19.99-33.79-38.91-68.19-56.82-103.12-5.07-9.82-8.57-20.72-8.26-31.88-.92-3.75,.79-8.19,4.38-9.73Z"/>
      <path class="cls-2" d="M373.79,583.94c3.11-5.81,11.38-3.55,15.56-.21,10.85,8.32,20.37,19.5,24.25,32.81,2.37,4.67-1.01,8.96-2.99,12.92-9.64-.15-16.92-7.35-23.2-13.78-7.33-8.93-15.6-19.36-13.62-31.74Z"/>
      <path class="cls-2" d="M454.91,611.89c5.62-1.48,9.74,3.52,13.01,7.3,3.85,6.32,8.83,13.7,6.72,21.42-3.46,5.14-12.49,9.86-17.86,4.7-7.43-6.92-8.58-18.11-8.18-27.65,1.27-2.57,3.54-4.87,6.31-5.77Z"/>
      <path class="cls-2" d="M324.23,619.24c11.5-3.71,25.1-.75,33.58,8.03,6.16,5.63,11.24,15.24,6.01,23.12-9.51-1.27-17.63-7.47-27.32-7.73-3.47-.87-8.45,.1-9.76,3.9-1.94,6.27-1.98,13.13-5.24,18.98-6.17,13.68-24.71,20.21-37.92,12.98-12.04-8.65-17.8-23.64-19.11-37.99-.43-4.68-2.14-11.31,2.37-14.7,4.13-3.08,9.06,.59,12.48,2.98,7.37,5.74,7.33,15.69,10.29,23.76,.78,2.84,3.76,4.71,6.66,3.84,10.65-11.42,13.51-29.29,27.96-37.17Z"/>
      <path class="cls-2" d="M235.91,647.74c5.08-2.04,9.08,1.89,12.26,5.16,5.26,7.38,8.29,16.18,9.96,25.03,.48,6,1.59,12.9-1.95,18.28-2.56,4.06-9.12,4.66-12.37,1.07-9.83-9.4-13.28-23.57-13.33-36.75-.65-4.8,1.6-9.91,5.43-12.79Z"/>
      <path class="cls-2" d="M374.01,679.05c4.49-1.97,7.5,2.15,10.31,4.71,5.78,6.89,10.18,14.79,14.27,22.77,9.99,19.3,18.6,39.76,21.45,61.47-.09,6.21,2.39,14.41-2.64,19.39-1.64,2-4.85,1.35-6.81,.12-5.04-3.62-9.71-8.28-11.84-14.22-5.74-15.55-11.34-31.17-17.34-46.63-4.44-11.8-11.79-22.59-13.62-35.28-1.8-5.1,1.47-10.55,6.22-12.33Z"/>
      <path class="cls-2" d="M267.93,736.78c6.06-2.48,9.84,3.4,12.95,7.45,11.71,18.67,19.34,39.48,27.1,60,7.39,20.3,13.13,41.19,17.83,62.27,.97,4.46,.47,11.08-4.64,12.71-9.28,3.54-15.01-6.48-17.76-13.55-10.11-25.71-17.6-52.39-28.01-77.99-5.28-13.27-11.17-26.66-11.91-41.13-.17-3.69,1.22-7.71,4.44-9.76Z"/>
    </g>
  </g>
</svg>