<svg xmlns="http://www.w3.org/2000/svg" fill="none" viewBox="0 0 250 340" width="32" height="42">
        <g id="Layer 1">
            <path d="m160.7 41.5l-35.3 35.3-35.4-35.3 35.4-35.4z"/>
            <path d="m203.8 84.6l-35.3 35.3-35.4-35.3 35.4-35.4z"/>
            <path d="m117.6 84.6l-35.4 35.3-35.3-35.3 35.3-35.4z"/>
            <path d="m160.7 127.7l-35.3 35.4-35.4-35.4 35.4-35.3z"/>
            <path d="m74.4 127.7l-35.3 35.4-35.4-35.4 35.4-35.3z"/>
            <path d="m117.6 170.9l-35.4 35.3-35.3-35.3 35.3-35.4z"/>
            <path d="m203.1 170.1l-35.3 35.4-35.4-35.4 35.4-35.3z"/>
            <path d="m246.3 213.3l-35.4 35.3-35.3-35.3 35.3-35.4z"/>
            <path d="m160 213.3l-35.4 35.3-35.3-35.3 35.3-35.4z"/>
            <path d="m203.1 256.4l-35.3 35.4-35.4-35.4 35.4-35.3z"/>
            <path d="m116.9 256.4l-35.4 35.4-35.3-35.4 35.3-35.3z"/>
            <path d="m160 299.5l-35.4 35.4-35.3-35.4 35.3-35.3z"/>
        </g>

    <style>
        path { fill: #646464; }
        @media (prefers-color-scheme: dark) {
            path { fill: #FFF; }
        }
    </style>
</svg>
