<svg version="1.2" xmlns="http://www.w3.org/2000/svg" viewBox="0 0 250 340" width="250" height="340">
	<style>
		.s0 { fill: #000000;stroke: #000000;stroke-linejoin: round;stroke-width: 5 } 
	</style>
	<g id="Layer 1">
		<path class="s0" d="m160.7 41.5l-35.3 35.3-35.4-35.3 35.4-35.4z"/>
		<path class="s0" d="m203.8 84.6l-35.3 35.3-35.4-35.3 35.4-35.4z"/>
		<path class="s0" d="m117.6 84.6l-35.4 35.3-35.3-35.3 35.3-35.4z"/>
		<path class="s0" d="m160.7 127.7l-35.3 35.4-35.4-35.4 35.4-35.3z"/>
		<path class="s0" d="m74.4 127.7l-35.3 35.4-35.4-35.4 35.4-35.3z"/>
		<path class="s0" d="m117.6 170.9l-35.4 35.3-35.3-35.3 35.3-35.4z"/>
		<path class="s0" d="m203.1 170.1l-35.3 35.4-35.4-35.4 35.4-35.3z"/>
		<path class="s0" d="m246.3 213.3l-35.4 35.3-35.3-35.3 35.3-35.4z"/>
		<path class="s0" d="m160 213.3l-35.4 35.3-35.3-35.3 35.3-35.4z"/>
		<path class="s0" d="m203.1 256.4l-35.3 35.4-35.4-35.4 35.4-35.3z"/>
		<path class="s0" d="m116.9 256.4l-35.4 35.4-35.3-35.4 35.3-35.3z"/>
		<path class="s0" d="m160 299.5l-35.4 35.4-35.3-35.4 35.3-35.3z"/>
	</g>
</svg>