<svg class="normal-logo" width="257" height="77" viewBox="0 0 257 77" fill="none" xmlns="http://www.w3.org/2000/svg"><path d="M106.148 76.7998C105.738 76.7998 105.328 76.7657 104.952 76.6632C104.577 76.5608 104.235 76.4242 103.962 76.2534C103.689 76.0485 103.45 75.8094 103.279 75.5362C103.108 75.263 103.04 74.9214 103.04 74.5116C103.04 74.4775 103.04 74.4091 103.04 74.375C103.04 74.3408 103.04 74.3067 103.04 74.2725H104.474C104.474 74.2725 104.474 74.3067 104.474 74.3408C104.474 74.375 104.474 74.4091 104.474 74.4433C104.474 74.6824 104.543 74.8873 104.679 75.058C104.816 75.2288 105.021 75.3654 105.26 75.4337C105.533 75.5362 105.84 75.5703 106.182 75.5703C106.421 75.5703 106.626 75.5703 106.831 75.5362C107.001 75.502 107.172 75.4679 107.309 75.3996C107.445 75.3313 107.548 75.263 107.65 75.1947C107.753 75.1264 107.787 75.0239 107.855 74.9556C107.924 74.8873 107.924 74.7507 107.924 74.6482C107.924 74.4433 107.855 74.2725 107.719 74.1359C107.582 73.9993 107.411 73.8969 107.206 73.7944C107.001 73.6919 106.728 73.6236 106.455 73.5553C106.182 73.487 105.874 73.3846 105.601 73.3163C105.294 73.248 105.021 73.1455 104.747 73.043C104.474 72.9406 104.235 72.804 103.996 72.6332C103.791 72.4624 103.586 72.2575 103.484 72.0185C103.347 71.7794 103.279 71.472 103.279 71.1305C103.279 70.789 103.347 70.4816 103.518 70.2084C103.655 69.9352 103.859 69.7302 104.133 69.5595C104.406 69.3887 104.713 69.2521 105.089 69.1838C105.465 69.1155 105.84 69.0472 106.284 69.0472C106.694 69.0472 107.07 69.0813 107.411 69.1838C107.753 69.2521 108.06 69.3887 108.333 69.5595C108.607 69.7302 108.812 69.9693 108.948 70.2425C109.085 70.5157 109.187 70.8231 109.187 71.1988V71.3354H107.787V71.233C107.787 71.028 107.719 70.8573 107.582 70.6865C107.445 70.5499 107.275 70.4133 107.036 70.345C106.797 70.2767 106.558 70.2084 106.25 70.2084C105.909 70.2084 105.635 70.2425 105.43 70.3108C105.191 70.3791 105.021 70.4474 104.884 70.584C104.747 70.6865 104.713 70.8573 104.713 71.028C104.713 71.1988 104.782 71.3696 104.918 71.472C105.055 71.6086 105.226 71.7111 105.43 71.7794C105.635 71.8819 105.909 71.9502 106.182 72.0185C106.455 72.0868 106.762 72.1551 107.036 72.2575C107.343 72.3258 107.616 72.4283 107.889 72.5308C108.163 72.6332 108.402 72.7698 108.641 72.9406C108.846 73.1113 109.051 73.3163 109.153 73.5553C109.29 73.7944 109.358 74.0676 109.358 74.4092C109.358 74.9556 109.221 75.3996 108.948 75.7411C108.675 76.0826 108.299 76.3217 107.821 76.4925C107.309 76.6974 106.762 76.7998 106.148 76.7998Z" fill="#00355E"></path><path d="M114.037 76.7999C113.252 76.7999 112.603 76.6632 112.022 76.39C111.441 76.1168 111.032 75.6728 110.724 75.1264C110.417 74.5458 110.28 73.8286 110.28 72.9748C110.28 72.0868 110.417 71.3696 110.724 70.8231C111.032 70.2425 111.441 69.8327 112.022 69.5595C112.603 69.2863 113.252 69.1497 114.037 69.1497C114.823 69.1497 115.506 69.2863 116.052 69.5595C116.599 69.8327 117.043 70.2767 117.35 70.8231C117.657 71.4037 117.794 72.1209 117.794 72.9748C117.794 73.8286 117.657 74.5799 117.35 75.1264C117.043 75.707 116.633 76.1168 116.052 76.39C115.506 76.6632 114.823 76.7999 114.037 76.7999ZM114.037 75.6045C114.413 75.6045 114.754 75.5362 115.027 75.4337C115.301 75.3313 115.54 75.1605 115.745 74.9556C115.95 74.7507 116.086 74.4775 116.189 74.1701C116.291 73.8627 116.325 73.487 116.325 73.0772V72.8381C116.325 72.4283 116.291 72.0526 116.189 71.7453C116.086 71.4379 115.95 71.1647 115.745 70.9597C115.54 70.7548 115.301 70.5841 115.027 70.4816C114.754 70.3792 114.413 70.3109 114.037 70.3109C113.661 70.3109 113.32 70.3792 113.047 70.4816C112.773 70.5841 112.534 70.7548 112.329 70.9597C112.125 71.1647 111.988 71.4379 111.885 71.7453C111.783 72.0526 111.749 72.4283 111.749 72.8381V73.0772C111.749 73.487 111.783 73.8627 111.885 74.1701C111.988 74.4775 112.125 74.7507 112.329 74.9556C112.534 75.1605 112.773 75.3313 113.047 75.4337C113.32 75.5362 113.661 75.6045 114.037 75.6045Z" fill="#00355E"></path><path d="M119.126 76.6633V69.218H120.526V75.4338H124.249V76.6633H119.126Z" fill="#00355E"></path><path d="M128.005 76.7998C127.356 76.7998 126.776 76.6973 126.332 76.4924C125.853 76.2875 125.512 75.9459 125.239 75.5361C125 75.0921 124.863 74.5798 124.863 73.9309V69.252H126.263V73.8968C126.263 74.4774 126.4 74.8872 126.707 75.1946C127.015 75.5019 127.424 75.6386 127.971 75.6386C128.517 75.6386 128.961 75.5019 129.269 75.1946C129.576 74.8872 129.747 74.4774 129.747 73.8968V69.252H131.147V73.9309C131.147 74.5798 131.011 75.1263 130.771 75.5361C130.532 75.9801 130.157 76.2875 129.679 76.4924C129.235 76.6973 128.688 76.7998 128.005 76.7998Z" fill="#00355E"></path><path d="M136.065 76.7999C135.314 76.7999 134.665 76.6632 134.119 76.39C133.572 76.1168 133.163 75.707 132.889 75.1264C132.616 74.5458 132.445 73.8286 132.445 72.9406C132.445 71.6428 132.753 70.6524 133.402 70.0376C134.05 69.4229 134.938 69.0814 136.065 69.0814C136.68 69.0814 137.227 69.1838 137.739 69.3887C138.251 69.5936 138.627 69.901 138.934 70.345C139.242 70.7548 139.378 71.3013 139.378 71.9502H137.944C137.944 71.5745 137.876 71.2671 137.705 71.0281C137.534 70.789 137.329 70.5841 137.056 70.4475C136.783 70.3109 136.475 70.2425 136.1 70.2425C135.622 70.2425 135.212 70.345 134.87 70.5158C134.529 70.7207 134.29 70.9939 134.153 71.3696C133.982 71.7453 133.914 72.2234 133.914 72.7698V73.0089C133.914 73.5895 133.982 74.0335 134.153 74.4092C134.324 74.7849 134.563 75.0581 134.87 75.263C135.178 75.4679 135.587 75.5362 136.1 75.5362C136.475 75.5362 136.817 75.4679 137.09 75.3313C137.363 75.1947 137.602 75.0239 137.739 74.7507C137.91 74.5116 137.978 74.2043 137.978 73.8286H139.378C139.378 74.4775 139.242 75.0239 138.934 75.4338C138.661 75.8436 138.251 76.1851 137.773 76.39C137.261 76.6974 136.68 76.7999 136.065 76.7999Z" fill="#00355E"></path><path d="M140.608 76.6634V69.2181H142.008V76.6634H140.608Z" fill="#00355E"></path><path d="M147.096 76.7999C146.311 76.7999 145.662 76.6633 145.081 76.3901C144.501 76.1169 144.091 75.6729 143.784 75.1264C143.476 74.5458 143.34 73.8286 143.34 72.9748C143.34 72.0868 143.476 71.3696 143.784 70.8232C144.091 70.2426 144.501 69.8328 145.081 69.5596C145.662 69.2863 146.311 69.1497 147.096 69.1497C147.882 69.1497 148.565 69.2863 149.111 69.5596C149.658 69.8328 150.102 70.2768 150.409 70.8232C150.717 71.4038 150.853 72.121 150.853 72.9748C150.853 73.8286 150.717 74.58 150.409 75.1264C150.102 75.707 149.692 76.1169 149.111 76.3901C148.531 76.6633 147.882 76.7999 147.096 76.7999ZM147.096 75.6046C147.472 75.6046 147.814 75.5363 148.087 75.4338C148.36 75.3314 148.599 75.1606 148.804 74.9557C149.009 74.7508 149.146 74.4775 149.248 74.1702C149.35 73.8628 149.385 73.4871 149.385 73.0773V72.8382C149.385 72.4284 149.35 72.0527 149.248 71.7453C149.146 71.4379 149.009 71.1647 148.804 70.9598C148.599 70.7549 148.36 70.5841 148.087 70.4817C147.814 70.3792 147.472 70.3109 147.096 70.3109C146.721 70.3109 146.379 70.3792 146.106 70.4817C145.833 70.5841 145.594 70.7549 145.389 70.9598C145.184 71.1647 145.047 71.4379 144.945 71.7453C144.842 72.0527 144.808 72.4284 144.808 72.8382V73.0773C144.808 73.4871 144.842 73.8628 144.945 74.1702C145.047 74.4775 145.184 74.7508 145.389 74.9557C145.594 75.1606 145.833 75.3314 146.106 75.4338C146.379 75.5363 146.721 75.6046 147.096 75.6046Z" fill="#00355E"></path><path d="M152.151 76.6633V69.218H153.483L156.66 73.6237C156.694 73.6579 156.728 73.7262 156.796 73.7945C156.83 73.8628 156.899 73.9311 156.933 74.0335C156.967 74.1018 157.001 74.1702 157.035 74.2043H157.104C157.104 74.1018 157.104 73.9994 157.104 73.8969C157.104 73.7945 157.104 73.692 157.104 73.6237V69.218H158.47V76.6633H157.138L153.961 72.2235C153.893 72.121 153.825 72.0185 153.757 71.9161C153.688 71.7795 153.62 71.7112 153.586 71.6429H153.517C153.517 71.7453 153.517 71.8478 153.517 71.9161C153.517 71.9844 153.517 72.121 153.517 72.2235V76.6633H152.151Z" fill="#00355E"></path><path d="M160.109 76.6634V69.2181H165.915V70.4134H161.509V72.2577H165.437V73.453H161.509V75.4339H165.983V76.6292H160.109V76.6634Z" fill="#00355E"></path><path d="M170.184 76.7997C169.774 76.7997 169.364 76.7656 168.988 76.6631C168.613 76.5606 168.271 76.424 167.998 76.2533C167.725 76.0484 167.486 75.8093 167.315 75.5361C167.144 75.2628 167.076 74.9213 167.076 74.5115C167.076 74.4773 167.076 74.409 167.076 74.3749C167.076 74.3407 167.076 74.3066 167.076 74.2724H168.51C168.51 74.2724 168.51 74.3066 168.51 74.3407C168.51 74.3749 168.51 74.409 168.51 74.4432C168.51 74.6822 168.579 74.8872 168.715 75.0579C168.852 75.2287 169.057 75.3653 169.296 75.4336C169.569 75.5361 169.876 75.5702 170.218 75.5702C170.457 75.5702 170.662 75.5702 170.867 75.5361C171.038 75.5019 171.208 75.4678 171.345 75.3995C171.482 75.3311 171.584 75.2628 171.687 75.1945C171.789 75.1262 171.823 75.0238 171.891 74.9555C171.926 74.853 171.96 74.7506 171.96 74.6481C171.96 74.4432 171.891 74.2724 171.755 74.1358C171.618 73.9992 171.447 73.8967 171.243 73.7943C171.038 73.6918 170.764 73.6235 170.491 73.5552C170.218 73.4869 169.911 73.3844 169.637 73.3161C169.33 73.2478 169.057 73.1454 168.784 73.0429C168.51 72.9405 168.271 72.8038 168.032 72.6331C167.827 72.4623 167.622 72.2574 167.52 72.0183C167.383 71.7793 167.315 71.4719 167.315 71.1304C167.315 70.7888 167.383 70.4815 167.554 70.2083C167.691 69.935 167.896 69.7301 168.169 69.5593C168.442 69.3886 168.749 69.252 169.125 69.1837C169.501 69.1154 169.876 69.0471 170.32 69.0471C170.73 69.0471 171.106 69.0812 171.447 69.1837C171.789 69.252 172.096 69.3886 172.37 69.5593C172.643 69.7301 172.848 69.9692 172.984 70.2424C173.121 70.5156 173.223 70.823 173.223 71.1987V71.3353H171.823V71.2328C171.823 71.0279 171.755 70.8571 171.618 70.6864C171.482 70.5498 171.311 70.4132 171.072 70.3449C170.833 70.2766 170.594 70.2083 170.286 70.2083C169.945 70.2083 169.672 70.2424 169.467 70.3107C169.228 70.379 169.057 70.4473 168.92 70.5839C168.784 70.6864 168.749 70.8571 168.749 71.0279C168.749 71.1987 168.818 71.3694 168.954 71.4719C169.091 71.6085 169.262 71.711 169.467 71.7793C169.672 71.8817 169.945 71.95 170.218 72.0183C170.491 72.0866 170.799 72.155 171.072 72.2574C171.379 72.3257 171.652 72.4282 171.926 72.5306C172.199 72.6331 172.438 72.7697 172.677 72.9405C172.882 73.1112 173.087 73.3161 173.189 73.5552C173.326 73.7943 173.394 74.0675 173.394 74.409C173.394 74.9555 173.258 75.3995 172.984 75.741C172.711 76.0825 172.335 76.3216 171.857 76.4923C171.345 76.6973 170.799 76.7997 170.184 76.7997Z" fill="#00355E"></path><path d="M176.81 76.6633V69.218H178.21V76.6633H176.81Z" fill="#00355E"></path><path d="M179.884 76.6634V69.2181H181.215L184.392 73.6238C184.426 73.6579 184.46 73.7262 184.528 73.7945C184.562 73.8628 184.631 73.9311 184.665 74.0336C184.699 74.1019 184.733 74.1702 184.767 74.2044H184.836C184.836 74.1019 184.836 73.9995 184.836 73.897C184.836 73.7945 184.836 73.6921 184.836 73.6238V69.2181H186.202V76.6634H184.87L181.694 72.2235C181.625 72.1211 181.557 72.0186 181.489 71.9161C181.42 71.7795 181.352 71.7112 181.318 71.6429H181.25C181.25 71.7454 181.25 71.8478 181.25 71.9161C181.25 71.9844 181.25 72.1211 181.25 72.2235V76.6634H179.884Z" fill="#00355E"></path><path d="M187.841 76.6634V69.2181H189.173L192.349 73.6238C192.383 73.6579 192.417 73.7262 192.485 73.7945C192.519 73.8628 192.588 73.9311 192.622 74.0336C192.656 74.1019 192.69 74.1702 192.724 74.2044H192.793C192.793 74.1019 192.793 73.9995 192.793 73.897C192.793 73.7945 192.793 73.6921 192.793 73.6238V69.2181H194.159V76.6634H192.827L189.651 72.2235C189.582 72.1211 189.514 72.0186 189.446 71.9161C189.377 71.7795 189.309 71.7112 189.275 71.6429H189.207C189.207 71.7454 189.207 71.8478 189.207 71.9161C189.207 71.9844 189.207 72.1211 189.207 72.2235V76.6634H187.841Z" fill="#00355E"></path><path d="M199.18 76.7999C198.394 76.7999 197.745 76.6632 197.165 76.39C196.584 76.1168 196.174 75.6728 195.867 75.1264C195.559 74.5458 195.423 73.8286 195.423 72.9748C195.423 72.0868 195.559 71.3696 195.867 70.8231C196.174 70.2425 196.584 69.8327 197.165 69.5595C197.745 69.2863 198.394 69.1497 199.18 69.1497C199.965 69.1497 200.648 69.2863 201.195 69.5595C201.741 69.8327 202.185 70.2767 202.492 70.8231C202.8 71.4037 202.936 72.1209 202.936 72.9748C202.936 73.8286 202.8 74.5799 202.492 75.1264C202.185 75.707 201.775 76.1168 201.195 76.39C200.648 76.6632 199.965 76.7999 199.18 76.7999ZM199.18 75.6045C199.555 75.6045 199.897 75.5362 200.17 75.4337C200.443 75.3313 200.682 75.1605 200.887 74.9556C201.092 74.7507 201.229 74.4775 201.331 74.1701C201.434 73.8627 201.468 73.487 201.468 73.0772V72.8381C201.468 72.4283 201.434 72.0526 201.331 71.7453C201.229 71.4379 201.092 71.1647 200.887 70.9597C200.682 70.7548 200.443 70.5841 200.17 70.4816C199.897 70.3792 199.555 70.3109 199.18 70.3109C198.804 70.3109 198.462 70.3792 198.189 70.4816C197.916 70.5841 197.677 70.7548 197.472 70.9597C197.267 71.1647 197.13 71.4379 197.028 71.7453C196.926 72.0526 196.891 72.4283 196.891 72.8381V73.0772C196.891 73.487 196.926 73.8627 197.028 74.1701C197.13 74.4775 197.267 74.7507 197.472 74.9556C197.677 75.1605 197.916 75.3313 198.189 75.4337C198.497 75.5362 198.804 75.6045 199.18 75.6045Z" fill="#00355E"></path><path d="M206.113 76.6634L203.415 69.2181H204.952L206.728 74.341C206.762 74.4093 206.796 74.5117 206.83 74.58C206.864 74.6484 206.898 74.7508 206.933 74.8533C206.967 74.9216 207.001 75.024 207.001 75.0923H207.069C207.103 75.024 207.103 74.9557 207.137 74.8874C207.172 74.8191 207.206 74.7167 207.206 74.6484C207.24 74.5459 207.274 74.4776 207.308 74.3751L209.084 69.2522H210.553L207.855 76.6975H206.113V76.6634Z" fill="#00355E"></path><path d="M210.245 76.6633L213.148 69.218H214.924L217.827 76.6633H216.29L215.709 75.0923H212.294L211.713 76.6633H210.245ZM212.738 73.8628H215.231L214.48 71.8478C214.446 71.7795 214.412 71.677 214.377 71.5746C214.343 71.4721 214.309 71.3355 214.241 71.1989C214.207 71.0623 214.138 70.9257 214.104 70.789C214.07 70.6524 214.036 70.5158 214.002 70.4134H213.933C213.899 70.55 213.831 70.7207 213.763 70.9257C213.694 71.1306 213.626 71.3013 213.592 71.4721C213.524 71.6429 213.489 71.7795 213.455 71.8478L212.738 73.8628Z" fill="#00355E"></path><path d="M218.715 76.6634V69.2181H221.686C222.437 69.2181 223.086 69.3547 223.633 69.6279C224.179 69.9011 224.589 70.311 224.862 70.8574C225.135 71.4038 225.306 72.1211 225.306 72.9749C225.306 73.8287 225.169 74.5117 224.862 75.0582C224.589 75.6046 224.145 76.0145 223.633 76.2877C223.086 76.5609 222.437 76.6975 221.686 76.6975H218.715V76.6634ZM220.115 75.4339H221.686C222.027 75.4339 222.335 75.3997 222.608 75.2973C222.881 75.1948 223.086 75.0582 223.291 74.8533C223.462 74.6484 223.598 74.4093 223.701 74.1019C223.803 73.7945 223.837 73.453 223.837 73.0432V72.8041C223.837 72.3943 223.803 72.0528 223.701 71.7454C223.598 71.438 223.462 71.1989 223.291 70.994C223.12 70.7891 222.881 70.6525 222.608 70.55C222.335 70.4476 222.027 70.4134 221.686 70.4134H220.115V75.4339Z" fill="#00355E"></path><path d="M230.019 76.7999C229.234 76.7999 228.585 76.6632 228.004 76.39C227.424 76.1168 227.014 75.6728 226.707 75.1264C226.399 74.5458 226.263 73.8286 226.263 72.9748C226.263 72.0868 226.399 71.3696 226.707 70.8231C227.014 70.2425 227.424 69.8327 228.004 69.5595C228.585 69.2863 229.234 69.1497 230.019 69.1497C230.805 69.1497 231.488 69.2863 232.035 69.5595C232.581 69.8327 233.025 70.2767 233.332 70.8231C233.64 71.4037 233.776 72.1209 233.776 72.9748C233.776 73.8286 233.64 74.5799 233.332 75.1264C233.025 75.707 232.615 76.1168 232.035 76.39C231.488 76.6632 230.805 76.7999 230.019 76.7999ZM230.019 75.6045C230.395 75.6045 230.737 75.5362 231.01 75.4337C231.283 75.3313 231.522 75.1605 231.727 74.9556C231.932 74.7507 232.069 74.4775 232.171 74.1701C232.274 73.8627 232.308 73.487 232.308 73.0772V72.8381C232.308 72.4283 232.274 72.0526 232.171 71.7453C232.069 71.4379 231.932 71.1647 231.727 70.9597C231.522 70.7548 231.283 70.5841 231.01 70.4816C230.737 70.3792 230.395 70.3109 230.019 70.3109C229.644 70.3109 229.302 70.3792 229.029 70.4816C228.756 70.5841 228.517 70.7548 228.312 70.9597C228.107 71.1647 227.97 71.4379 227.868 71.7453C227.765 72.0526 227.731 72.4283 227.731 72.8381V73.0772C227.731 73.487 227.765 73.8627 227.868 74.1701C227.97 74.4775 228.107 74.7507 228.312 74.9556C228.517 75.1605 228.756 75.3313 229.029 75.4337C229.336 75.5362 229.644 75.6045 230.019 75.6045Z" fill="#00355E"></path><path d="M235.108 76.6633V69.218H239.036C239.582 69.218 240.026 69.3205 240.402 69.4912C240.777 69.6962 241.051 69.9352 241.221 70.3109C241.392 70.6524 241.495 71.0623 241.495 71.5404C241.495 72.0185 241.392 72.4625 241.153 72.8382C240.948 73.2139 240.607 73.4871 240.197 73.692L241.734 76.6975H240.197L238.831 73.9311H236.508V76.6975H235.108V76.6633ZM236.508 72.7016H238.899C239.275 72.7016 239.548 72.5991 239.719 72.3942C239.924 72.1893 240.026 71.8819 240.026 71.5404C240.026 71.3013 239.992 71.0964 239.89 70.9257C239.787 70.7549 239.685 70.6524 239.514 70.55C239.343 70.4475 239.138 70.4134 238.899 70.4134H236.508V72.7016Z" fill="#00355E"></path><path d="M242.109 76.6634L245.012 69.2181H246.788L249.691 76.6634H248.154L247.574 75.0923H244.158L243.578 76.6634H242.109ZM244.602 73.8628H247.095L246.344 71.8478C246.31 71.7795 246.276 71.6771 246.242 71.5746C246.207 71.4722 246.173 71.3355 246.105 71.1989C246.071 71.0623 246.003 70.9257 245.968 70.7891C245.934 70.6525 245.9 70.5159 245.866 70.4134H245.798C245.763 70.55 245.695 70.7208 245.627 70.9257C245.559 71.1306 245.49 71.3014 245.456 71.4722C245.388 71.6429 245.354 71.7795 245.319 71.8478L244.602 73.8628Z" fill="#00355E"></path><path d="M253.346 76.7998C252.936 76.7998 252.526 76.7657 252.151 76.6632C251.775 76.5608 251.433 76.4242 251.16 76.2534C250.887 76.0485 250.648 75.8094 250.477 75.5362C250.306 75.263 250.238 74.9214 250.238 74.5116C250.238 74.4775 250.238 74.4091 250.238 74.375C250.238 74.3408 250.238 74.3067 250.238 74.2725H251.672C251.672 74.2725 251.672 74.3067 251.672 74.3408C251.672 74.375 251.672 74.4091 251.672 74.4433C251.672 74.6824 251.741 74.8873 251.877 75.058C252.014 75.2288 252.219 75.3654 252.458 75.4337C252.731 75.5362 253.039 75.5703 253.38 75.5703C253.619 75.5703 253.824 75.5703 254.029 75.5362C254.2 75.502 254.371 75.4679 254.507 75.3996C254.644 75.3313 254.746 75.263 254.849 75.1947C254.951 75.1264 254.985 75.0239 255.054 74.9556C255.088 74.8531 255.122 74.7507 255.122 74.6482C255.122 74.4433 255.054 74.2725 254.917 74.1359C254.78 73.9993 254.61 73.8969 254.405 73.7944C254.2 73.6919 253.927 73.6236 253.653 73.5553C253.38 73.487 253.073 73.3846 252.799 73.3163C252.492 73.248 252.219 73.1455 251.946 73.043C251.672 72.9406 251.433 72.804 251.194 72.6332C250.989 72.4624 250.784 72.2575 250.682 72.0185C250.545 71.7794 250.477 71.472 250.477 71.1305C250.477 70.789 250.545 70.4816 250.716 70.2084C250.853 69.9352 251.058 69.7302 251.331 69.5595C251.604 69.3887 251.912 69.2521 252.287 69.1838C252.663 69.1155 253.039 69.0472 253.483 69.0472C253.892 69.0472 254.268 69.0813 254.61 69.1838C254.951 69.2521 255.258 69.3887 255.532 69.5595C255.805 69.7302 256.01 69.9693 256.146 70.2425C256.283 70.5157 256.386 70.8231 256.386 71.1988V71.3354H254.985V71.233C254.985 71.028 254.917 70.8573 254.78 70.6865C254.644 70.5499 254.473 70.4133 254.234 70.345C253.995 70.2767 253.756 70.2084 253.448 70.2084C253.107 70.2084 252.834 70.2425 252.629 70.3108C252.39 70.3791 252.219 70.4474 252.082 70.584C251.946 70.6865 251.912 70.8573 251.912 71.028C251.912 71.1988 251.98 71.3696 252.116 71.472C252.253 71.6086 252.424 71.7111 252.629 71.7794C252.834 71.8819 253.107 71.9502 253.38 72.0185C253.653 72.0868 253.961 72.1551 254.234 72.2575C254.541 72.3258 254.814 72.4283 255.088 72.5308C255.361 72.6332 255.6 72.7698 255.839 72.9406C256.044 73.1113 256.249 73.3163 256.351 73.5553C256.488 73.7944 256.556 74.0676 256.556 74.4092C256.556 74.9556 256.42 75.3996 256.146 75.7411C255.873 76.0826 255.498 76.3217 255.019 76.4925C254.507 76.6974 253.961 76.7998 253.346 76.7998Z" fill="#00355E"></path><path d="M69.9117 63.6509C66.9404 64.7096 63.6618 65.017 60.3148 64.4022C54.6796 63.3777 50.1373 59.8941 47.5076 55.3176V64.8804C47.5076 65.2219 47.5076 65.5634 47.5076 65.9391V67.7492C55.431 68.4322 63.1153 66.9295 69.9117 63.6509Z" fill="#E63020"></path><path d="M66.9065 29.0885C76.9815 30.9328 83.6413 40.598 81.7629 50.673C81.7287 50.9121 81.6604 51.117 81.6263 51.356C82.1727 49.6143 82.6509 47.8383 82.9924 45.9941C83.9828 40.598 83.9145 35.236 82.9241 30.1472C81.8312 30.3863 80.8408 30.3863 80.226 29.8399C78.9282 28.747 79.8162 25.8099 80.9432 23.8973C78.7916 22.2921 76.3668 20.9602 73.7712 20.0039C72.7807 21.9506 70.7999 24.1364 69.263 23.829C67.5895 23.5216 66.9065 20.5162 66.9065 18.3304C64.1401 17.9889 61.4079 18.0914 58.744 18.5353C58.8465 20.7211 58.2317 23.5899 56.7632 24.1364C55.1921 24.717 53.0747 22.4629 51.9818 20.5503C50.4108 21.2334 48.908 22.0531 47.4736 23.0093V38.139C51.2646 31.4792 58.9489 27.6541 66.9065 29.0885Z" fill="#9D9D9C"></path><path d="M60.5538 76.8339C60.4855 76.8339 60.4514 76.8339 60.3831 76.7997C60.3489 76.7997 60.3148 76.7997 60.2806 76.7997C60.2806 75.0238 59.8366 72.7356 58.7779 71.7451L58.7437 71.711C58.5047 71.4719 58.2314 71.3353 57.8899 71.267C56.3189 70.9938 54.338 73.1795 53.3476 75.1262C51.2302 74.3407 49.2835 73.3162 47.4392 72.1208V69.3203C55.3626 70.0033 63.047 68.5006 69.8433 65.222C72.0974 64.4023 74.2149 63.1728 75.9908 61.6018C77.3911 60.3723 78.6206 58.9037 79.611 57.2644C79.167 58.1865 78.6889 59.0745 78.2107 59.9283C74.0783 67.237 67.8967 73.0771 60.5538 76.8339Z" fill="#B92A17"></path><path d="M94.8431 49.9558C92.6232 50.0241 89.6519 50.8438 89.3787 52.5172C89.242 53.4394 89.9251 54.4639 90.9497 55.3178C91.018 55.3861 91.0863 55.4202 91.1546 55.4885C91.1887 55.5227 91.2229 55.5227 91.257 55.5568C91.8376 56.035 92.5207 56.4448 93.1696 56.7863C93.272 56.8205 93.3404 56.8888 93.4428 56.9229C92.5548 59.5868 91.2912 62.0458 89.7543 64.2657C89.686 64.2316 89.6519 64.1974 89.5836 64.1633C87.6369 63.1729 84.768 62.4557 83.7435 63.7535C82.753 65.0171 83.7435 67.7835 85.0071 69.5936C82.9579 71.4037 80.6356 72.9405 78.1424 74.1017C77.6984 73.3845 77.0837 72.6331 76.4348 71.9842C76.2982 71.8818 76.1957 71.7452 76.0591 71.6427C76.0591 71.6427 76.0591 71.6427 76.025 71.6427C75.9908 71.6086 75.9567 71.5744 75.9225 71.5403C75.8884 71.5061 75.8542 71.5061 75.82 71.472C75.7859 71.4378 75.7517 71.4037 75.7176 71.3695C75.6493 71.3353 75.6151 71.3012 75.5468 71.2329C75.5127 71.1987 75.4444 71.1646 75.4102 71.1304C75.3761 71.1304 75.3761 71.0963 75.3419 71.0963C75.2736 71.0621 75.2053 71.028 75.137 70.9597L75.1028 70.9255C75.0687 70.9255 75.0345 70.8914 75.0345 70.8914C75.0004 70.8572 74.9662 70.8572 74.9321 70.8572C74.9321 70.8572 74.8979 70.8572 74.8979 70.8231C74.2832 70.5157 73.7026 70.4132 73.1903 70.6181C71.6876 71.1987 71.1753 74.1017 71.3802 76.3216C71.3119 76.3216 71.2094 76.3558 71.1411 76.3558C71.0728 76.3558 71.0045 76.3899 70.9362 76.3899C68.5114 76.8339 66.0182 76.9705 63.4568 76.7656C70.663 72.7698 76.6739 66.7247 80.6014 59.3136C81.0796 58.4256 81.5235 57.5377 81.9334 56.5814C82.753 54.7372 83.3336 53.1661 83.9825 50.9121C84.4265 49.2386 84.8705 47.4968 85.1779 45.4476C85.9975 39.9832 85.7585 34.5871 84.5973 29.4983C85.5536 29.2251 86.5781 28.747 87.4319 28.2005C87.4319 28.2005 87.4661 28.2005 87.4661 28.1664L87.5003 28.1322C87.5686 28.0981 87.6027 28.0639 87.671 28.0298C89.4811 30.0789 91.018 32.4013 92.1792 34.8945C90.3008 36.0557 88.115 38.2414 88.7297 39.8466C88.8322 40.0857 89.003 40.3247 89.2079 40.5297C89.242 40.5638 89.2762 40.598 89.3103 40.598C89.3103 40.598 89.3445 40.598 89.3445 40.6321C89.447 40.7004 89.5494 40.7687 89.6519 40.837C89.7202 40.8712 89.7543 40.9053 89.8226 40.9395C90.6081 41.3493 91.7352 41.5884 92.8281 41.6567C92.8281 41.6567 92.8281 41.6567 92.8622 41.6567C92.9305 41.6567 92.9647 41.6567 93.033 41.6567C93.0671 41.6567 93.0671 41.6567 93.1013 41.6567C93.1354 41.6567 93.1696 41.6567 93.2037 41.6567C93.2379 41.6567 93.2721 41.6567 93.2721 41.6567C93.3062 41.6567 93.3404 41.6567 93.3745 41.6567C93.4087 41.6567 93.4428 41.6567 93.4428 41.6567C93.477 41.6567 93.5111 41.6567 93.5453 41.6567C93.5794 41.6567 93.6136 41.6567 93.6477 41.6567C93.6819 41.6567 93.716 41.6567 93.7502 41.6567C93.7843 41.6567 93.8185 41.6567 93.8526 41.6567C93.8868 41.6567 93.921 41.6567 93.9551 41.6567C93.9893 41.6567 94.0234 41.6567 94.0234 41.6567C94.0576 41.6567 94.0917 41.6567 94.1259 41.6567C94.1942 41.6567 94.2966 41.6567 94.3649 41.6567C94.9114 44.3889 95.0821 47.1553 94.8431 49.9558Z" fill="#89210B"></path><path d="M121.483 63.4462C117.316 63.4462 113.798 62.729 110.895 61.2946C107.992 59.8601 105.807 57.6402 104.304 54.7031C102.801 51.7318 102.05 48.0092 102.05 43.4669C102.05 36.8071 103.723 31.8208 107.07 28.508C110.417 25.1952 115.233 23.5217 121.483 23.5217C124.966 23.5217 128.04 24.1023 130.738 25.2977C133.436 26.493 135.554 28.2348 137.056 30.5913C138.491 32.8113 139.242 35.5435 139.31 38.788C139.31 39.0612 139.071 39.3344 138.798 39.3344H130.021C129.713 39.3344 129.474 39.0953 129.474 38.8221C129.406 37.3877 129.099 36.1582 128.518 35.0995C127.869 33.9041 126.947 33.0162 125.752 32.3673C124.556 31.7184 123.122 31.411 121.449 31.411C119.365 31.411 117.623 31.855 116.291 32.7088C114.96 33.5626 113.935 34.7921 113.32 36.4314C112.671 38.0366 112.364 39.9833 112.364 42.2715V44.7988C112.364 47.0871 112.671 49.0338 113.32 50.6731C113.969 52.3124 114.925 53.5419 116.257 54.3957C117.589 55.2495 119.297 55.6594 121.414 55.6594C123.224 55.6594 124.727 55.352 125.991 54.7714C127.254 54.1567 128.211 53.2687 128.86 52.1075C129.44 51.0488 129.782 49.8193 129.816 48.3849C129.816 48.1116 130.089 47.8726 130.362 47.8726H138.798C139.071 47.8726 139.31 48.1116 139.31 48.3849C139.242 51.6294 138.491 54.3616 137.09 56.5815C135.622 58.9039 133.539 60.6457 130.84 61.8069C128.211 62.8656 125.069 63.4462 121.483 63.4462Z" fill="#00355E"></path><path d="M139.856 62.4898L154.201 24.3071C154.235 24.2388 154.303 24.1705 154.406 24.1705H163.046C165.027 24.1705 166.803 25.4 167.486 27.2443L180.737 62.4898C180.771 62.6264 180.703 62.763 180.532 62.763H170.252C170.15 62.763 170.082 62.6947 170.047 62.6264L167.793 56.0691H152.391L150.136 62.5923C150.102 62.6947 150.034 62.7289 149.932 62.7289H140.061C139.925 62.7972 139.822 62.6264 139.856 62.4898ZM154.815 48.5555H165.334L162.568 40.393C162.431 39.9832 162.226 39.4709 162.022 38.8562C161.817 38.2414 161.612 37.5925 161.407 36.8753C161.202 36.1923 160.997 35.4751 160.826 34.7579C160.655 34.0406 160.451 33.4259 160.28 32.9136H159.87C159.733 33.6308 159.494 34.4163 159.221 35.3384C158.948 36.2264 158.675 37.1485 158.367 38.0365C158.094 38.9245 157.821 39.71 157.616 40.393L154.815 48.5555Z" fill="#00355E"></path><path d="M184.699 62.5924V24.4097C184.699 24.3073 184.802 24.2048 184.904 24.2048H200.819C205.02 24.2048 208.572 24.8879 211.475 26.2881C214.378 27.6884 216.598 29.7717 218.101 32.6064C219.603 35.4411 220.389 39.0612 220.389 43.4669C220.389 47.8385 219.637 51.4587 218.101 54.3275C216.598 57.1963 214.378 59.3138 211.475 60.714C208.572 62.1143 205.02 62.7973 200.819 62.7973H184.904C184.802 62.7973 184.699 62.6949 184.699 62.5924ZM194.774 54.9081H200.717C202.288 54.9081 203.654 54.669 204.815 54.225C205.976 53.781 206.967 53.1321 207.752 52.2442C208.538 51.3903 209.118 50.2975 209.494 49.0338C209.87 47.7702 210.04 46.3016 210.04 44.6623V42.3057C210.04 40.6323 209.87 39.1295 209.494 37.8659C209.118 36.6022 208.538 35.5435 207.752 34.6555C206.967 33.8017 205.976 33.1528 204.815 32.6747C203.654 32.2307 202.288 31.9916 200.717 31.9916H194.774V54.9081Z" fill="#00355E"></path><path d="M224.692 62.5923V24.3754C224.692 24.273 224.794 24.1705 224.897 24.1705H256.351C256.454 24.1705 256.556 24.273 256.556 24.3754V31.8207C256.556 31.9232 256.454 32.0256 256.351 32.0256H234.767V39.266H253.619C253.721 39.266 253.824 39.3685 253.824 39.4709V46.7454C253.824 46.882 253.721 46.9504 253.619 46.9504H234.801V54.9079H256.795C256.898 54.9079 257 55.0104 257 55.1128V62.5581C257 62.6606 256.898 62.763 256.795 62.763H224.965C224.76 62.7972 224.692 62.6947 224.692 62.5923Z" fill="#00355E"></path><path d="M25.0352 13.5153C28.0064 12.4565 31.2851 12.1492 34.6321 12.7639C40.2672 13.7885 44.8095 17.272 47.4393 21.8485V12.2858C47.4393 11.9442 47.4393 11.6027 47.4393 11.227V9.41694C39.5159 8.73389 31.8315 10.2366 25.0352 13.5153Z" fill="#005EA3"></path><path d="M28.0406 48.0435C17.9655 46.1992 11.3058 36.534 13.1842 26.459C13.2183 26.2199 13.2866 26.015 13.3208 25.7759C12.7743 27.5177 12.2962 29.2937 11.9547 31.1379C10.9642 36.534 11.0325 41.896 12.023 46.9847C13.1159 46.7457 14.1063 46.7457 14.721 47.2921C16.0188 48.385 15.1309 51.3221 14.0038 53.2347C16.1554 54.8398 18.5803 56.1718 21.1759 57.1281C22.1663 55.1814 24.1472 52.9956 25.684 53.303C27.3575 53.6104 28.0406 56.6158 28.0406 58.8016C30.8069 59.1431 33.5391 59.0406 36.2031 58.5966C36.1006 56.4109 36.7153 53.542 38.1839 52.9956C39.7549 52.415 41.8724 54.6691 42.9653 56.5816C44.5363 55.8986 46.039 55.0789 47.4734 54.1226V38.993C43.6825 45.6869 35.9981 49.512 28.0406 48.0435Z" fill="#9D9D9C"></path><path d="M34.3931 0.297913C34.4614 0.297913 34.4956 0.297913 34.5639 0.332065C34.598 0.332065 34.6322 0.332065 34.6663 0.332065C34.6663 2.108 35.1103 4.39623 36.1691 5.38666L36.2032 5.42081C36.4423 5.65988 36.7155 5.79649 37.057 5.86479C38.628 6.13802 40.6089 3.95225 41.5993 2.00555C43.7168 2.79106 45.6635 3.81564 47.5077 5.01098V7.8115C39.5843 7.12844 31.9 8.63116 25.1036 11.9098C22.8495 12.7295 20.7321 13.959 18.9561 15.53C17.5559 16.7595 16.3264 18.2281 15.3359 19.8674C15.7799 18.9453 16.2581 18.0573 16.7362 17.2035C20.8687 9.92896 27.0503 4.08886 34.3931 0.297913Z" fill="#00508B"></path><path d="M0.10376 27.2101C2.32368 27.1418 5.29496 26.3221 5.56818 24.6487C5.70479 23.7265 5.02174 22.702 3.99716 21.8482C3.92886 21.7798 3.86055 21.7457 3.79225 21.6774C3.75809 21.6432 3.72394 21.6432 3.68979 21.6091C3.10919 21.1309 2.42614 20.7211 1.77724 20.3796C1.67478 20.3454 1.60648 20.2771 1.50402 20.243C2.39199 17.5791 3.65564 15.1201 5.19251 12.9002C5.26081 12.9343 5.29496 12.9685 5.36327 13.0026C7.30997 13.993 10.1788 14.7102 11.2034 13.4124C12.1938 12.1488 11.2034 9.38243 9.93972 7.57234C11.9889 5.76225 14.3113 4.22538 16.8044 3.06419C17.2484 3.7814 17.8631 4.53276 18.512 5.18166C18.6487 5.28411 18.7511 5.42072 18.8877 5.52318C18.8877 5.52318 18.8877 5.52318 18.9219 5.52318C18.956 5.55734 18.9902 5.59149 19.0243 5.62564C19.0585 5.65979 19.0926 5.65979 19.1268 5.69395C19.1609 5.7281 19.1951 5.76225 19.2292 5.7964C19.2976 5.83056 19.3317 5.86471 19.4 5.93301C19.4342 5.96717 19.5025 6.00132 19.5366 6.03547C19.5708 6.03547 19.5708 6.06962 19.6049 6.06962C19.6732 6.10378 19.7415 6.13793 19.8098 6.20624L19.844 6.24039C19.8781 6.24039 19.9123 6.27454 19.9123 6.27454C19.9465 6.30869 19.9806 6.30869 20.0148 6.30869C20.0148 6.30869 20.0489 6.30869 20.0489 6.34285C20.6637 6.65022 21.2443 6.75268 21.7565 6.54776C23.2593 5.96717 23.7715 3.06419 23.5666 0.844269C23.6349 0.844269 23.7374 0.810116 23.8057 0.810116C23.874 0.810116 23.9423 0.775964 24.0106 0.775964C26.4355 0.331979 28.9286 0.195369 31.49 0.400285C24.3521 4.36199 18.3413 10.407 14.4137 17.8181C13.9356 18.7061 13.4916 19.5941 13.0818 20.5504C12.2621 22.3946 11.6815 23.9656 11.0326 26.2197C10.5886 27.8932 10.1446 29.635 9.83727 31.6841C9.0176 37.1485 9.25667 42.5447 10.4179 47.6334C9.46159 47.9066 8.43701 48.3848 7.58319 48.9312C7.58319 48.9312 7.54904 48.9312 7.54904 48.9654L7.51489 48.9995C7.44658 49.0337 7.41243 49.0678 7.34412 49.102C5.53403 47.0528 3.99716 44.7304 2.83597 42.2373C4.71437 41.0761 6.90014 38.8903 6.28539 37.2852C6.18293 37.0461 6.01217 36.807 5.80725 36.6021C5.7731 36.5679 5.73895 36.5338 5.7048 36.5338C5.7048 36.5338 5.67064 36.5338 5.67064 36.4996C5.56818 36.4313 5.46573 36.363 5.36327 36.2947C5.29496 36.2606 5.26081 36.2264 5.19251 36.1923C4.40699 35.7824 3.27996 35.5434 2.18707 35.4751C2.18707 35.4751 2.18707 35.4751 2.15292 35.4751C2.08461 35.4751 2.05046 35.4751 1.98216 35.4751C1.948 35.4751 1.948 35.4751 1.91385 35.4751C1.8797 35.4751 1.84555 35.4751 1.81139 35.4751C1.77724 35.4751 1.74309 35.4751 1.74309 35.4751C1.70893 35.4751 1.67478 35.4751 1.64063 35.4751C1.60648 35.4751 1.57232 35.4751 1.57232 35.4751C1.53817 35.4751 1.50402 35.4751 1.46987 35.4751C1.43571 35.4751 1.40156 35.4751 1.36741 35.4751C1.33326 35.4751 1.2991 35.4751 1.26495 35.4751C1.2308 35.4751 1.19665 35.4751 1.16249 35.4751C1.12834 35.4751 1.09419 35.4751 1.06003 35.4751C1.02588 35.4751 0.991729 35.4751 0.991729 35.4751C0.957577 35.4751 0.923424 35.4751 0.889271 35.4751C0.820966 35.4751 0.718508 35.4751 0.650203 35.4751C0.0354549 32.777 -0.135308 30.0106 0.10376 27.2101Z" fill="#00355E"></path></svg>