<?xml version="1.0" encoding="UTF-8" ?>
<!DOCTYPE svg PUBLIC "-//W3C//DTD SVG 1.1//EN" "http://www.w3.org/Graphics/SVG/1.1/DTD/svg11.dtd">
<svg width="1049pt" height="1049pt" viewBox="0 0 1049 1049" version="1.1" xmlns="http://www.w3.org/2000/svg">
<g id="#0a0a0aff">
<path fill="#0a0a0a" stroke="#0a0a0a" stroke-width="0.09375" opacity="1.00" d=" M 476.01 151.51 C 498.89 144.18 523.00 141.05 547.00 141.12 C 554.08 140.68 561.18 141.13 568.23 141.83 C 589.55 143.11 610.76 145.74 631.96 148.29 C 657.20 151.42 682.30 155.53 707.30 160.19 C 728.63 163.92 749.79 168.53 770.90 173.38 C 790.96 177.68 810.78 182.96 830.62 188.14 C 832.37 188.55 834.19 188.57 836.01 188.64 C 835.02 188.79 834.05 188.95 833.09 189.12 C 844.22 191.14 854.94 194.97 865.86 197.87 C 886.07 203.50 906.06 209.94 925.71 217.28 C 942.26 223.78 958.84 230.50 974.10 239.73 C 983.91 246.02 993.76 253.57 998.77 264.42 C 1003.57 274.41 1001.38 287.61 992.78 294.84 C 981.93 303.92 967.03 304.77 953.52 304.41 C 955.49 313.45 956.30 324.29 949.91 331.84 C 945.54 337.49 938.80 340.63 932.03 342.31 C 925.42 344.03 918.61 344.93 911.78 344.89 C 908.09 354.14 906.30 364.72 898.95 372.00 C 892.10 378.55 882.24 380.71 873.04 380.83 C 869.16 380.81 865.27 380.74 861.45 381.45 C 861.00 384.60 860.77 387.77 860.53 390.94 C 859.65 398.37 856.82 405.49 852.73 411.72 C 851.24 413.97 849.35 416.08 846.89 417.25 C 842.75 418.69 838.30 418.08 834.02 418.19 C 826.92 418.31 819.81 417.84 812.74 418.60 C 811.09 423.55 810.27 428.87 807.42 433.34 C 802.78 441.41 793.15 445.78 784.02 445.26 C 777.79 445.68 771.98 443.19 765.96 442.27 C 762.72 442.16 761.86 445.83 760.96 448.22 C 758.44 456.60 752.16 463.98 743.90 467.12 C 734.30 470.85 723.62 471.01 713.58 469.17 C 711.05 474.67 709.42 480.69 705.33 485.34 C 698.52 493.59 686.67 498.40 676.20 495.02 C 672.16 494.19 668.58 492.08 664.78 490.59 C 662.21 489.75 660.18 492.12 658.14 493.26 C 650.08 499.02 639.78 503.29 629.81 500.40 C 619.32 497.95 611.56 489.53 601.09 487.04 C 597.77 486.27 593.56 485.22 590.66 487.51 C 589.97 490.28 589.55 493.85 591.78 496.06 C 594.89 499.51 599.78 500.14 603.90 501.83 C 642.92 516.55 681.45 532.66 718.99 550.84 C 736.30 559.33 753.43 568.23 769.93 578.20 C 782.07 585.71 793.93 593.82 804.40 603.57 C 809.83 609.27 814.93 615.97 816.14 623.96 C 816.69 630.62 812.01 636.37 806.55 639.59 C 800.98 642.78 794.78 644.82 788.50 646.05 C 789.69 653.54 792.05 662.38 787.04 669.00 C 781.78 674.18 774.44 677.23 767.12 677.85 C 768.12 678.07 769.12 678.29 770.13 678.54 C 769.18 678.45 767.27 678.27 766.31 678.19 C 766.66 687.92 765.40 698.84 758.04 705.99 C 753.23 711.32 746.13 713.73 739.20 714.68 C 731.47 716.14 723.74 713.87 715.98 714.11 C 717.41 726.09 718.98 739.06 713.03 750.16 C 709.92 756.75 703.26 760.89 696.33 762.47 C 691.28 763.87 685.99 762.78 680.88 763.59 C 679.47 765.41 679.45 767.81 678.94 769.97 C 677.97 775.04 675.62 780.33 670.98 783.04 C 664.25 787.34 655.94 787.40 648.23 787.23 C 646.94 792.70 645.88 798.60 642.02 802.95 C 637.86 807.61 632.56 812.29 625.97 812.35 C 620.37 812.08 615.27 809.26 610.63 806.33 C 600.48 800.02 592.78 790.67 585.81 781.14 C 575.07 765.98 566.59 749.40 558.36 732.80 C 536.78 689.71 519.10 644.81 502.32 599.69 C 500.88 595.97 499.56 592.07 497.01 588.95 C 494.88 586.42 491.24 587.38 488.36 587.23 C 488.10 604.85 501.59 618.73 503.19 635.95 C 503.90 643.36 500.82 650.63 496.17 656.27 C 495.06 657.98 492.90 659.68 493.80 661.98 C 496.43 670.99 497.96 680.64 496.15 689.95 C 491.96 700.29 481.81 706.62 472.37 711.69 C 472.03 719.14 473.07 726.71 471.40 734.06 C 470.36 738.77 467.83 743.02 464.80 746.73 C 459.08 753.38 450.40 756.59 444.71 763.21 C 445.84 772.37 448.45 781.87 445.92 791.04 C 442.32 801.58 431.55 807.36 421.33 809.86 C 420.59 820.76 422.91 832.46 417.62 842.56 C 413.84 850.18 406.05 854.94 398.00 856.92 C 393.02 858.21 387.82 858.20 382.86 859.55 C 382.23 870.58 382.46 882.58 376.28 892.22 C 369.94 901.50 358.71 905.51 348.16 907.67 C 345.64 907.96 345.82 911.10 345.81 912.98 C 346.08 921.77 345.24 930.98 340.83 938.79 C 337.37 945.03 331.12 949.73 324.00 950.80 C 317.96 952.19 311.77 951.18 305.71 950.50 C 305.79 961.13 306.68 972.40 302.39 982.38 C 293.34 992.72 278.36 999.04 264.82 994.48 C 251.41 989.46 242.77 977.16 235.90 965.24 C 220.95 937.97 213.51 907.53 204.60 877.97 C 198.66 858.76 193.64 839.30 188.01 820.00 C 182.92 800.69 177.81 781.38 172.99 762.00 C 167.72 738.70 161.95 715.50 157.71 691.98 C 151.60 659.52 145.68 626.93 143.23 593.95 C 143.26 584.93 141.60 575.99 142.08 566.96 C 141.31 551.63 142.26 536.33 142.77 521.02 C 142.50 514.64 144.53 508.54 146.38 502.54 C 150.06 489.86 154.48 477.40 158.32 464.77 C 162.12 453.49 166.62 441.84 175.45 433.48 C 183.46 424.72 194.52 419.58 205.49 415.57 C 219.32 411.00 233.76 408.49 247.46 403.44 C 249.82 397.29 248.42 390.66 247.14 384.44 C 242.91 366.33 234.29 349.50 223.63 334.35 C 214.04 320.20 202.15 307.87 191.03 294.97 C 185.81 289.84 181.05 284.24 175.62 279.31 C 166.65 271.31 159.38 260.85 156.99 248.91 C 153.01 232.03 156.03 214.54 160.11 197.99 C 161.47 194.02 158.15 190.95 156.06 188.04 C 148.66 178.41 145.43 165.97 146.40 153.94 C 146.75 149.42 151.41 147.22 155.13 145.83 C 162.12 144.07 169.55 145.63 175.59 149.44 C 183.68 153.53 191.09 162.01 201.03 159.41 C 209.20 157.29 217.66 157.20 226.03 157.09 C 241.98 155.87 258.18 159.87 271.79 168.26 C 282.16 174.57 291.09 182.85 299.84 191.18 C 309.96 201.70 319.57 212.84 331.05 221.94 C 348.17 235.75 369.16 244.66 390.98 247.42 C 396.13 247.71 401.37 248.88 406.47 247.60 C 407.91 242.15 408.36 236.52 409.31 230.98 C 411.66 216.74 414.70 202.06 422.69 189.79 C 434.82 170.83 455.03 158.54 476.01 151.51 M 470.14 175.34 C 457.05 181.54 445.08 191.08 438.01 203.91 C 434.09 210.63 432.66 218.38 431.15 225.90 C 428.83 237.65 426.24 249.34 423.90 261.09 C 423.44 263.40 422.50 266.40 419.80 266.82 C 413.61 268.01 407.24 268.04 400.99 267.45 C 373.12 266.35 345.64 256.48 323.54 239.44 C 309.24 228.90 297.35 215.63 284.50 203.46 C 275.97 195.94 267.52 188.01 257.18 183.02 C 243.37 175.48 226.77 174.12 211.57 177.57 C 210.15 183.90 209.72 190.64 206.34 196.34 C 202.66 202.93 195.42 207.09 187.99 207.71 C 185.25 208.06 182.42 208.08 179.78 208.94 C 177.78 210.25 177.73 212.99 177.07 215.07 C 175.03 226.54 174.25 238.93 179.25 249.79 C 181.30 254.69 184.97 258.61 188.71 262.28 C 210.95 285.54 233.81 308.82 250.04 336.87 C 263.03 358.71 271.25 384.38 268.42 409.99 C 267.65 413.46 265.69 416.76 262.66 418.70 C 255.51 423.33 247.10 425.27 238.92 427.18 C 226.67 429.95 214.15 432.37 202.81 438.00 C 196.53 440.83 190.81 445.04 186.61 450.53 C 181.69 457.23 179.50 465.36 176.90 473.13 C 170.65 492.72 163.92 512.43 162.15 533.04 C 159.83 558.06 162.56 583.13 165.11 608.01 C 167.82 630.77 171.05 653.46 175.02 676.03 C 179.06 697.12 183.59 718.12 188.43 739.05 C 200.37 786.41 212.50 833.74 226.07 880.67 C 234.64 906.97 240.89 934.57 255.41 958.44 C 258.67 964.01 262.90 969.06 268.08 972.95 C 272.08 975.83 277.79 975.81 281.68 972.73 C 287.48 969.32 285.70 961.57 286.41 955.96 C 287.44 946.88 286.95 937.76 287.46 928.66 C 288.26 927.87 289.07 927.10 289.88 926.33 C 300.35 925.97 310.48 933.31 320.97 929.66 C 325.86 928.13 326.13 922.24 326.19 917.98 C 326.00 908.94 326.52 899.90 327.56 890.93 C 328.22 890.05 328.92 889.21 329.65 888.40 C 336.44 888.33 343.35 888.17 349.93 886.33 C 354.87 884.72 359.98 881.74 361.66 876.50 C 365.45 866.20 360.56 855.43 361.34 844.92 C 361.51 842.16 364.64 841.00 366.97 840.62 C 376.28 839.42 385.70 838.58 394.80 836.19 C 398.65 835.40 401.60 832.03 401.53 828.04 C 401.84 817.27 400.61 806.50 401.32 795.72 C 404.82 790.83 411.22 790.47 416.70 790.66 C 415.28 790.02 413.96 789.25 412.91 788.09 C 407.04 786.30 402.60 781.24 399.66 776.06 C 392.64 757.80 386.29 739.27 378.90 721.15 C 374.42 710.63 368.56 700.46 366.75 689.02 C 365.93 683.12 372.28 676.34 378.31 678.78 C 383.44 681.03 386.43 686.07 389.29 690.62 C 400.83 709.46 410.29 729.75 416.19 751.08 C 418.86 760.80 420.68 770.93 419.61 781.03 C 419.30 784.09 417.56 787.12 414.38 787.90 C 415.03 788.56 415.69 789.24 416.35 789.92 C 421.04 789.69 425.85 786.84 426.54 781.87 C 427.43 774.13 423.21 767.11 420.86 759.99 C 419.90 757.71 420.86 755.15 422.67 753.61 C 430.33 746.78 438.87 741.04 447.46 735.46 C 453.51 730.08 450.68 721.03 450.79 713.98 C 451.13 709.49 449.44 703.79 453.23 700.39 C 458.41 695.99 464.36 692.63 470.18 689.17 C 473.06 687.51 475.59 684.95 476.42 681.65 C 478.57 671.48 469.46 661.76 473.71 651.73 C 476.87 646.29 482.96 641.99 482.80 635.07 C 483.69 628.74 480.02 623.35 477.02 618.16 C 471.73 608.63 468.70 597.90 467.99 587.04 C 463.04 591.43 458.48 598.54 451.00 597.77 C 442.37 596.97 433.57 595.43 425.81 591.39 C 416.94 586.89 409.93 578.66 407.39 568.99 C 406.87 566.39 406.83 562.97 409.61 561.62 C 413.87 559.74 418.93 560.38 423.14 562.13 C 429.93 564.86 433.37 572.20 440.00 575.18 C 443.28 575.95 446.97 574.78 449.40 572.52 C 455.60 560.04 453.95 545.10 460.68 532.81 C 465.91 524.11 474.70 517.38 484.59 515.00 C 495.43 512.15 508.35 515.76 514.81 525.27 C 516.81 528.31 515.56 532.81 511.96 533.92 C 503.78 536.72 494.98 536.53 486.52 537.90 C 483.68 538.41 481.20 540.23 479.76 542.71 C 475.75 549.21 474.76 557.00 474.15 564.46 C 480.46 564.70 486.86 564.39 493.04 565.91 C 502.41 567.78 511.74 572.73 516.74 581.15 C 520.37 586.34 521.71 592.60 523.91 598.44 C 538.46 638.66 554.39 678.43 573.04 716.94 C 583.75 737.09 594.49 757.35 608.04 775.78 C 611.61 780.79 615.68 785.55 620.64 789.25 C 622.22 790.66 624.38 790.59 626.37 790.77 C 629.66 784.24 628.91 776.70 630.07 769.67 C 630.47 766.80 633.01 764.04 636.05 764.20 C 643.80 763.87 651.41 766.09 659.16 765.71 C 660.75 759.22 661.55 752.56 663.35 746.13 C 664.15 742.87 667.88 741.25 671.00 741.76 C 677.72 742.54 684.66 743.69 691.35 742.15 C 695.79 740.96 698.13 736.36 697.77 732.00 C 697.14 721.37 694.61 710.86 690.97 700.87 C 690.31 698.77 688.92 697.04 686.80 696.35 C 681.57 694.21 678.69 689.08 674.66 685.43 C 667.61 677.44 659.57 670.39 651.19 663.84 C 636.15 651.91 621.15 639.94 605.90 628.29 C 602.43 625.79 599.39 622.33 598.59 618.00 C 598.04 614.56 597.68 610.23 600.58 607.70 C 603.53 605.11 607.73 605.62 611.33 605.96 C 619.65 607.43 625.73 613.75 631.36 619.55 C 650.03 636.66 670.17 652.06 689.59 668.30 C 695.08 672.82 700.75 677.53 704.10 683.95 C 705.36 686.03 706.11 688.88 708.84 689.45 C 717.52 692.52 726.60 695.70 735.97 694.69 C 739.99 694.49 743.68 691.69 745.13 687.96 C 746.70 681.71 745.32 675.29 744.64 669.02 C 744.18 665.07 745.76 660.67 749.45 658.77 C 755.91 656.34 763.36 659.17 769.51 655.58 C 768.45 650.85 767.59 646.02 765.48 641.63 C 764.07 638.63 762.45 635.37 763.39 631.98 C 764.49 629.56 767.27 628.99 769.57 628.30 C 778.34 626.01 787.55 625.48 796.11 622.31 C 791.02 614.31 783.03 608.87 775.44 603.48 C 762.37 594.93 748.39 587.90 734.53 580.75 C 703.85 565.08 672.68 550.39 640.98 536.91 C 630.06 532.54 619.49 527.29 608.23 523.84 C 599.28 520.77 590.19 517.91 581.82 513.43 C 578.35 511.57 575.25 508.89 573.37 505.40 C 570.63 500.47 570.31 494.72 569.44 489.27 C 561.81 483.48 553.20 478.57 547.46 470.68 C 541.59 463.19 537.08 453.69 538.76 443.97 C 539.73 437.20 544.99 431.79 551.05 429.10 C 563.80 423.20 578.41 424.17 591.48 419.34 C 592.78 418.72 595.13 418.08 594.39 416.16 C 592.56 409.63 588.59 404.01 585.82 397.88 C 584.30 394.53 583.60 390.21 585.98 387.08 C 587.87 384.57 591.47 384.43 594.30 384.99 C 604.08 387.79 611.00 396.37 614.95 405.38 C 617.49 411.57 619.62 418.65 617.21 425.22 C 615.04 431.99 608.96 436.56 602.65 439.21 C 591.38 444.14 579.03 445.61 566.97 447.40 C 565.40 447.87 563.15 447.25 562.13 448.81 C 564.86 455.82 569.55 461.90 574.38 467.61 C 579.69 467.93 584.79 466.20 590.02 465.63 C 597.33 464.79 605.01 464.86 611.82 467.98 C 619.92 471.06 625.96 478.71 635.00 479.41 C 642.27 479.69 648.29 474.84 654.02 471.02 C 657.63 468.67 661.64 464.95 666.29 466.76 C 671.80 469.59 676.65 474.01 682.96 475.07 C 685.49 475.95 688.20 474.73 689.63 472.56 C 693.95 465.83 692.69 457.08 696.76 450.23 C 698.31 447.90 701.17 446.33 704.01 446.84 C 710.74 447.70 717.45 449.30 724.30 448.75 C 724.39 448.93 724.57 449.29 724.66 449.47 C 729.80 449.61 735.83 449.61 739.57 445.46 C 745.12 439.04 745.37 430.09 747.05 422.17 C 747.52 419.41 749.98 416.90 752.94 417.27 C 757.75 417.77 762.19 419.93 766.89 421.00 C 774.02 422.69 781.14 425.44 788.60 424.66 C 792.04 418.91 793.51 412.33 795.18 405.91 C 795.76 403.00 797.71 399.95 800.98 399.77 C 807.98 399.19 814.99 398.62 822.03 398.74 C 827.43 398.41 833.06 399.31 838.22 397.28 C 842.82 386.23 839.10 373.97 842.63 362.68 C 844.08 361.93 845.45 360.77 847.15 360.65 C 857.73 360.25 868.43 361.29 878.95 359.73 C 884.93 359.17 888.77 353.57 889.81 348.09 C 891.87 341.26 889.56 333.83 892.18 327.16 C 893.82 323.21 898.37 322.71 902.09 323.46 C 911.72 324.97 922.15 325.54 931.11 321.01 C 932.64 320.13 934.85 319.25 934.70 317.09 C 935.90 306.79 929.51 297.97 926.62 288.55 C 925.26 285.08 928.21 280.82 932.01 281.37 C 944.77 282.10 957.57 284.40 970.36 282.66 C 973.93 282.11 977.89 281.29 980.34 278.39 C 981.97 276.43 981.78 273.58 980.70 271.42 C 978.69 267.05 975.03 263.73 971.26 260.89 C 955.52 248.66 936.54 241.79 917.96 235.18 C 898.78 227.82 879.09 221.94 859.50 215.79 C 838.74 210.04 818.07 203.93 797.04 199.22 C 778.14 194.61 759.20 190.14 740.10 186.43 C 716.74 181.57 693.40 176.57 669.79 173.05 C 643.92 169.10 618.09 164.75 592.01 162.39 C 578.38 160.95 564.67 160.57 550.99 159.91 C 544.99 160.05 539.01 160.66 533.01 160.72 C 511.45 161.93 489.65 165.70 470.14 175.34 Z" />
<path fill="#0a0a0a" stroke="#0a0a0a" stroke-width="0.09375" opacity="1.00" d=" M 518.44 172.57 C 526.24 168.96 537.20 171.80 540.45 180.25 C 544.15 189.62 536.47 200.38 526.92 201.67 C 522.96 202.08 518.65 202.17 515.14 200.02 C 510.71 197.76 508.19 192.85 507.85 188.03 C 508.03 181.37 512.29 175.13 518.44 172.57 Z" />
<path fill="#0a0a0a" stroke="#0a0a0a" stroke-width="0.09375" opacity="1.00" d=" M 651.52 179.48 C 653.71 178.71 656.28 177.80 658.24 179.64 C 663.95 183.85 663.96 191.60 663.89 198.00 C 664.75 212.01 656.01 225.66 643.55 231.76 C 636.33 235.63 627.79 237.08 621.46 242.52 C 615.72 247.88 617.02 256.58 613.04 262.92 C 605.93 274.82 593.48 282.03 581.95 289.02 C 580.12 290.05 579.51 292.12 579.33 294.08 C 577.66 305.66 575.04 317.23 570.03 327.87 C 566.33 335.46 559.92 341.16 554.74 347.69 C 552.66 349.94 553.25 353.16 553.18 355.96 C 553.56 363.70 551.89 371.33 552.07 379.07 C 551.73 376.14 551.95 373.17 551.51 370.25 C 550.62 374.13 552.40 378.10 551.38 382.00 C 548.08 401.67 534.13 417.92 517.86 428.60 C 514.62 430.93 509.64 432.41 509.04 436.97 C 508.25 442.31 508.62 447.76 507.78 453.11 C 506.70 465.37 502.49 477.73 493.95 486.83 C 484.90 495.66 472.26 499.53 459.90 500.53 C 456.77 500.90 452.48 500.60 451.14 504.20 C 445.58 515.45 439.73 526.83 430.87 535.89 C 424.13 542.25 415.41 546.68 406.03 547.03 C 394.03 547.37 382.00 547.33 370.01 546.84 C 368.50 548.15 367.90 550.15 366.98 551.87 C 361.59 562.48 354.56 573.05 343.70 578.68 C 333.29 584.29 320.58 583.51 309.79 579.40 C 307.24 578.50 303.68 577.19 301.82 579.96 C 296.44 586.18 291.35 592.68 285.94 598.88 C 283.27 602.08 279.12 603.99 274.92 603.18 C 267.34 601.90 259.59 600.20 251.89 601.60 C 248.70 603.47 246.87 606.86 244.33 609.44 C 234.70 619.56 224.74 629.83 212.17 636.29 C 205.13 639.66 196.84 641.88 189.23 639.05 C 181.26 636.16 175.35 628.43 174.60 620.02 C 174.33 617.83 176.08 616.24 177.09 614.51 C 181.54 613.90 185.54 616.09 189.69 617.28 C 196.61 619.45 203.96 618.84 211.10 618.84 C 214.74 618.95 217.20 615.96 219.63 613.70 C 229.70 604.05 234.36 590.55 240.67 578.45 C 241.83 576.16 244.56 574.03 247.21 575.11 C 254.86 578.16 261.57 583.18 269.14 586.37 C 274.37 584.95 278.68 581.05 281.59 576.58 C 285.50 571.16 287.59 564.71 291.37 559.22 C 293.59 555.94 298.11 554.33 301.83 555.86 C 305.32 557.31 308.43 559.52 311.86 561.10 C 317.68 563.91 324.55 565.18 330.85 563.29 C 334.96 562.09 338.61 559.65 341.61 556.63 C 349.28 549.69 354.39 540.58 359.79 531.89 C 361.68 528.66 365.49 526.33 369.30 527.05 C 381.39 529.06 393.82 531.18 406.03 528.96 C 414.08 527.48 421.31 522.41 425.27 515.23 C 430.48 506.58 433.52 496.90 435.92 487.15 C 436.58 484.29 437.85 480.90 441.15 480.35 C 446.09 479.66 451.05 480.91 456.01 480.75 C 461.67 480.54 467.42 482.06 473.00 480.61 C 475.34 479.58 476.69 477.17 478.24 475.25 C 485.47 465.85 489.29 453.86 488.79 442.01 C 488.80 437.41 489.31 432.81 489.98 428.26 C 490.49 425.25 492.84 423.05 495.19 421.33 C 501.68 416.62 509.19 413.50 515.52 408.54 C 522.70 403.50 528.71 396.57 532.04 388.42 C 533.99 383.86 533.76 378.88 533.91 374.04 C 534.94 364.06 534.25 354.01 534.50 344.00 C 534.51 340.78 536.06 337.68 538.61 335.74 C 543.14 332.22 547.00 327.95 551.45 324.34 C 553.88 322.14 556.61 320.10 558.32 317.25 C 560.21 313.05 558.67 308.40 558.80 304.01 C 558.88 296.65 558.66 289.29 558.89 281.94 C 558.80 278.65 561.17 275.66 564.43 275.09 C 573.27 272.86 582.05 269.72 589.51 264.37 C 592.63 261.93 595.78 258.93 596.56 254.87 C 598.20 246.73 598.26 237.95 602.63 230.63 C 606.43 223.92 614.44 220.36 621.99 220.79 C 627.58 220.87 633.68 219.85 637.84 215.79 C 643.52 210.36 645.69 202.48 647.30 195.03 C 648.58 189.82 648.95 184.29 651.52 179.48 Z" />
<path fill="#0a0a0a" stroke="#0a0a0a" stroke-width="0.09375" opacity="1.00" d=" M 223.29 194.15 C 232.02 192.44 241.65 192.37 249.79 196.44 C 259.92 201.26 268.26 210.23 271.44 221.09 C 274.57 231.12 273.64 242.33 268.82 251.68 C 265.67 257.92 260.43 262.90 254.53 266.52 C 244.64 272.58 231.91 273.42 221.19 269.10 C 208.38 264.19 198.50 252.35 196.26 238.77 C 194.45 230.83 195.86 222.44 199.01 215.03 C 203.39 204.83 212.74 197.27 223.29 194.15 Z" />
<path fill="#0a0a0a" stroke="#0a0a0a" stroke-width="0.09375" opacity="1.00" d=" M 702.74 222.08 C 711.24 221.11 719.90 221.72 728.31 223.22 C 735.92 224.63 743.62 228.57 747.52 235.50 C 749.27 238.42 747.15 241.99 744.56 243.58 C 734.56 248.62 722.35 250.06 711.92 245.38 C 705.23 242.27 698.64 237.86 694.73 231.46 C 692.89 226.32 698.24 222.60 702.74 222.08 Z" />
<path fill="#0a0a0a" stroke="#0a0a0a" stroke-width="0.09375" opacity="1.00" d=" M 474.76 237.14 C 481.41 235.50 489.29 238.48 492.39 244.78 C 495.78 250.99 494.55 259.46 488.99 264.00 C 481.79 270.88 468.44 268.38 464.40 259.22 C 459.71 250.70 465.36 239.11 474.76 237.14 Z" />
<path fill="#0a0a0a" stroke="#0a0a0a" stroke-width="0.09375" opacity="1.00" d=" M 673.62 248.71 C 675.98 246.22 679.78 245.72 682.98 246.65 C 680.65 247.02 678.33 247.32 676.01 247.65 C 679.67 248.02 683.52 246.94 687.01 248.47 C 696.81 252.12 706.31 257.66 712.62 266.19 C 717.23 272.63 717.92 281.74 713.73 288.56 C 710.59 294.95 704.08 298.79 697.55 300.98 C 686.02 304.64 673.73 303.92 661.95 306.18 C 660.42 306.58 657.96 307.04 658.32 309.15 C 658.33 312.66 661.01 315.38 663.05 317.98 C 669.33 325.36 676.81 332.55 679.13 342.30 C 679.56 347.78 673.82 351.64 668.90 352.16 C 662.69 351.96 657.83 347.43 653.50 343.48 C 643.09 333.94 635.36 321.25 632.73 307.30 C 631.86 302.55 631.98 297.16 635.16 293.24 C 639.44 287.88 646.55 286.17 652.97 284.93 C 664.68 282.56 677.20 283.25 688.11 277.79 C 685.74 272.56 680.95 268.99 677.71 264.32 C 675.63 261.82 674.40 258.79 672.98 255.90 C 672.79 253.52 671.77 250.68 673.62 248.71 Z" />
<path fill="#0a0a0a" stroke="#0a0a0a" stroke-width="0.09375" opacity="1.00" d=" M 312.66 255.90 C 315.19 254.92 318.13 255.18 320.48 256.52 C 337.81 266.17 355.21 275.72 372.54 285.38 C 375.75 287.09 379.12 289.97 378.77 294.01 C 379.11 300.15 371.58 304.89 366.19 301.74 C 348.72 292.45 331.58 282.52 314.19 273.07 C 311.63 271.68 308.98 269.94 307.83 267.13 C 306.17 262.86 308.64 257.80 312.66 255.90 Z" />
<path fill="#0a0a0a" stroke="#0a0a0a" stroke-width="0.09375" opacity="1.00" d=" M 288.44 287.57 C 292.33 286.62 296.01 288.88 299.41 290.47 C 312.07 297.39 323.29 306.64 333.98 316.25 C 339.41 321.53 345.06 326.80 348.80 333.47 C 349.88 335.45 350.24 338.17 348.92 340.13 C 347.31 342.34 344.17 341.80 341.91 341.08 C 336.79 339.22 332.02 336.49 327.48 333.49 C 316.21 325.63 305.40 317.02 295.90 307.07 C 292.10 303.06 287.96 299.09 285.87 293.87 C 284.71 291.50 286.10 288.56 288.44 287.57 Z" />
<path fill="#0a0a0a" stroke="#0a0a0a" stroke-width="0.09375" opacity="1.00" d=" M 261.37 304.45 C 264.58 304.30 268.04 304.13 270.85 306.00 C 275.42 308.55 277.06 313.85 278.55 318.52 C 283.97 333.96 291.17 348.69 297.56 363.74 C 299.20 367.78 301.69 371.59 302.19 376.02 C 302.66 378.65 301.08 380.97 300.07 383.27 C 297.83 383.59 295.45 384.70 293.23 383.73 C 290.07 382.56 287.78 379.84 286.38 376.86 C 282.23 368.33 277.82 359.92 274.12 351.18 C 269.24 339.48 263.83 327.99 259.53 316.06 C 258.69 313.62 257.91 310.97 258.53 308.39 C 259.18 306.89 260.38 305.72 261.37 304.45 Z" />
<path fill="#0a0a0a" stroke="#0a0a0a" stroke-width="0.09375" opacity="1.00" d=" M 450.71 311.95 C 455.83 311.03 461.08 312.53 465.87 314.31 C 470.64 315.90 471.94 321.48 472.37 325.92 C 472.57 330.23 472.70 335.88 468.41 338.37 C 462.43 341.12 455.26 341.69 449.13 339.05 C 443.82 336.78 440.20 330.74 441.73 324.98 C 443.05 319.86 445.88 314.46 450.71 311.95 Z" />
<path fill="#0a0a0a" stroke="#0a0a0a" stroke-width="0.09375" opacity="1.00" d=" M 740.61 338.72 C 744.66 336.43 749.57 337.20 753.94 337.92 C 764.12 339.88 773.59 344.40 782.55 349.47 C 787.86 353.03 793.56 356.72 796.74 362.47 C 798.68 365.66 797.84 370.60 794.11 372.06 C 788.59 374.19 782.48 373.15 776.95 371.68 C 767.07 368.89 757.53 364.72 749.07 358.87 C 744.68 355.75 740.18 352.22 737.81 347.25 C 736.37 344.13 737.73 340.46 740.61 338.72 Z" />
<path fill="#0a0a0a" stroke="#0a0a0a" stroke-width="0.09375" opacity="1.00" d=" M 609.67 341.93 C 611.20 341.64 612.80 341.68 614.35 341.96 C 623.66 344.26 632.78 348.55 639.33 355.73 C 644.63 362.02 649.43 369.38 650.20 377.76 C 649.48 382.43 644.04 384.42 639.98 382.74 C 628.99 378.88 619.81 371.37 610.44 364.67 C 607.15 361.85 602.59 359.42 601.73 354.80 C 601.26 349.53 604.37 343.43 609.67 341.93 Z" />
<path fill="#0a0a0a" stroke="#0a0a0a" stroke-width="0.09375" opacity="1.00" d=" M 424.63 388.94 C 433.20 386.88 444.02 392.47 444.21 402.02 C 443.80 411.76 433.96 418.10 424.92 418.23 C 418.03 417.95 410.49 413.47 409.78 406.04 C 408.79 397.36 416.65 390.39 424.63 388.94 Z" />
<path fill="#0a0a0a" stroke="#0a0a0a" stroke-width="0.09375" opacity="1.00" d=" M 649.39 409.46 C 652.96 407.66 657.14 408.33 660.98 408.55 C 671.26 409.41 681.41 413.86 688.46 421.49 C 691.28 424.41 693.08 429.56 689.92 432.90 C 685.69 436.99 679.30 436.30 673.91 436.14 C 666.89 435.35 659.58 434.45 653.37 430.83 C 649.03 428.07 645.11 423.47 645.35 418.04 C 645.11 414.77 646.26 410.99 649.39 409.46 Z" />
<path fill="#0a0a0a" stroke="#0a0a0a" stroke-width="0.09375" opacity="1.00" d=" M 362.62 438.05 C 368.26 437.28 373.77 440.44 377.55 444.42 C 380.24 447.29 383.27 450.81 382.55 455.07 C 379.91 462.63 372.81 468.12 365.04 469.68 C 361.20 470.95 357.08 469.22 354.06 466.85 C 345.58 458.06 350.07 440.24 362.62 438.05 Z" />
<path fill="#0a0a0a" stroke="#0a0a0a" stroke-width="0.09375" opacity="1.00" d=" M 281.10 457.84 C 288.64 455.72 296.94 458.09 302.83 463.11 C 305.35 465.38 306.78 468.72 307.15 472.06 C 307.09 479.16 301.35 485.44 294.55 486.96 C 288.24 488.77 280.89 486.25 277.29 480.71 C 274.48 476.45 272.85 471.15 273.71 466.05 C 274.40 462.17 277.41 459.05 281.10 457.84 Z" />
<path fill="#0a0a0a" stroke="#0a0a0a" stroke-width="0.09375" opacity="1.00" d=" M 516.82 475.85 C 519.25 474.48 522.19 473.27 524.98 474.24 C 531.52 475.98 536.90 480.58 541.23 485.61 C 546.30 491.88 551.34 498.82 552.51 507.00 C 553.10 510.96 550.29 515.50 546.07 515.69 C 539.25 516.02 533.59 511.48 528.32 507.76 C 520.77 501.72 513.70 494.01 511.75 484.22 C 512.85 481.17 513.69 477.48 516.82 475.85 Z" />
<path fill="#0a0a0a" stroke="#0a0a0a" stroke-width="0.09375" opacity="1.00" d=" M 193.92 492.42 C 194.97 486.45 199.65 480.64 206.01 480.24 C 211.63 479.82 218.13 480.58 222.25 484.81 C 225.35 489.95 223.82 496.32 224.21 502.02 C 224.57 505.56 222.93 508.85 220.63 511.42 C 213.06 511.05 205.47 511.14 197.90 511.29 C 205.12 509.79 212.56 511.82 219.71 510.49 C 213.17 511.13 206.62 510.26 200.07 510.71 C 197.54 511.22 196.04 508.95 194.55 507.36 C 193.86 502.42 192.39 497.36 193.92 492.42 Z" />
<path fill="#0a0a0a" stroke="#0a0a0a" stroke-width="0.09375" opacity="1.00" d=" M 577.70 544.11 C 579.81 543.32 582.14 543.70 584.31 544.07 C 594.83 546.40 605.24 549.41 615.14 553.70 C 653.41 569.24 692.27 583.27 731.27 596.88 C 739.46 599.57 747.78 602.32 755.01 607.15 C 758.23 609.36 761.22 612.40 762.12 616.33 C 761.98 621.89 756.36 626.03 751.05 625.85 C 740.71 626.01 730.83 622.31 721.10 619.24 C 703.36 613.62 686.43 605.85 669.02 599.34 C 639.07 587.86 608.84 577.13 579.10 565.09 C 574.22 563.37 572.16 557.84 572.49 553.03 C 572.67 549.51 574.07 545.38 577.70 544.11 Z" />
<path fill="#0a0a0a" stroke="#0a0a0a" stroke-width="0.09375" opacity="1.00" d=" M 546.15 569.80 C 548.59 568.51 551.56 569.64 553.23 571.66 C 556.57 575.40 559.92 579.20 562.58 583.48 C 589.90 628.16 614.16 674.70 635.45 722.54 C 636.53 725.18 638.06 728.01 637.23 730.96 C 635.86 734.20 632.19 735.14 629.04 735.52 C 626.88 735.68 624.48 736.74 622.48 735.47 C 619.93 734.06 618.58 731.34 617.04 729.01 C 594.26 691.58 572.95 653.25 552.90 614.30 C 547.82 604.54 543.71 594.04 542.70 583.02 C 542.64 578.52 541.99 572.81 546.15 569.80 Z" />
<path fill="#0a0a0a" stroke="#0a0a0a" stroke-width="0.09375" opacity="1.00" d=" M 377.66 579.93 C 382.19 578.99 386.44 581.48 389.99 583.99 C 397.89 589.74 403.86 597.69 408.89 605.97 C 411.52 610.86 414.06 616.29 413.50 621.99 C 413.22 625.36 410.39 628.26 406.97 628.41 C 403.17 628.39 399.70 626.39 396.69 624.26 C 386.75 616.23 378.35 605.93 373.84 593.89 C 372.20 589.19 371.69 581.68 377.66 579.93 Z" />
<path fill="#0a0a0a" stroke="#0a0a0a" stroke-width="0.09375" opacity="1.00" d=" M 455.81 611.02 C 460.78 610.87 464.45 614.99 467.31 618.56 C 470.73 623.52 473.54 629.11 474.66 635.06 C 475.45 639.29 472.56 643.25 468.81 644.91 C 465.85 646.22 462.41 648.06 459.16 646.67 C 455.23 645.32 453.11 641.42 451.48 637.88 C 448.95 631.66 447.11 624.92 447.91 618.16 C 448.55 614.30 452.07 611.58 455.81 611.02 Z" />
<path fill="#0a0a0a" stroke="#0a0a0a" stroke-width="0.09375" opacity="1.00" d=" M 318.23 622.33 C 322.41 618.36 328.38 617.12 333.98 617.30 C 341.19 617.62 348.49 619.55 354.39 623.83 C 360.48 628.38 364.77 635.40 365.68 642.97 C 366.42 646.68 362.21 650.05 358.72 648.97 C 350.37 646.90 342.84 641.24 333.92 641.72 C 330.76 642.00 326.60 642.84 325.53 646.31 C 324.12 651.03 324.63 656.13 322.90 660.79 C 319.67 669.95 312.04 678.09 302.22 679.90 C 294.80 681.34 285.92 681.55 280.10 675.92 C 268.84 665.85 264.43 650.34 263.70 635.70 C 263.24 631.81 262.96 626.35 267.35 624.60 C 271.80 623.31 275.99 626.26 279.42 628.75 C 285.27 633.73 286.25 641.77 287.78 648.83 C 288.47 652.42 290.63 655.77 294.36 656.67 C 297.54 654.02 300.23 650.83 302.19 647.17 C 307.00 638.58 310.98 629.22 318.23 622.33 Z" />
<path fill="#0a0a0a" stroke="#0a0a0a" stroke-width="0.09375" opacity="1.00" d=" M 236.64 646.93 C 241.95 645.70 246.00 650.36 248.82 654.17 C 254.94 663.55 258.14 674.86 258.17 686.04 C 257.87 690.63 257.05 696.66 252.18 698.62 C 248.39 700.42 244.20 697.98 241.58 695.25 C 233.56 685.80 230.10 673.21 229.68 661.01 C 229.72 655.74 230.86 648.82 236.64 646.93 Z" />
<path fill="#0a0a0a" stroke="#0a0a0a" stroke-width="0.09375" opacity="1.00" d=" M 267.27 736.25 C 270.61 734.14 274.54 736.48 276.83 739.06 C 281.00 743.89 284.00 749.60 287.04 755.19 C 295.92 772.82 303.05 791.26 309.70 809.83 C 315.63 827.93 321.11 846.22 325.11 864.86 C 325.81 868.81 326.34 873.44 323.58 876.78 C 320.05 880.74 313.03 880.34 309.60 876.43 C 306.27 872.61 303.84 868.07 302.11 863.33 C 293.65 841.16 286.56 818.50 278.47 796.20 C 274.31 785.32 269.52 774.68 266.12 763.53 C 264.28 757.23 262.60 750.71 263.20 744.09 C 263.26 741.06 264.67 737.90 267.27 736.25 Z" />
</g>
</svg>
